Jost-400-BookItalic.ufo
<glyph name="exclam" format="1">
  <advance width="300"/>
  <unicode hex="0021"/>
  <outline>
    <contour>
      <point x="223" y="700" type="line"/>
      <point x="323" y="700" type="line"/>
      <point x="215" y="200" type="line"/>
      <point x="155" y="200" type="line"/>
    </contour>
    <contour>
      <point x="102" y="40" type="curve" smooth="yes"/>
      <point x="107" y="70"/>
      <point x="137" y="95"/>
      <point x="167" y="95" type="curve" smooth="yes"/>
      <point x="197" y="95"/>
      <point x="217" y="70"/>
      <point x="212" y="40" type="curve" smooth="yes"/>
      <point x="207" y="10"/>
      <point x="177" y="-15"/>
      <point x="147" y="-15" type="curve" smooth="yes"/>
      <point x="117" y="-15"/>
      <point x="97" y="10"/>
    </contour>
  </outline>
</glyph>
<glyph name="dollar" format="1">
  <advance width="580"/>
  <unicode hex="0024"/>
  <outline>
    <contour>
      <point x="403" y="818" type="line"/>
      <point x="477" y="818" type="line"/>
      <point x="451" y="668" type="line"/>
      <point x="377" y="668" type="line"/>
    </contour>
    <contour>
      <point x="267" y="48" type="line"/>
      <point x="341" y="48" type="line"/>
      <point x="313" y="-112" type="line"/>
      <point x="239" y="-112" type="line"/>
    </contour>
    <contour>
      <point x="531" y="514" type="line"/>
      <point x="511" y="572"/>
      <point x="482" y="629"/>
      <point x="405" y="629" type="curve" smooth="yes"/>
      <point x="325" y="629"/>
      <point x="284" y="595"/>
      <point x="273" y="534" type="curve" smooth="yes"/>
      <point x="260" y="458"/>
      <point x="332" y="428"/>
      <point x="411" y="396" type="curve" smooth="yes"/>
      <point x="479" y="369"/>
      <point x="574" y="317"/>
      <point x="552" y="190" type="curve" smooth="yes"/>
      <point x="531" y="71"/>
      <point x="442" y="-10"/>
      <point x="303" y="-10" type="curve" smooth="yes"/>
      <point x="188" y="-10"/>
      <point x="111" y="68"/>
      <point x="87" y="183" type="curve"/>
      <point x="167" y="226" type="line"/>
      <point x="192" y="130"/>
      <point x="235" y="70"/>
      <point x="322" y="70" type="curve" smooth="yes"/>
      <point x="402" y="70"/>
      <point x="450" y="113"/>
      <point x="462" y="183" type="curve" smooth="yes"/>
      <point x="478" y="273"/>
      <point x="401" y="309"/>
      <point x="326" y="338" type="curve" smooth="yes"/>
      <point x="260" y="363"/>
      <point x="163" y="413"/>
      <point x="185" y="540" type="curve" smooth="yes"/>
      <point x="202" y="636"/>
      <point x="304" y="710"/>
      <point x="418" y="710" type="curve" smooth="yes"/>
      <point x="531" y="710"/>
      <point x="593" y="631"/>
      <point x="608" y="560" type="curve"/>
    </contour>
  </outline>
</glyph>
<glyph name="percent" format="1">
  <advance width="706"/>
  <unicode hex="0025"/>
  <outline>
    <contour>
      <point x="165" y="551" type="curve" smooth="yes"/>
      <point x="191" y="634"/>
      <point x="274" y="709"/>
      <point x="364" y="709" type="curve" smooth="yes"/>
      <point x="453" y="709"/>
      <point x="490" y="627"/>
      <point x="466" y="549" type="curve" smooth="yes"/>
      <point x="440" y="466"/>
      <point x="356" y="391"/>
      <point x="266" y="391" type="curve" smooth="yes"/>
      <point x="177" y="391"/>
      <point x="141" y="473"/>
    </contour>
    <contour>
      <point x="233" y="550" type="curve" smooth="yes"/>
      <point x="219" y="510"/>
      <point x="228" y="459"/>
      <point x="278" y="456" type="curve" smooth="yes"/>
      <point x="329" y="453"/>
      <point x="381" y="505"/>
      <point x="397" y="550" type="curve" smooth="yes"/>
      <point x="411" y="590"/>
      <point x="403" y="641"/>
      <point x="353" y="644" type="curve" smooth="yes"/>
      <point x="302" y="647"/>
      <point x="249" y="595"/>
    </contour>
    <contour>
      <point x="372" y="151" type="curve" smooth="yes"/>
      <point x="398" y="234"/>
      <point x="481" y="309"/>
      <point x="571" y="309" type="curve" smooth="yes"/>
      <point x="660" y="309"/>
      <point x="696" y="227"/>
      <point x="672" y="149" type="curve" smooth="yes"/>
      <point x="646" y="66"/>
      <point x="563" y="-9"/>
      <point x="473" y="-9" type="curve" smooth="yes"/>
      <point x="384" y="-9"/>
      <point x="348" y="73"/>
    </contour>
    <contour>
      <point x="440" y="150" type="curve" smooth="yes"/>
      <point x="426" y="110"/>
      <point x="435" y="59"/>
      <point x="485" y="56" type="curve" smooth="yes"/>
      <point x="536" y="53"/>
      <point x="588" y="105"/>
      <point x="604" y="150" type="curve" smooth="yes"/>
      <point x="618" y="190"/>
      <point x="609" y="241"/>
      <point x="559" y="244" type="curve" smooth="yes"/>
      <point x="508" y="247"/>
      <point x="456" y="195"/>
    </contour>
    <contour>
      <point x="710" y="699" type="line"/>
      <point x="791" y="699" type="line"/>
      <point x="126" y="0" type="line"/>
      <point x="51" y="0" type="line"/>
    </contour>
  </outline>
</glyph>
<glyph name="ampersand" format="1">
  <advance width="675"/>
  <unicode hex="0026"/>
  <outline>
    <contour>
      <point x="72" y="183" type="curve"/>
      <point x="158" y="188" type="line"/>
      <point x="145" y="112"/>
      <point x="201" y="64"/>
      <point x="281" y="64" type="curve" smooth="yes"/>
      <point x="408" y="64"/>
      <point x="540" y="186"/>
      <point x="658" y="316" type="curve"/>
      <point x="713" y="277" type="line"/>
      <point x="582" y="137"/>
      <point x="442" y="-10"/>
      <point x="263" y="-10" type="curve" smooth="yes"/>
      <point x="148" y="-10"/>
      <point x="51" y="64"/>
    </contour>
    <contour>
      <point x="215" y="556" type="line"/>
      <point x="232" y="650"/>
      <point x="313" y="711"/>
      <point x="413" y="711" type="curve" smooth="yes"/>
      <point x="518" y="711"/>
      <point x="569" y="638"/>
      <point x="554" y="554" type="curve"/>
      <point x="473" y="554" type="line"/>
      <point x="482" y="605"/>
      <point x="456" y="640"/>
      <point x="401" y="640" type="curve" smooth="yes"/>
      <point x="346" y="640"/>
      <point x="308" y="607"/>
      <point x="299" y="556" type="curve"/>
    </contour>
    <contour>
      <point x="291" y="384" type="line" smooth="yes"/>
      <point x="265" y="422"/>
      <point x="201" y="479"/>
      <point x="215" y="556" type="curve"/>
      <point x="299" y="556" type="line"/>
      <point x="291" y="510"/>
      <point x="328" y="471"/>
      <point x="360" y="425" type="curve" smooth="yes"/>
      <point x="655" y="0" type="line"/>
      <point x="559" y="0" type="line"/>
    </contour>
    <contour>
      <point x="554" y="554" type="line"/>
      <point x="542" y="487"/>
      <point x="477" y="425"/>
      <point x="374" y="370" type="curve" smooth="yes"/>
      <point x="293" y="327"/>
      <point x="176" y="288"/>
      <point x="158" y="188" type="curve"/>
      <point x="72" y="183" type="line"/>
      <point x="98" y="330"/>
      <point x="253" y="379"/>
      <point x="328" y="417" type="curve" smooth="yes"/>
      <point x="410" y="459"/>
      <point x="465" y="508"/>
      <point x="473" y="554" type="curve"/>
    </contour>
  </outline>
</glyph>
<glyph name="quotesingle" format="1">
  <advance width="268"/>
  <unicode hex="0027"/>
  <outline>
    <contour>
      <point x="301" y="699" type="line"/>
      <point x="398" y="699" type="line"/>
      <point x="218" y="402" type="line"/>
      <point x="163" y="401" type="line"/>
    </contour>
  </outline>
</glyph>
<glyph name="comma" format="1">
  <advance width="289"/>
  <unicode hex="002C"/>
  <outline>
    <contour>
      <point x="119" y="108" type="line"/>
      <point x="191" y="76" type="line"/>
      <point x="2" y="-168" type="line"/>
      <point x="-51" y="-147" type="line"/>
    </contour>
  </outline>
</glyph>
<glyph name="zero" format="1">
  <advance width="564"/>
  <unicode hex="0030"/>
  <outline>
    <contour>
      <point x="184" y="350" type="curve" smooth="yes"/>
      <point x="156" y="270"/>
      <point x="108" y="74"/>
      <point x="246" y="71" type="curve" smooth="yes"/>
      <point x="384" y="68"/>
      <point x="472" y="240"/>
      <point x="511" y="350" type="curve" smooth="yes"/>
      <point x="539" y="430"/>
      <point x="587" y="626"/>
      <point x="449" y="629" type="curve" smooth="yes"/>
      <point x="311" y="632"/>
      <point x="223" y="460"/>
    </contour>
    <contour>
      <point x="101" y="350" type="curve" smooth="yes"/>
      <point x="152" y="504"/>
      <point x="279" y="710"/>
      <point x="464" y="709" type="curve" smooth="yes"/>
      <point x="653" y="708"/>
      <point x="635" y="476"/>
      <point x="594" y="350" type="curve" smooth="yes"/>
      <point x="543" y="196"/>
      <point x="416" y="-10"/>
      <point x="231" y="-9" type="curve" smooth="yes"/>
      <point x="42" y="-8"/>
      <point x="60" y="224"/>
    </contour>
  </outline>
</glyph>
<glyph name="two" format="1">
  <advance width="535"/>
  <unicode hex="0032"/>
  <outline>
    <contour>
      <point x="-16" y="0" type="line"/>
      <point x="400" y="353" type="line" smooth="yes"/>
      <point x="448" y="394"/>
      <point x="501" y="443"/>
      <point x="520" y="506" type="curve" smooth="yes"/>
      <point x="539" y="569"/>
      <point x="506" y="628"/>
      <point x="437" y="630" type="curve" smooth="yes"/>
      <point x="339" y="633"/>
      <point x="279" y="540"/>
      <point x="245" y="461" type="curve"/>
      <point x="163" y="461" type="line"/>
      <point x="209" y="586"/>
      <point x="304" y="711"/>
      <point x="451" y="710" type="curve" smooth="yes"/>
      <point x="562" y="709"/>
      <point x="635" y="617"/>
      <point x="605" y="509" type="curve" smooth="yes"/>
      <point x="583" y="428"/>
      <point x="521" y="360"/>
      <point x="458" y="307" type="curve" smooth="yes"/>
      <point x="178" y="81" type="line"/>
      <point x="477" y="80" type="line"/>
      <point x="452" y="0" type="line"/>
    </contour>
  </outline>
</glyph>
<glyph name="three" format="1">
  <advance width="513"/>
  <unicode hex="0033"/>
  <outline>
    <contour>
      <point x="310" y="346" type="curve"/>
      <point x="325" y="400" type="line"/>
      <point x="399" y="412"/>
      <point x="471" y="445"/>
      <point x="497" y="521" type="curve" smooth="yes"/>
      <point x="515" y="573"/>
      <point x="499" y="630"/>
      <point x="437" y="632" type="curve" smooth="yes"/>
      <point x="369" y="634"/>
      <point x="322" y="580"/>
      <point x="291" y="527" type="curve"/>
      <point x="211" y="528" type="line"/>
      <point x="252" y="626"/>
      <point x="335" y="710"/>
      <point x="449" y="709" type="curve" smooth="yes"/>
      <point x="552" y="708"/>
      <point x="609" y="619"/>
      <point x="581" y="523" type="curve" smooth="yes"/>
      <point x="546" y="404"/>
      <point x="423" y="355"/>
    </contour>
    <contour>
      <point x="234" y="-9" type="curve" smooth="yes"/>
      <point x="116" y="-9"/>
      <point x="60" y="74"/>
      <point x="77" y="185" type="curve"/>
      <point x="159" y="184" type="line"/>
      <point x="152" y="119"/>
      <point x="176" y="72"/>
      <point x="248" y="71" type="curve" smooth="yes"/>
      <point x="322" y="70"/>
      <point x="393" y="126"/>
      <point x="415" y="195" type="curve" smooth="yes"/>
      <point x="443" y="282"/>
      <point x="377" y="315"/>
      <point x="303" y="325" type="curve"/>
      <point x="319" y="379" type="line"/>
      <point x="433" y="371"/>
      <point x="533" y="314"/>
      <point x="496" y="184" type="curve" smooth="yes"/>
      <point x="464" y="72"/>
      <point x="350" y="-9"/>
    </contour>
  </outline>
</glyph>
<glyph name="four" format="1">
  <advance width="583"/>
  <unicode hex="0034"/>
  <outline>
    <contour>
      <point x="45" y="140" type="line"/>
      <point x="128" y="215" type="line"/>
      <point x="431" y="215" type="line" smooth="yes"/>
      <point x="448" y="215" type="line" smooth="yes"/>
      <point x="591" y="215" type="line"/>
      <point x="578" y="140" type="line"/>
    </contour>
    <contour>
      <point x="135" y="140" type="line"/>
      <point x="45" y="140" type="line"/>
      <point x="531" y="700" type="line"/>
      <point x="566" y="700" type="line"/>
      <point x="443" y="0" type="line"/>
      <point x="358" y="0" type="line"/>
      <point x="389" y="176" type="line" smooth="yes"/>
      <point x="391" y="187" type="line" smooth="yes"/>
      <point x="448" y="511" type="line"/>
    </contour>
  </outline>
</glyph>
<glyph name="five" format="1">
  <advance width="530"/>
  <unicode hex="0035"/>
  <outline>
    <contour>
      <point x="531" y="230" type="curve" smooth="yes"/>
      <point x="493" y="98"/>
      <point x="372" y="-9"/>
      <point x="231" y="-9" type="curve" smooth="yes"/>
      <point x="131" y="-9"/>
      <point x="68" y="49"/>
      <point x="35" y="139" type="curve"/>
      <point x="116" y="185" type="line"/>
      <point x="136" y="123"/>
      <point x="174" y="72"/>
      <point x="245" y="71" type="curve" smooth="yes"/>
      <point x="338" y="70"/>
      <point x="418" y="145"/>
      <point x="446" y="230" type="curve" smooth="yes"/>
      <point x="471" y="307"/>
      <point x="441" y="384"/>
      <point x="353" y="389" type="curve" smooth="yes"/>
      <point x="285" y="393"/>
      <point x="220" y="359"/>
      <point x="161" y="329" type="curve"/>
      <point x="360" y="700" type="line"/>
      <point x="675" y="700" type="line"/>
      <point x="650" y="625" type="line"/>
      <point x="405" y="625" type="line"/>
      <point x="297" y="440" type="line"/>
      <point x="330" y="453"/>
      <point x="364" y="465"/>
      <point x="400" y="465" type="curve" smooth="yes"/>
      <point x="528" y="464"/>
      <point x="561" y="334"/>
    </contour>
  </outline>
</glyph>
<glyph name="seven" format="1">
  <advance width="493"/>
  <unicode hex="0037"/>
  <outline>
    <contour>
      <point x="182" y="620" type="line"/>
      <point x="208" y="700" type="line"/>
      <point x="675" y="699" type="line"/>
      <point x="142" y="0" type="line"/>
      <point x="51" y="0" type="line"/>
      <point x="523" y="619" type="line"/>
    </contour>
  </outline>
</glyph>
<glyph name="nine" format="1">
  <advance width="576"/>
  <unicode hex="0039"/>
  <outline>
    <contour>
      <point x="528" y="470" type="curve" smooth="yes"/>
      <point x="545" y="566"/>
      <point x="490" y="633"/>
      <point x="400" y="633" type="curve" smooth="yes"/>
      <point x="310" y="633"/>
      <point x="231" y="566"/>
      <point x="214" y="470" type="curve" smooth="yes"/>
      <point x="197" y="374"/>
      <point x="252" y="305"/>
      <point x="342" y="305" type="curve" smooth="yes"/>
      <point x="432" y="305"/>
      <point x="511" y="374"/>
    </contour>
    <contour>
      <point x="246" y="0" type="line"/>
      <point x="139" y="0" type="line"/>
      <point x="409" y="289" type="line"/>
      <point x="414" y="284" type="line"/>
      <point x="381" y="251"/>
      <point x="345" y="243"/>
      <point x="300" y="243" type="curve" smooth="yes"/>
      <point x="186" y="243"/>
      <point x="110" y="341"/>
      <point x="133" y="470" type="curve" smooth="yes"/>
      <point x="158" y="614"/>
      <point x="278" y="710"/>
      <point x="413" y="710" type="curve" smooth="yes"/>
      <point x="548" y="710"/>
      <point x="634" y="614"/>
      <point x="609" y="470" type="curve" smooth="yes"/>
      <point x="599" y="413"/>
      <point x="573" y="362"/>
      <point x="539" y="325" type="curve" smooth="yes"/>
    </contour>
  </outline>
</glyph>
<glyph name="colon" format="1">
  <advance width="282"/>
  <unicode hex="003A"/>
  <outline>
    <contour>
      <point x="46" y="40" type="curve" smooth="yes"/>
      <point x="46" y="70"/>
      <point x="70" y="94"/>
      <point x="100" y="94" type="curve" smooth="yes"/>
      <point x="130" y="94"/>
      <point x="154" y="70"/>
      <point x="154" y="40" type="curve" smooth="yes"/>
      <point x="154" y="10"/>
      <point x="130" y="-14"/>
      <point x="100" y="-14" type="curve" smooth="yes"/>
      <point x="70" y="-14"/>
      <point x="46" y="10"/>
    </contour>
    <contour>
      <point x="176" y="420" type="curve" smooth="yes"/>
      <point x="176" y="450"/>
      <point x="200" y="474"/>
      <point x="230" y="474" type="curve" smooth="yes"/>
      <point x="260" y="474"/>
      <point x="284" y="450"/>
      <point x="284" y="420" type="curve" smooth="yes"/>
      <point x="284" y="390"/>
      <point x="260" y="366"/>
      <point x="230" y="366" type="curve" smooth="yes"/>
      <point x="200" y="366"/>
      <point x="176" y="390"/>
    </contour>
  </outline>
</glyph>
<glyph name="less" format="1">
  <advance width="602"/>
  <unicode hex="003C"/>
  <outline>
    <contour>
      <point x="221" y="255" type="line"/>
      <point x="521" y="87" type="line"/>
      <point x="494" y="17" type="line"/>
      <point x="86" y="236" type="line"/>
      <point x="101" y="280" type="line"/>
      <point x="662" y="502" type="line"/>
      <point x="633" y="415" type="line"/>
    </contour>
  </outline>
</glyph>
<glyph name="equal" format="1">
  <advance width="578"/>
  <unicode hex="003D"/>
  <outline>
    <contour>
      <point x="56" y="141" type="line"/>
      <point x="80" y="215" type="line"/>
      <point x="540" y="215" type="line"/>
      <point x="514" y="140" type="line"/>
    </contour>
    <contour>
      <point x="107" y="291" type="line"/>
      <point x="131" y="365" type="line"/>
      <point x="591" y="365" type="line"/>
      <point x="566" y="290" type="line"/>
    </contour>
  </outline>
</glyph>
<glyph name="greater" format="1">
  <advance width="602"/>
  <unicode hex="003E"/>
  <outline>
    <contour>
      <point x="448" y="260" type="line"/>
      <point x="149" y="428" type="line"/>
      <point x="176" y="498" type="line"/>
      <point x="583" y="279" type="line"/>
      <point x="569" y="235" type="line"/>
      <point x="8" y="13" type="line"/>
      <point x="36" y="100" type="line"/>
    </contour>
  </outline>
</glyph>
<glyph name="at" format="1">
  <advance width="724"/>
  <unicode hex="0040"/>
  <outline>
    <contour>
      <point x="305" y="320" type="curve" smooth="yes"/>
      <point x="291" y="280"/>
      <point x="296" y="235"/>
      <point x="346" y="231" type="curve" smooth="yes"/>
      <point x="419" y="225"/>
      <point x="490" y="307"/>
      <point x="510" y="370" type="curve" smooth="yes"/>
      <point x="523" y="411"/>
      <point x="514" y="457"/>
      <point x="464" y="459" type="curve" smooth="yes"/>
      <point x="393" y="462"/>
      <point x="325" y="380"/>
    </contour>
    <contour>
      <point x="231" y="318" type="curve" smooth="yes"/>
      <point x="260" y="416"/>
      <point x="365" y="535"/>
      <point x="477" y="529" type="curve" smooth="yes"/>
      <point x="563" y="525"/>
      <point x="565" y="433"/>
      <point x="545" y="369" type="curve" smooth="yes"/>
      <point x="515" y="272"/>
      <point x="427" y="158"/>
      <point x="314" y="161" type="curve" smooth="yes"/>
      <point x="228" y="164"/>
      <point x="210" y="248"/>
    </contour>
    <contour>
      <point x="86" y="320" type="curve" smooth="yes"/>
      <point x="152" y="522"/>
      <point x="350" y="712"/>
      <point x="572" y="710" type="curve" smooth="yes"/>
      <point x="751" y="708"/>
      <point x="825" y="547"/>
      <point x="773" y="390" type="curve" smooth="yes"/>
      <point x="740" y="291"/>
      <point x="647" y="141"/>
      <point x="525" y="150" type="curve" smooth="yes"/>
      <point x="454" y="155"/>
      <point x="462" y="220"/>
      <point x="477" y="271" type="curve"/>
      <point x="470" y="271" type="line"/>
      <point x="588" y="519" type="line"/>
      <point x="664" y="519" type="line"/>
      <point x="542" y="289" type="line" smooth="yes"/>
      <point x="538" y="280"/>
      <point x="532" y="271"/>
      <point x="530" y="262" type="curve" smooth="yes"/>
      <point x="525" y="243"/>
      <point x="524" y="223"/>
      <point x="547" y="217" type="curve" smooth="yes"/>
      <point x="617" y="198"/>
      <point x="686" y="341"/>
      <point x="704" y="390" type="curve" smooth="yes"/>
      <point x="749" y="511"/>
      <point x="706" y="641"/>
      <point x="562" y="644" type="curve" smooth="yes"/>
      <point x="377" y="647"/>
      <point x="213" y="485"/>
      <point x="155" y="320" type="curve" smooth="yes"/>
      <point x="110" y="192"/>
      <point x="150" y="60"/>
      <point x="302" y="56" type="curve" smooth="yes"/>
      <point x="376" y="54"/>
      <point x="446" y="78"/>
      <point x="512" y="107" type="curve"/>
      <point x="529" y="47" type="line"/>
      <point x="454" y="12"/>
      <point x="375" y="-10"/>
      <point x="292" y="-9" type="curve" smooth="yes"/>
      <point x="100" y="-6"/>
      <point x="31" y="151"/>
    </contour>
  </outline>
</glyph>
<glyph name="A" format="1">
  <advance width="620"/>
  <unicode hex="0041"/>
  <outline>
    <contour>
      <point x="156" y="210" type="line"/>
      <point x="209" y="289" type="line"/>
      <point x="504" y="289" type="line"/>
      <point x="506" y="210" type="line"/>
    </contour>
    <contour>
      <point x="446" y="542" type="line"/>
      <point x="239" y="264" type="line"/>
      <point x="226" y="246" type="line"/>
      <point x="42" y="0" type="line"/>
      <point x="-55" y="0" type="line"/>
      <point x="507" y="738" type="line"/>
      <point x="561" y="0" type="line"/>
      <point x="473" y="0" type="line"/>
      <point x="459" y="240" type="line"/>
      <point x="459" y="260" type="line"/>
    </contour>
  </outline>
</glyph>
<glyph name="B" format="1">
  <advance width="558"/>
  <unicode hex="0042"/>
  <outline>
    <contour>
      <point x="196" y="390" type="line"/>
      <point x="339" y="390" type="line" smooth="yes"/>
      <point x="474" y="390"/>
      <point x="567" y="334"/>
      <point x="544" y="205" type="curve" smooth="yes"/>
      <point x="519" y="66"/>
      <point x="405" y="0"/>
      <point x="270" y="0" type="curve" smooth="yes"/>
      <point x="127" y="0" type="line"/>
      <point x="140" y="75" type="line"/>
      <point x="283" y="75" type="line" smooth="yes"/>
      <point x="373" y="75"/>
      <point x="445" y="124"/>
      <point x="460" y="210" type="curve" smooth="yes"/>
      <point x="475" y="296"/>
      <point x="420" y="343"/>
      <point x="330" y="343" type="curve" smooth="yes"/>
      <point x="187" y="343" type="line"/>
    </contour>
    <contour>
      <point x="192" y="370" type="line"/>
      <point x="201" y="417" type="line"/>
      <point x="334" y="417" type="line" smooth="yes"/>
      <point x="404" y="417"/>
      <point x="463" y="454"/>
      <point x="475" y="520" type="curve" smooth="yes"/>
      <point x="487" y="586"/>
      <point x="440" y="625"/>
      <point x="370" y="625" type="curve" smooth="yes"/>
      <point x="237" y="625" type="line"/>
      <point x="250" y="700" type="line"/>
      <point x="383" y="700" type="line" smooth="yes"/>
      <point x="508" y="700"/>
      <point x="582" y="644"/>
      <point x="561" y="525" type="curve" smooth="yes"/>
      <point x="544" y="426"/>
      <point x="450" y="370"/>
      <point x="325" y="370" type="curve" smooth="yes"/>
    </contour>
    <contour>
      <point x="203" y="700" type="line"/>
      <point x="288" y="700" type="line"/>
      <point x="165" y="0" type="line"/>
      <point x="80" y="0" type="line"/>
    </contour>
  </outline>
</glyph>
<glyph name="E" format="1">
  <advance width="550"/>
  <unicode hex="0045"/>
  <outline>
    <contour>
      <point x="127" y="0" type="line"/>
      <point x="141" y="80" type="line"/>
      <point x="494" y="80" type="line"/>
      <point x="480" y="0" type="line"/>
    </contour>
    <contour>
      <point x="236" y="620" type="line"/>
      <point x="250" y="700" type="line"/>
      <point x="603" y="700" type="line"/>
      <point x="589" y="620" type="line"/>
    </contour>
    <contour>
      <point x="187" y="340" type="line"/>
      <point x="201" y="420" type="line"/>
      <point x="534" y="420" type="line"/>
      <point x="520" y="340" type="line"/>
    </contour>
    <contour>
      <point x="203" y="700" type="line"/>
      <point x="288" y="700" type="line"/>
      <point x="165" y="0" type="line"/>
      <point x="80" y="0" type="line"/>
    </contour>
  </outline>
</glyph>
<glyph name="H" format="1">
  <advance width="715"/>
  <unicode hex="0048"/>
  <outline>
    <contour>
      <point x="187" y="340" type="line"/>
      <point x="201" y="420" type="line"/>
      <point x="681" y="420" type="line"/>
      <point x="667" y="340" type="line"/>
    </contour>
    <contour>
      <point x="673" y="700" type="line"/>
      <point x="758" y="700" type="line"/>
      <point x="635" y="0" type="line"/>
      <point x="550" y="0" type="line"/>
    </contour>
    <contour>
      <point x="203" y="700" type="line"/>
      <point x="288" y="700" type="line"/>
      <point x="165" y="0" type="line"/>
      <point x="80" y="0" type="line"/>
    </contour>
  </outline>
</glyph>
<glyph name="I" format="1">
  <advance width="230"/>
  <unicode hex="0049"/>
  <outline>
    <contour>
      <point x="257" y="700" type="line"/>
      <point x="343" y="700" type="line"/>
      <point x="101" y="0" type="line"/>
      <point x="22" y="0" type="line"/>
    </contour>
  </outline>
</glyph>
<glyph name="J" format="1">
  <advance width="240"/>
  <unicode hex="004A"/>
  <outline>
    <contour>
      <point x="-85" y="-104" type="line"/>
      <point x="-75" y="-127"/>
      <point x="-49" y="-140"/>
      <point x="-13" y="-140" type="curve" smooth="yes"/>
      <point x="17" y="-140"/>
      <point x="59" y="-116"/>
      <point x="71" y="-50" type="curve" smooth="yes"/>
      <point x="203" y="700" type="line"/>
      <point x="283" y="700" type="line"/>
      <point x="149" y="-60" type="line" smooth="yes"/>
      <point x="130" y="-169"/>
      <point x="62" y="-220"/>
      <point x="-32" y="-220" type="curve" smooth="yes"/>
      <point x="-85" y="-220"/>
      <point x="-130" y="-190"/>
      <point x="-141" y="-170" type="curve"/>
    </contour>
  </outline>
</glyph>
<glyph name="K" format="1">
  <advance width="565"/>
  <unicode hex="004B"/>
  <outline>
    <contour>
      <point x="203" y="700" type="line"/>
      <point x="288" y="700" type="line"/>
      <point x="165" y="0" type="line"/>
      <point x="80" y="0" type="line"/>
    </contour>
    <contour>
      <point x="563" y="700" type="line"/>
      <point x="668" y="700" type="line"/>
      <point x="308" y="372" type="line"/>
      <point x="560" y="0" type="line"/>
      <point x="455" y="0" type="line"/>
      <point x="204" y="370" type="line"/>
    </contour>
  </outline>
</glyph>
<glyph name="M" format="1">
  <advance width="762"/>
  <unicode hex="004D"/>
  <outline>
    <contour>
      <point x="277" y="472" type="line"/>
      <point x="65" y="0" type="line"/>
      <point x="-20" y="0" type="line"/>
      <point x="314" y="736" type="line"/>
      <point x="402" y="231" type="line"/>
      <point x="846" y="743" type="line"/>
      <point x="670" y="0" type="line"/>
      <point x="588" y="0" type="line"/>
      <point x="701" y="464" type="line"/>
      <point x="350" y="63" type="line"/>
    </contour>
  </outline>
</glyph>
<glyph name="N" format="1">
  <advance width="729"/>
  <unicode hex="004E"/>
  <outline>
    <contour>
      <point x="758" y="700" type="line"/>
      <point x="841" y="700" type="line"/>
      <point x="589" y="-33" type="line"/>
      <point x="282" y="522" type="line"/>
      <point x="102" y="0" type="line"/>
      <point x="18" y="0" type="line"/>
      <point x="270" y="733" type="line"/>
      <point x="578" y="178" type="line"/>
    </contour>
  </outline>
</glyph>
<glyph name="R" format="1">
  <advance width="526"/>
  <unicode hex="0052"/>
  <outline>
    <contour>
      <point x="256" y="345" type="line"/>
      <point x="344" y="345" type="line"/>
      <point x="461" y="0" type="line"/>
      <point x="368" y="0" type="line"/>
    </contour>
    <contour>
      <point x="257" y="700" type="line"/>
      <point x="343" y="700" type="line"/>
      <point x="101" y="0" type="line"/>
      <point x="22" y="0" type="line"/>
    </contour>
    <contour>
      <point x="276" y="625" type="line"/>
      <point x="303" y="700" type="line"/>
      <point x="433" y="700" type="line" smooth="yes"/>
      <point x="552" y="700"/>
      <point x="631" y="609"/>
      <point x="593" y="489" type="curve" smooth="yes"/>
      <point x="554" y="364"/>
      <point x="428" y="280"/>
      <point x="301" y="280" type="curve" smooth="yes"/>
      <point x="158" y="280" type="line"/>
      <point x="185" y="355" type="line"/>
      <point x="315" y="355" type="line" smooth="yes"/>
      <point x="399" y="355"/>
      <point x="480" y="409"/>
      <point x="510" y="490" type="curve" smooth="yes"/>
      <point x="538" y="566"/>
      <point x="496" y="625"/>
      <point x="419" y="625" type="curve" smooth="yes"/>
    </contour>
  </outline>
</glyph>
<glyph name="S" format="1">
  <advance width="515"/>
  <unicode hex="0053"/>
  <outline>
    <contour>
      <point x="126" y="226" type="line"/>
      <point x="134" y="155"/>
      <point x="153" y="72"/>
      <point x="241" y="71" type="curve" smooth="yes"/>
      <point x="310" y="70"/>
      <point x="374" y="119"/>
      <point x="398" y="183" type="curve" smooth="yes"/>
      <point x="428" y="264"/>
      <point x="366" y="307"/>
      <point x="302" y="338" type="curve" smooth="yes"/>
      <point x="221" y="377"/>
      <point x="166" y="435"/>
      <point x="196" y="531" type="curve" smooth="yes"/>
      <point x="229" y="635"/>
      <point x="335" y="709"/>
      <point x="444" y="709" type="curve" smooth="yes"/>
      <point x="539" y="709"/>
      <point x="585" y="643"/>
      <point x="603" y="558" type="curve"/>
      <point x="525" y="515" type="line"/>
      <point x="512" y="572"/>
      <point x="486" y="627"/>
      <point x="419" y="628" type="curve" smooth="yes"/>
      <point x="360" y="629"/>
      <point x="300" y="585"/>
      <point x="281" y="529" type="curve" smooth="yes"/>
      <point x="256" y="455"/>
      <point x="330" y="423"/>
      <point x="383" y="396" type="curve" smooth="yes"/>
      <point x="466" y="354"/>
      <point x="515" y="284"/>
      <point x="486" y="189" type="curve" smooth="yes"/>
      <point x="452" y="77"/>
      <point x="339" y="-9"/>
      <point x="221" y="-9" type="curve" smooth="yes"/>
      <point x="107" y="-9"/>
      <point x="58" y="84"/>
      <point x="45" y="185" type="curve"/>
    </contour>
  </outline>
</glyph>
<glyph name="T" format="1">
  <advance width="437"/>
  <unicode hex="0054"/>
  <outline>
    <contour>
      <point x="164" y="620" type="line"/>
      <point x="193" y="700" type="line"/>
      <point x="615" y="700" type="line"/>
      <point x="587" y="620" type="line"/>
      <point x="418" y="620" type="line"/>
      <point x="205" y="0" type="line"/>
      <point x="122" y="0" type="line"/>
      <point x="335" y="620" type="line"/>
    </contour>
  </outline>
</glyph>
<glyph name="V" format="1">
  <advance width="620"/>
  <unicode hex="0056"/>
  <outline>
    <contour>
      <point x="321" y="158" type="line"/>
      <point x="706" y="699" type="line"/>
      <point x="802" y="699" type="line"/>
      <point x="266" y="-38" type="line"/>
      <point x="187" y="700" type="line"/>
      <point x="273" y="700" type="line"/>
    </contour>
  </outline>
</glyph>
<glyph name="W" format="1">
  <advance width="990"/>
  <unicode hex="0057"/>
  <outline>
    <contour>
      <point x="336" y="90" type="line"/>
      <point x="279" y="-35" type="line"/>
      <point x="133" y="700" type="line"/>
      <point x="228" y="700" type="line"/>
    </contour>
    <contour>
      <point x="699" y="-35" type="line"/>
      <point x="686" y="90" type="line"/>
      <point x="1008" y="700" type="line"/>
      <point x="1103" y="700" type="line"/>
    </contour>
    <contour>
      <point x="279" y="-35" type="line"/>
      <point x="264" y="80" type="line"/>
      <point x="625" y="735" type="line"/>
      <point x="754" y="80" type="line"/>
      <point x="699" y="-35" type="line"/>
      <point x="585" y="509" type="line"/>
    </contour>
  </outline>
</glyph>
<glyph name="X" format="1">
  <advance width="555"/>
  <unicode hex="0058"/>
  <outline>
    <contour>
      <point x="553" y="700" type="line"/>
      <point x="653" y="700" type="line"/>
      <point x="388" y="367" type="line"/>
      <point x="545" y="0" type="line"/>
      <point x="445" y="0" type="line"/>
      <point x="332" y="293" type="line"/>
      <point x="110" y="0" type="line"/>
      <point x="10" y="0" type="line"/>
      <point x="303" y="367" type="line"/>
      <point x="158" y="700" type="line"/>
      <point x="258" y="700" type="line"/>
      <point x="359" y="441" type="line"/>
    </contour>
  </outline>
</glyph>
<glyph name="Y" format="1">
  <advance width="561"/>
  <unicode hex="0059"/>
  <outline>
    <contour>
      <point x="301" y="360" type="line"/>
      <point x="386" y="360" type="line"/>
      <point x="323" y="0" type="line"/>
      <point x="238" y="0" type="line"/>
    </contour>
    <contour>
      <point x="584" y="700" type="line"/>
      <point x="679" y="700" type="line"/>
      <point x="320" y="229" type="line"/>
      <point x="128" y="700" type="line"/>
      <point x="223" y="700" type="line"/>
      <point x="346" y="376" type="line"/>
    </contour>
  </outline>
</glyph>
<glyph name="Z" format="1">
  <advance width="545"/>
  <unicode hex="005A"/>
  <outline>
    <contour>
      <point x="144" y="620" type="line"/>
      <point x="158" y="700" type="line"/>
      <point x="648" y="700" type="line"/>
      <point x="171" y="80" type="line"/>
      <point x="519" y="80" type="line"/>
      <point x="505" y="0" type="line"/>
      <point x="15" y="0" type="line"/>
      <point x="492" y="620" type="line"/>
    </contour>
  </outline>
</glyph>
<glyph name="bracketleft" format="1">
  <advance width="282"/>
  <unicode hex="005B"/>
  <outline>
    <contour>
      <point x="355" y="705" type="line"/>
      <point x="91" y="-145" type="line"/>
      <point x="187" y="-145" type="line"/>
      <point x="163" y="-220" type="line"/>
      <point x="-10" y="-220" type="line"/>
      <point x="299" y="780" type="line"/>
      <point x="472" y="780" type="line"/>
      <point x="449" y="706" type="line"/>
    </contour>
  </outline>
</glyph>
<glyph name="backslash" format="1">
  <advance width="484"/>
  <unicode hex="005C"/>
  <outline>
    <contour>
      <point x="197" y="701" type="line"/>
      <point x="278" y="700" type="line"/>
      <point x="414" y="0" type="line"/>
      <point x="340" y="0" type="line"/>
    </contour>
  </outline>
</glyph>
<glyph name="bracketright" format="1">
  <advance width="300"/>
  <unicode hex="005D"/>
  <outline>
    <contour>
      <point x="95" y="-145" type="line"/>
      <point x="245" y="705" type="line"/>
      <point x="144" y="705" type="line"/>
      <point x="158" y="780" type="line"/>
      <point x="338" y="780" type="line"/>
      <point x="161" y="-220" type="line"/>
      <point x="-19" y="-220" type="line"/>
      <point x="-6" y="-145" type="line"/>
    </contour>
  </outline>
</glyph>
<glyph name="asciicircum" format="1">
  <advance width="510"/>
  <unicode hex="005E"/>
  <outline>
    <contour>
      <point x="364" y="621" type="line"/>
      <point x="226" y="460" type="line"/>
      <point x="146" y="460" type="line"/>
      <point x="360" y="710" type="line"/>
      <point x="400" y="710" type="line"/>
      <point x="526" y="460" type="line"/>
      <point x="446" y="460" type="line"/>
    </contour>
  </outline>
</glyph>
<glyph name="underscore" format="1">
  <advance width="470"/>
  <unicode hex="005F"/>
  <outline>
    <contour>
      <point x="-100" y="-132" type="line"/>
      <point x="-83" y="-79" type="line"/>
      <point x="390" y="-79" type="line"/>
      <point x="373" y="-132" type="line"/>
    </contour>
  </outline>
</glyph>
<glyph name="grave" format="1">
  <advance width="352"/>
  <unicode hex="0060"/>
  <outline>
    <contour>
      <point x="238" y="662" type="line"/>
      <point x="319" y="700" type="line"/>
      <point x="416" y="538" type="line"/>
      <point x="367" y="511" type="line"/>
    </contour>
  </outline>
</glyph>
<glyph name="c" format="1">
  <advance width="449"/>
  <unicode hex="0063"/>
  <outline>
    <contour>
      <point x="142" y="230" type="curve" smooth="yes"/>
      <point x="117" y="155"/>
      <point x="143" y="69"/>
      <point x="233" y="66" type="curve" smooth="yes"/>
      <point x="302" y="64"/>
      <point x="364" y="103"/>
      <point x="414" y="147" type="curve"/>
      <point x="386" y="48" type="line"/>
      <point x="336" y="14"/>
      <point x="282" y="-9"/>
      <point x="220" y="-9" type="curve" smooth="yes"/>
      <point x="88" y="-8"/>
      <point x="29" y="113"/>
      <point x="63" y="230" type="curve" smooth="yes"/>
      <point x="99" y="357"/>
      <point x="221" y="468"/>
      <point x="357" y="469" type="curve" smooth="yes"/>
      <point x="412" y="469"/>
      <point x="458" y="451"/>
      <point x="496" y="411" type="curve"/>
      <point x="467" y="311" type="line"/>
      <point x="446" y="365"/>
      <point x="405" y="395"/>
      <point x="345" y="394" type="curve" smooth="yes"/>
      <point x="252" y="393"/>
      <point x="170" y="315"/>
    </contour>
  </outline>
</glyph>
<glyph name="d" format="1">
  <advance width="570"/>
  <unicode hex="0064"/>
  <outline>
    <contour>
      <point x="558" y="780" type="line"/>
      <point x="638" y="780" type="line"/>
      <point x="500" y="0" type="line"/>
      <point x="420" y="0" type="line"/>
    </contour>
    <contour>
      <point x="76" y="230" type="curve" smooth="yes"/>
      <point x="102" y="379"/>
      <point x="221" y="470"/>
      <point x="346" y="470" type="curve" smooth="yes"/>
      <point x="461" y="470"/>
      <point x="523" y="379"/>
      <point x="497" y="230" type="curve" smooth="yes"/>
      <point x="471" y="81"/>
      <point x="376" y="-10"/>
      <point x="261" y="-10" type="curve" smooth="yes"/>
      <point x="136" y="-10"/>
      <point x="50" y="81"/>
    </contour>
    <contour>
      <point x="157" y="230" type="curve" smooth="yes"/>
      <point x="138" y="124"/>
      <point x="199" y="65"/>
      <point x="284" y="65" type="curve" smooth="yes"/>
      <point x="354" y="65"/>
      <point x="442" y="124"/>
      <point x="461" y="230" type="curve" smooth="yes"/>
      <point x="480" y="336"/>
      <point x="413" y="395"/>
      <point x="343" y="395" type="curve" smooth="yes"/>
      <point x="258" y="395"/>
      <point x="176" y="336"/>
    </contour>
  </outline>
</glyph>
<glyph name="f" format="1">
  <advance width="269"/>
  <unicode hex="0066"/>
  <outline>
    <contour>
      <point x="139" y="460" type="line"/>
      <point x="359" y="460" type="line"/>
      <point x="332" y="385" type="line"/>
      <point x="112" y="385" type="line"/>
    </contour>
    <contour>
      <point x="430" y="685" type="line"/>
      <point x="421" y="697"/>
      <point x="412" y="711"/>
      <point x="394" y="711" type="curve" smooth="yes"/>
      <point x="351" y="710"/>
      <point x="328" y="653"/>
      <point x="315" y="620" type="curve" smooth="yes"/>
      <point x="102" y="0" type="line"/>
      <point x="23" y="0" type="line"/>
      <point x="238" y="631" type="line" smooth="yes"/>
      <point x="266" y="707"/>
      <point x="324" y="793"/>
      <point x="416" y="789" type="curve" smooth="yes"/>
      <point x="450" y="788"/>
      <point x="470" y="771"/>
      <point x="491" y="747" type="curve"/>
    </contour>
  </outline>
</glyph>
<glyph name="g" format="1">
  <advance width="536"/>
  <unicode hex="0067"/>
  <outline>
    <contour>
      <point x="-25" y="-30" type="curve"/>
      <point x="52" y="-31" type="line"/>
      <point x="42" y="-100"/>
      <point x="66.0109" y="-152.362"/>
      <point x="143" y="-154" type="curve" smooth="yes"/>
      <point x="237" y="-156"/>
      <point x="313.973" y="-71.3685"/>
      <point x="342" y="10" type="curve" smooth="yes"/>
      <point x="497" y="460" type="line"/>
      <point x="576" y="460" type="line"/>
      <point x="422" y="10" type="line" smooth="yes"/>
      <point x="379.602" y="-113.89"/>
      <point x="291" y="-228"/>
      <point x="142" y="-229" type="curve" smooth="yes"/>
      <point x="19.999" y="-229.818"/>
      <point x="-48" y="-143"/>
    </contour>
    <contour>
      <point x="55" y="230" type="curve" smooth="yes"/>
      <point x="94" y="352"/>
      <point x="213" y="472"/>
      <point x="348" y="470" type="curve" smooth="yes"/>
      <point x="480" y="468"/>
      <point x="487" y="328"/>
      <point x="455" y="230" type="curve" smooth="yes"/>
      <point x="419" y="117"/>
      <point x="326" y="-8"/>
      <point x="196" y="-9" type="curve" smooth="yes"/>
      <point x="62" y="-10"/>
      <point x="19" y="119"/>
    </contour>
    <contour>
      <point x="134" y="230" type="curve" smooth="yes"/>
      <point x="107" y="157"/>
      <point x="127" y="66"/>
      <point x="219" y="66" type="curve" smooth="yes"/>
      <point x="309" y="66"/>
      <point x="390" y="151"/>
      <point x="419" y="230" type="curve" smooth="yes"/>
      <point x="443" y="298"/>
      <point x="430" y="390"/>
      <point x="343" y="394" type="curve" smooth="yes"/>
      <point x="249" y="398"/>
      <point x="164" y="312"/>
    </contour>
  </outline>
</glyph>
<glyph name="h" format="1">
  <advance width="493"/>
  <unicode hex="0068"/>
  <outline>
    <contour>
      <point x="361" y="780" type="line"/>
      <point x="92" y="0" type="line"/>
      <point x="14" y="0" type="line"/>
      <point x="282" y="780" type="line"/>
    </contour>
    <contour>
      <point x="390" y="280" type="line" smooth="yes"/>
      <point x="405" y="329"/>
      <point x="409" y="391"/>
      <point x="342" y="394" type="curve" smooth="yes"/>
      <point x="271" y="397"/>
      <point x="220" y="337"/>
      <point x="188" y="282" type="curve"/>
      <point x="161" y="282" type="line"/>
      <point x="199" y="370"/>
      <point x="268" y="469"/>
      <point x="375" y="469" type="curve" smooth="yes"/>
      <point x="480" y="469"/>
      <point x="493" y="372"/>
      <point x="469" y="290" type="curve" smooth="yes"/>
      <point x="369" y="0" type="line"/>
      <point x="294" y="0" type="line"/>
    </contour>
  </outline>
</glyph>
<glyph name="i" format="1">
  <advance width="244"/>
  <unicode hex="0069"/>
  <outline>
    <contour>
      <point x="236" y="650" type="curve" smooth="yes"/>
      <point x="236" y="680"/>
      <point x="260" y="704"/>
      <point x="290" y="704" type="curve" smooth="yes"/>
      <point x="320" y="704"/>
      <point x="344" y="680"/>
      <point x="344" y="650" type="curve" smooth="yes"/>
      <point x="344" y="620"/>
      <point x="320" y="596"/>
      <point x="290" y="596" type="curve" smooth="yes"/>
      <point x="260" y="596"/>
      <point x="236" y="620"/>
    </contour>
    <contour>
      <point x="184" y="459" type="line"/>
      <point x="266" y="459" type="line"/>
      <point x="109" y="0" type="line"/>
      <point x="31" y="0" type="line"/>
    </contour>
  </outline>
</glyph>
<glyph name="k" format="1">
  <advance width="413"/>
  <unicode hex="006B"/>
  <outline>
    <contour>
      <point x="275" y="779" type="line"/>
      <point x="357" y="780" type="line"/>
      <point x="87" y="0" type="line"/>
      <point x="12" y="0" type="line"/>
    </contour>
    <contour>
      <point x="399" y="459" type="line"/>
      <point x="504" y="459" type="line"/>
      <point x="239" y="258" type="line"/>
      <point x="357" y="0" type="line"/>
      <point x="268" y="0" type="line"/>
      <point x="151" y="275" type="line"/>
    </contour>
  </outline>
</glyph>
<glyph name="m" format="1">
  <advance width="780"/>
  <unicode hex="006D"/>
  <outline>
    <contour>
      <point x="399" y="280" type="line" smooth="yes"/>
      <point x="412" y="356"/>
      <point x="397" y="395"/>
      <point x="332" y="395" type="curve" smooth="yes"/>
      <point x="262" y="395"/>
      <point x="216" y="346"/>
      <point x="204" y="280" type="curve"/>
      <point x="178" y="280" type="line"/>
      <point x="197" y="389"/>
      <point x="270" y="470"/>
      <point x="365" y="470" type="curve" smooth="yes"/>
      <point x="460" y="470"/>
      <point x="502" y="409"/>
      <point x="481" y="290" type="curve" smooth="yes"/>
      <point x="430" y="0" type="line"/>
      <point x="350" y="0" type="line"/>
    </contour>
    <contour>
      <point x="236" y="460" type="line"/>
      <point x="155" y="0" type="line"/>
      <point x="75" y="0" type="line"/>
      <point x="156" y="460" type="line"/>
    </contour>
    <contour>
      <point x="756" y="290" type="curve" smooth="yes"/>
      <point x="705" y="0" type="line"/>
      <point x="625" y="0" type="line"/>
      <point x="674" y="280" type="line" smooth="yes"/>
      <point x="687" y="356"/>
      <point x="672" y="395"/>
      <point x="607" y="395" type="curve" smooth="yes"/>
      <point x="537" y="395"/>
      <point x="491" y="346"/>
      <point x="479" y="280" type="curve"/>
      <point x="438" y="280" type="line"/>
      <point x="457" y="389"/>
      <point x="545" y="470"/>
      <point x="640" y="470" type="curve" smooth="yes"/>
      <point x="735" y="470"/>
      <point x="777" y="409"/>
    </contour>
  </outline>
</glyph>
<glyph name="s" format="1">
  <advance width="379"/>
  <unicode hex="0073"/>
  <outline>
    <contour>
      <point x="95" y="161" type="line"/>
      <point x="110" y="118"/>
      <point x="131" y="68"/>
      <point x="184" y="66" type="curve" smooth="yes"/>
      <point x="219" y="65"/>
      <point x="265" y="87"/>
      <point x="276" y="122" type="curve" smooth="yes"/>
      <point x="291" y="170"/>
      <point x="244" y="193"/>
      <point x="209" y="211" type="curve" smooth="yes"/>
      <point x="152" y="240"/>
      <point x="101.967" y="279.295"/>
      <point x="121" y="351" type="curve" smooth="yes"/>
      <point x="141.053" y="426.544"/>
      <point x="213" y="469"/>
      <point x="297" y="469" type="curve" smooth="yes"/>
      <point x="361" y="469"/>
      <point x="405" y="434"/>
      <point x="431" y="378" type="curve"/>
      <point x="361" y="340" type="line"/>
      <point x="343" y="369"/>
      <point x="321" y="395"/>
      <point x="284" y="396" type="curve" smooth="yes"/>
      <point x="253" y="397"/>
      <point x="207" y="381"/>
      <point x="197" y="348" type="curve" smooth="yes"/>
      <point x="183" y="302"/>
      <point x="247" y="285"/>
      <point x="277" y="270" type="curve" smooth="yes"/>
      <point x="333" y="242"/>
      <point x="375" y="190"/>
      <point x="358" y="124" type="curve" smooth="yes"/>
      <point x="337" y="41"/>
      <point x="264" y="-11"/>
      <point x="170" y="-10" type="curve" smooth="yes"/>
      <point x="87.999" y="-9.12793"/>
      <point x="46" y="53"/>
      <point x="26" y="125" type="curve"/>
    </contour>
  </outline>
</glyph>
<glyph name="u" format="1">
  <advance width="493"/>
  <unicode hex="0075"/>
  <outline>
    <contour>
      <point x="291" y="0" type="line"/>
      <point x="450" y="460" type="line"/>
      <point x="529" y="460" type="line"/>
      <point x="370" y="0" type="line"/>
    </contour>
    <contour>
      <point x="153" y="180" type="line" smooth="yes"/>
      <point x="138" y="131"/>
      <point x="134" y="69"/>
      <point x="200" y="66" type="curve" smooth="yes"/>
      <point x="271" y="63"/>
      <point x="322" y="123"/>
      <point x="354" y="178" type="curve"/>
      <point x="381" y="178" type="line"/>
      <point x="343" y="90"/>
      <point x="274" y="-9"/>
      <point x="167" y="-9" type="curve" smooth="yes"/>
      <point x="62" y="-9"/>
      <point x="49" y="88"/>
      <point x="73" y="170" type="curve" smooth="yes"/>
      <point x="174" y="460" type="line"/>
      <point x="248" y="459" type="line"/>
    </contour>
  </outline>
</glyph>
<glyph name="x" format="1">
  <advance width="395"/>
  <unicode hex="0078"/>
  <outline>
    <contour>
      <point x="405" y="459" type="line"/>
      <point x="499" y="459" type="line"/>
      <point x="280" y="229" type="line"/>
      <point x="359" y="0" type="line"/>
      <point x="278" y="0" type="line"/>
      <point x="220" y="177" type="line"/>
      <point x="54" y="0" type="line"/>
      <point x="-40" y="0" type="line"/>
      <point x="197" y="247" type="line"/>
      <point x="118" y="460" type="line"/>
      <point x="199" y="460" type="line"/>
      <point x="256" y="299" type="line"/>
    </contour>
  </outline>
</glyph>
<glyph name="y" format="1">
  <advance width="413"/>
  <unicode hex="0079"/>
  <outline>
    <contour>
      <point x="522" y="459" type="line"/>
      <point x="5" y="-219" type="line"/>
      <point x="-87" y="-219" type="line"/>
      <point x="135" y="70" type="line"/>
      <point x="104" y="460" type="line"/>
      <point x="184" y="460" type="line"/>
      <point x="207" y="100" type="line"/>
      <point x="175" y="105" type="line"/>
      <point x="430" y="459" type="line"/>
    </contour>
  </outline>
</glyph>
<glyph name="z" format="1">
  <advance width="432"/>
  <unicode hex="007A"/>
  <outline>
    <contour>
      <point x="355" y="385" type="line"/>
      <point x="117" y="385" type="line"/>
      <point x="144" y="460" type="line"/>
      <point x="527" y="460" type="line"/>
      <point x="126" y="75" type="line"/>
      <point x="374" y="75" type="line"/>
      <point x="347" y="0" type="line"/>
      <point x="-45" y="0" type="line"/>
    </contour>
  </outline>
</glyph>
<glyph name="braceright" format="1">
  <advance width="292"/>
  <unicode hex="007D"/>
  <outline>
    <contour>
      <point x="73" y="-80" type="curve" smooth="yes"/>
      <point x="125" y="90" type="line" smooth="yes"/>
      <point x="155" y="187"/>
      <point x="191" y="275"/>
      <point x="299" y="299" type="curve"/>
      <point x="293" y="280" type="line"/>
      <point x="192" y="311"/>
      <point x="225" y="411"/>
      <point x="249" y="490" type="curve" smooth="yes"/>
      <point x="303" y="661" type="line" smooth="yes"/>
      <point x="312" y="689"/>
      <point x="303" y="708"/>
      <point x="274" y="709" type="curve" smooth="yes"/>
      <point x="239" y="710" type="line"/>
      <point x="259" y="780" type="line"/>
      <point x="314" y="780" type="line" smooth="yes"/>
      <point x="386" y="780"/>
      <point x="389" y="694"/>
      <point x="372" y="640" type="curve" smooth="yes"/>
      <point x="307" y="430" type="line" smooth="yes"/>
      <point x="294" y="386"/>
      <point x="288" y="355"/>
      <point x="320" y="320" type="curve"/>
      <point x="302" y="260" type="line"/>
      <point x="259" y="233"/>
      <point x="239" y="198"/>
      <point x="223" y="150" type="curve" smooth="yes"/>
      <point x="159" y="-61" type="line" smooth="yes"/>
      <point x="137" y="-124"/>
      <point x="92" y="-199"/>
      <point x="20" y="-199" type="curve" smooth="yes"/>
      <point x="-41" y="-199" type="line"/>
      <point x="-20" y="-130" type="line"/>
      <point x="11" y="-130" type="line" smooth="yes"/>
      <point x="44" y="-130"/>
      <point x="63" y="-112"/>
    </contour>
  </outline>
</glyph>
<glyph name="cent" format="1">
  <advance width="580"/>
  <unicode hex="00A2"/>
  <outline>
    <contour>
      <point x="287" y="38" type="line"/>
      <point x="351" y="38" type="line"/>
      <point x="324" y="-112" type="line"/>
      <point x="260" y="-112" type="line"/>
    </contour>
    <contour>
      <point x="203" y="230" type="curve" smooth="yes"/>
      <point x="186" y="134"/>
      <point x="240" y="65"/>
      <point x="330" y="65" type="curve" smooth="yes"/>
      <point x="404" y="65"/>
      <point x="476" y="104"/>
      <point x="505" y="149" type="curve"/>
      <point x="488" y="49" type="line"/>
      <point x="449" y="11"/>
      <point x="380" y="-10"/>
      <point x="317" y="-10" type="curve" smooth="yes"/>
      <point x="182" y="-10"/>
      <point x="97" y="91"/>
      <point x="122" y="230" type="curve" smooth="yes"/>
      <point x="147" y="369"/>
      <point x="267" y="470"/>
      <point x="402" y="470" type="curve" smooth="yes"/>
      <point x="465" y="470"/>
      <point x="526" y="448"/>
      <point x="551" y="411" type="curve"/>
      <point x="534" y="311" type="line"/>
      <point x="521" y="356"/>
      <point x="463" y="395"/>
      <point x="389" y="395" type="curve" smooth="yes"/>
      <point x="299" y="395"/>
      <point x="220" y="326"/>
    </contour>
    <contour>
      <point x="382" y="578" type="line"/>
      <point x="446" y="578" type="line"/>
      <point x="419" y="428" type="line"/>
      <point x="355" y="428" type="line"/>
    </contour>
  </outline>
</glyph>
<glyph name="yen" format="1">
  <advance width="545"/>
  <unicode hex="00A5"/>
  <outline>
    <contour>
      <point x="88" y="291" type="line"/>
      <point x="113" y="365" type="line"/>
      <point x="572" y="365" type="line"/>
      <point x="547" y="290" type="line"/>
    </contour>
    <contour>
      <point x="37" y="141" type="line"/>
      <point x="61" y="215" type="line"/>
      <point x="521" y="215" type="line"/>
      <point x="496" y="140" type="line"/>
    </contour>
    <contour>
      <point x="625" y="699" type="line"/>
      <point x="722" y="699" type="line"/>
      <point x="365" y="301" type="line"/>
      <point x="261" y="0" type="line"/>
      <point x="176" y="0" type="line"/>
      <point x="284" y="309" type="line"/>
      <point x="201" y="700" type="line"/>
      <point x="287" y="700" type="line"/>
      <point x="344" y="379" type="line"/>
    </contour>
  </outline>
</glyph>
<glyph name="brokenbar" format="1">
  <advance width="257"/>
  <unicode hex="00A6"/>
  <outline>
    <contour>
      <point x="276" y="694" type="line"/>
      <point x="348" y="694" type="line"/>
      <point x="266" y="456" type="line"/>
      <point x="194" y="456" type="line"/>
    </contour>
    <contour>
      <point x="194" y="244" type="line"/>
      <point x="112" y="6" type="line"/>
      <point x="40" y="6" type="line"/>
      <point x="122" y="244" type="line"/>
    </contour>
  </outline>
</glyph>
<glyph name="dieresis" format="1">
  <advance width="470"/>
  <unicode hex="00A8"/>
  <outline>
    <contour>
      <point x="396" y="660" type="curve" smooth="yes"/>
      <point x="401" y="690"/>
      <point x="431" y="715"/>
      <point x="461" y="715" type="curve" smooth="yes"/>
      <point x="491" y="715"/>
      <point x="511" y="690"/>
      <point x="506" y="660" type="curve" smooth="yes"/>
      <point x="501" y="630"/>
      <point x="472" y="605"/>
      <point x="442" y="605" type="curve" smooth="yes"/>
      <point x="412" y="605"/>
      <point x="391" y="630"/>
    </contour>
    <contour>
      <point x="196" y="660" type="curve" smooth="yes"/>
      <point x="201" y="690"/>
      <point x="231" y="715"/>
      <point x="261" y="715" type="curve" smooth="yes"/>
      <point x="291" y="715"/>
      <point x="311" y="690"/>
      <point x="306" y="660" type="curve" smooth="yes"/>
      <point x="301" y="630"/>
      <point x="272" y="605"/>
      <point x="242" y="605" type="curve" smooth="yes"/>
      <point x="212" y="605"/>
      <point x="191" y="630"/>
    </contour>
  </outline>
</glyph>
<glyph name="copyright" format="1">
  <advance width="752"/>
  <unicode hex="00A9"/>
  <outline>
    <contour>
      <point x="299" y="350" type="curve" smooth="yes"/>
      <point x="274" y="275"/>
      <point x="300" y="188"/>
      <point x="390" y="186" type="curve" smooth="yes"/>
      <point x="446" y="184"/>
      <point x="496" y="214"/>
      <point x="540" y="245" type="curve"/>
      <point x="521" y="179" type="line"/>
      <point x="478" y="153"/>
      <point x="435" y="134"/>
      <point x="384" y="135" type="curve" smooth="yes"/>
      <point x="267" y="136"/>
      <point x="216" y="247"/>
      <point x="246" y="350" type="curve" smooth="yes"/>
      <point x="278" y="462"/>
      <point x="387" y="563"/>
      <point x="507" y="565" type="curve" smooth="yes"/>
      <point x="554" y="566"/>
      <point x="591" y="549"/>
      <point x="626" y="519" type="curve"/>
      <point x="606" y="453" type="line"/>
      <point x="580" y="491"/>
      <point x="549" y="514"/>
      <point x="501" y="514" type="curve" smooth="yes"/>
      <point x="409" y="514"/>
      <point x="327" y="434"/>
    </contour>
    <contour>
      <point x="164" y="350" type="curve" smooth="yes"/>
      <point x="117" y="205"/>
      <point x="179" y="42"/>
      <point x="349" y="41" type="curve" smooth="yes"/>
      <point x="525" y="40"/>
      <point x="684" y="189"/>
      <point x="736" y="350" type="curve" smooth="yes"/>
      <point x="783" y="495"/>
      <point x="721" y="658"/>
      <point x="551" y="659" type="curve" smooth="yes"/>
      <point x="375" y="660"/>
      <point x="216" y="511"/>
    </contour>
    <contour>
      <point x="109" y="350" type="curve" smooth="yes"/>
      <point x="165" y="541"/>
      <point x="350" y="711"/>
      <point x="555" y="710" type="curve" smooth="yes"/>
      <point x="753" y="709"/>
      <point x="841" y="526"/>
      <point x="790" y="350" type="curve" smooth="yes"/>
      <point x="734" y="159"/>
      <point x="550" y="-11"/>
      <point x="345" y="-10" type="curve" smooth="yes"/>
      <point x="147" y="-9"/>
      <point x="58" y="174"/>
    </contour>
  </outline>
</glyph>
<glyph name="ordfeminine" format="1">
  <advance width="238"/>
  <unicode hex="00AA"/>
  <outline>
    <contour>
      <point x="155" y="532" type="curve" smooth="yes"/>
      <point x="151" y="510"/>
      <point x="160" y="491"/>
      <point x="197" y="491" type="curve" smooth="yes"/>
      <point x="232" y="491"/>
      <point x="267" y="507"/>
      <point x="275" y="550" type="curve"/>
      <point x="279" y="525" type="line"/>
      <point x="271" y="481"/>
      <point x="228" y="455"/>
      <point x="180" y="455" type="curve" smooth="yes"/>
      <point x="138" y="455"/>
      <point x="105" y="483"/>
      <point x="114" y="532" type="curve" smooth="yes"/>
      <point x="122" y="580"/>
      <point x="176" y="613"/>
      <point x="226" y="613" type="curve" smooth="yes"/>
      <point x="270" y="613"/>
      <point x="291" y="591"/>
      <point x="297" y="583" type="curve"/>
      <point x="293" y="559" type="line"/>
      <point x="274" y="575"/>
      <point x="252" y="583"/>
      <point x="223" y="583" type="curve" smooth="yes"/>
      <point x="187" y="583"/>
      <point x="160" y="560"/>
    </contour>
    <contour>
      <point x="175" y="646" type="curve"/>
      <point x="161" y="677" type="line"/>
      <point x="180" y="689"/>
      <point x="212" y="705"/>
      <point x="254" y="705" type="curve" smooth="yes"/>
      <point x="306" y="705"/>
      <point x="338" y="679"/>
      <point x="330" y="635" type="curve" smooth="yes"/>
      <point x="299" y="460" type="line"/>
      <point x="259" y="460" type="line"/>
      <point x="290" y="635" type="line" smooth="yes"/>
      <point x="294" y="658"/>
      <point x="273" y="670"/>
      <point x="248" y="670" type="curve" smooth="yes"/>
      <point x="215" y="670"/>
      <point x="187" y="654"/>
    </contour>
  </outline>
</glyph>
<glyph name="logicalnot" format="1">
  <advance width="583"/>
  <unicode hex="00AC"/>
  <outline>
    <contour>
      <point x="107" y="300" type="line"/>
      <point x="134" y="375" type="line"/>
      <point x="599" y="375" type="line"/>
      <point x="528" y="176" type="line"/>
      <point x="455" y="176" type="line"/>
      <point x="499" y="300" type="line"/>
    </contour>
  </outline>
</glyph>
<glyph name="registered" format="1">
  <advance width="800"/>
  <unicode hex="00AE"/>
  <outline>
    <contour>
      <point x="412" y="357" type="line"/>
      <point x="469" y="357" type="line"/>
      <point x="582" y="150" type="line"/>
      <point x="519" y="150" type="line"/>
    </contour>
    <contour>
      <point x="375" y="570" type="line"/>
      <point x="426" y="570" type="line"/>
      <point x="351" y="150" type="line"/>
      <point x="300" y="150" type="line"/>
    </contour>
    <contour>
      <point x="395" y="525" type="line"/>
      <point x="403" y="570" type="line"/>
      <point x="489" y="570" type="line" smooth="yes"/>
      <point x="570" y="570"/>
      <point x="623" y="521"/>
      <point x="609" y="444" type="curve" smooth="yes"/>
      <point x="595" y="367"/>
      <point x="525" y="318"/>
      <point x="444" y="318" type="curve" smooth="yes"/>
      <point x="358" y="318" type="line"/>
      <point x="366" y="363" type="line"/>
      <point x="452" y="363" type="line" smooth="yes"/>
      <point x="506" y="363"/>
      <point x="549" y="392"/>
      <point x="558" y="444" type="curve" smooth="yes"/>
      <point x="567" y="496"/>
      <point x="535" y="525"/>
      <point x="481" y="525" type="curve" smooth="yes"/>
    </contour>
    <contour>
      <point x="157" y="350" type="curve" smooth="yes"/>
      <point x="126" y="172"/>
      <point x="234" y="40"/>
      <point x="407" y="40" type="curve" smooth="yes"/>
      <point x="580" y="40"/>
      <point x="736" y="172"/>
      <point x="767" y="350" type="curve" smooth="yes"/>
      <point x="798" y="528"/>
      <point x="689" y="660"/>
      <point x="516" y="660" type="curve" smooth="yes"/>
      <point x="343" y="660"/>
      <point x="188" y="528"/>
    </contour>
    <contour>
      <point x="102" y="350" type="curve" smooth="yes"/>
      <point x="139" y="559"/>
      <point x="321" y="710"/>
      <point x="525" y="710" type="curve" smooth="yes"/>
      <point x="729" y="710"/>
      <point x="859" y="559"/>
      <point x="822" y="350" type="curve" smooth="yes"/>
      <point x="785" y="141"/>
      <point x="602" y="-10"/>
      <point x="398" y="-10" type="curve" smooth="yes"/>
      <point x="194" y="-10"/>
      <point x="65" y="141"/>
    </contour>
  </outline>
</glyph>
<glyph name="macron" format="1">
  <advance width="479"/>
  <unicode hex="00AF"/>
  <outline>
    <contour>
      <point x="226" y="600" type="line"/>
      <point x="249" y="675" type="line"/>
      <point x="581" y="675" type="line"/>
      <point x="558" y="600" type="line"/>
    </contour>
  </outline>
</glyph>
<glyph name="degree" format="1">
  <advance width="278"/>
  <unicode hex="00B0"/>
  <outline>
    <contour>
      <point x="126" y="600" type="curve" smooth="yes"/>
      <point x="138" y="670"/>
      <point x="198" y="720"/>
      <point x="266" y="720" type="curve" smooth="yes"/>
      <point x="334" y="720"/>
      <point x="376" y="670"/>
      <point x="364" y="600" type="curve" smooth="yes"/>
      <point x="352" y="530"/>
      <point x="292" y="480"/>
      <point x="224" y="480" type="curve" smooth="yes"/>
      <point x="156" y="480"/>
      <point x="114" y="530"/>
    </contour>
    <contour>
      <point x="166" y="600" type="curve" smooth="yes"/>
      <point x="158" y="552"/>
      <point x="185" y="518"/>
      <point x="230" y="518" type="curve" smooth="yes"/>
      <point x="275" y="518"/>
      <point x="316" y="552"/>
      <point x="324" y="600" type="curve" smooth="yes"/>
      <point x="332" y="648"/>
      <point x="304" y="682"/>
      <point x="259" y="682" type="curve" smooth="yes"/>
      <point x="214" y="682"/>
      <point x="174" y="648"/>
    </contour>
  </outline>
</glyph>
<glyph name="plusminus" format="1">
  <advance width="615"/>
  <unicode hex="00B1"/>
  <outline>
    <contour>
      <point x="65" y="0" type="line"/>
      <point x="79" y="80" type="line"/>
      <point x="564" y="80" type="line"/>
      <point x="550" y="0" type="line"/>
    </contour>
    <contour>
      <point x="126" y="345" type="line"/>
      <point x="140" y="425" type="line"/>
      <point x="625" y="425" type="line"/>
      <point x="611" y="345" type="line"/>
    </contour>
    <contour>
      <point x="374" y="620" type="line"/>
      <point x="459" y="620" type="line"/>
      <point x="376" y="150" type="line"/>
      <point x="291" y="150" type="line"/>
    </contour>
  </outline>
</glyph>
<glyph name="uni00B2" format="1">
  <advance width="346"/>
  <unicode hex="00B2"/>
  <outline>
    <contour>
      <point x="75" y="282" type="line"/>
      <point x="310" y="494" type="line" smooth="yes"/>
      <point x="343" y="523"/>
      <point x="364" y="552"/>
      <point x="370" y="586" type="curve" smooth="yes"/>
      <point x="377" y="623"/>
      <point x="359" y="661"/>
      <point x="308" y="661" type="curve" smooth="yes"/>
      <point x="254" y="661"/>
      <point x="209" y="622"/>
      <point x="198" y="558" type="curve"/>
      <point x="147" y="558" type="line"/>
      <point x="163" y="647"/>
      <point x="229" y="709"/>
      <point x="316" y="709" type="curve" smooth="yes"/>
      <point x="408" y="709"/>
      <point x="432" y="638"/>
      <point x="422" y="582" type="curve" smooth="yes"/>
      <point x="414" y="539"/>
      <point x="384" y="500"/>
      <point x="345" y="466" type="curve" smooth="yes"/>
      <point x="188" y="330" type="line"/>
      <point x="379" y="330" type="line"/>
      <point x="371" y="282" type="line"/>
    </contour>
  </outline>
</glyph>
<glyph name="paragraph" format="1">
  <advance width="543"/>
  <unicode hex="00B6"/>
  <outline>
    <contour>
      <point x="433" y="636" type="line"/>
      <point x="454" y="699" type="line"/>
      <point x="644" y="699" type="line"/>
      <point x="623" y="636" type="line"/>
    </contour>
    <contour>
      <point x="605" y="699" type="line"/>
      <point x="673" y="699" type="line"/>
      <point x="360" y="-219" type="line"/>
      <point x="292" y="-219" type="line"/>
    </contour>
    <contour>
      <point x="454" y="699" type="line"/>
      <point x="522" y="699" type="line"/>
      <point x="209" y="-219" type="line"/>
      <point x="141" y="-219" type="line"/>
    </contour>
    <contour>
      <point x="312" y="271" type="line"/>
      <point x="192" y="284"/>
      <point x="127.303" y="366.223"/>
      <point x="166" y="486" type="curve" smooth="yes"/>
      <point x="208" y="616"/>
      <point x="323" y="699"/>
      <point x="454" y="699" type="curve"/>
    </contour>
  </outline>
</glyph>
<glyph name="periodcentered" format="1">
  <advance width="282"/>
  <unicode hex="00B7"/>
  <outline>
    <contour>
      <point x="116" y="242" type="curve" smooth="yes"/>
      <point x="122" y="266"/>
      <point x="160" y="297"/>
      <point x="185" y="294" type="curve" smooth="yes"/>
      <point x="212" y="291"/>
      <point x="228" y="264"/>
      <point x="222" y="238" type="curve" smooth="yes"/>
      <point x="216" y="214"/>
      <point x="177" y="183"/>
      <point x="152" y="186" type="curve" smooth="yes"/>
      <point x="125" y="189"/>
      <point x="110" y="216"/>
    </contour>
  </outline>
</glyph>
<glyph name="uni00B9" format="1">
  <advance width="442"/>
  <unicode hex="00B9"/>
  <outline>
    <contour>
      <point x="298" y="613" type="line"/>
      <point x="314" y="664" type="line"/>
      <point x="467" y="701" type="line"/>
      <point x="319" y="275" type="line"/>
      <point x="269" y="275" type="line"/>
      <point x="391" y="636" type="line"/>
    </contour>
  </outline>
</glyph>
<glyph name="ordmasculine" format="1">
  <advance width="278"/>
  <unicode hex="00BA"/>
  <outline>
    <contour>
      <point x="122" y="580" type="curve" smooth="yes"/>
      <point x="134" y="650"/>
      <point x="194" y="700"/>
      <point x="262" y="700" type="curve" smooth="yes"/>
      <point x="330" y="700"/>
      <point x="372" y="650"/>
      <point x="360" y="580" type="curve" smooth="yes"/>
      <point x="348" y="510"/>
      <point x="288" y="460"/>
      <point x="220" y="460" type="curve" smooth="yes"/>
      <point x="152" y="460"/>
      <point x="110" y="510"/>
    </contour>
    <contour>
      <point x="162" y="580" type="curve" smooth="yes"/>
      <point x="154" y="532"/>
      <point x="182" y="498"/>
      <point x="227" y="498" type="curve" smooth="yes"/>
      <point x="272" y="498"/>
      <point x="312" y="532"/>
      <point x="320" y="580" type="curve" smooth="yes"/>
      <point x="328" y="628"/>
      <point x="301" y="662"/>
      <point x="256" y="662" type="curve" smooth="yes"/>
      <point x="211" y="662"/>
      <point x="170" y="628"/>
    </contour>
  </outline>
</glyph>
<glyph name="guillemotright" format="1">
  <advance width="510"/>
  <unicode hex="00BB"/>
  <outline>
    <contour>
      <point x="448" y="275" type="line"/>
      <point x="515" y="255" type="line"/>
      <point x="284" y="20" type="line"/>
      <point x="241" y="65" type="line"/>
    </contour>
    <contour>
      <point x="515" y="255" type="line"/>
      <point x="440" y="225" type="line"/>
      <point x="308" y="445" type="line"/>
      <point x="366" y="490" type="line"/>
    </contour>
    <contour>
      <point x="288" y="275" type="line"/>
      <point x="355" y="255" type="line"/>
      <point x="124" y="20" type="line"/>
      <point x="81" y="65" type="line"/>
    </contour>
    <contour>
      <point x="355" y="255" type="line"/>
      <point x="280" y="225" type="line"/>
      <point x="148" y="445" type="line"/>
      <point x="206" y="490" type="line"/>
    </contour>
  </outline>
</glyph>
<glyph name="onequarter" format="1">
  <advance width="709"/>
  <unicode hex="00BC"/>
  <outline>
    <contour>
      <point x="762" y="698" type="line"/>
      <point x="828" y="697" type="line"/>
      <point x="103" y="0" type="line"/>
      <point x="37" y="0" type="line"/>
    </contour>
    <contour>
      <point x="183" y="613" type="line"/>
      <point x="199" y="664" type="line"/>
      <point x="352" y="701" type="line"/>
      <point x="205" y="275" type="line"/>
      <point x="154" y="275" type="line"/>
      <point x="276" y="636" type="line"/>
    </contour>
    <contour>
      <point x="349" y="86" type="line"/>
      <point x="399" y="127" type="line"/>
      <point x="570" y="129" type="line"/>
      <point x="580" y="129" type="line"/>
      <point x="666" y="128" type="line"/>
      <point x="651" y="85" type="line"/>
    </contour>
    <contour>
      <point x="403" y="86" type="line"/>
      <point x="348" y="87" type="line"/>
      <point x="680" y="418" type="line"/>
      <point x="703" y="419" type="line"/>
      <point x="561" y="0" type="line"/>
      <point x="510" y="0" type="line"/>
      <point x="546" y="106" type="line"/>
      <point x="548" y="112" type="line"/>
      <point x="613" y="296" type="line"/>
    </contour>
  </outline>
</glyph>
<glyph name="onehalf" format="1">
  <advance width="819"/>
  <unicode hex="00BD"/>
  <outline>
    <contour>
      <point x="741" y="700" type="line"/>
      <point x="806" y="700" type="line"/>
      <point x="163" y="0" type="line"/>
      <point x="98" y="0" type="line"/>
    </contour>
    <contour>
      <point x="138" y="611" type="line"/>
      <point x="147" y="664" type="line"/>
      <point x="297" y="700" type="line"/>
      <point x="222" y="274" type="line"/>
      <point x="171" y="274" type="line"/>
      <point x="236" y="639" type="line"/>
    </contour>
    <contour>
      <point x="493" y="2" type="line"/>
      <point x="729" y="214" type="line" smooth="yes"/>
      <point x="762" y="243"/>
      <point x="783" y="272"/>
      <point x="789" y="306" type="curve" smooth="yes"/>
      <point x="796" y="343"/>
      <point x="777" y="381"/>
      <point x="726" y="381" type="curve" smooth="yes"/>
      <point x="672" y="381"/>
      <point x="628" y="342"/>
      <point x="617" y="278" type="curve"/>
      <point x="566" y="278" type="line"/>
      <point x="582" y="367"/>
      <point x="648" y="429"/>
      <point x="735" y="429" type="curve" smooth="yes"/>
      <point x="827" y="429"/>
      <point x="850" y="358"/>
      <point x="840" y="302" type="curve" smooth="yes"/>
      <point x="832" y="259"/>
      <point x="803" y="220"/>
      <point x="764" y="186" type="curve" smooth="yes"/>
      <point x="607" y="50" type="line"/>
      <point x="798" y="50" type="line"/>
      <point x="789" y="2" type="line"/>
    </contour>
  </outline>
</glyph>
<glyph name="threequarters" format="1">
  <advance width="771"/>
  <unicode hex="00BE"/>
  <outline>
    <contour>
      <point x="825" y="698" type="line"/>
      <point x="891" y="697" type="line"/>
      <point x="166" y="0" type="line"/>
      <point x="100" y="0" type="line"/>
    </contour>
    <contour>
      <point x="249" y="489" type="curve"/>
      <point x="259" y="520" type="line"/>
      <point x="303" y="530"/>
      <point x="349" y="546"/>
      <point x="366" y="593" type="curve" smooth="yes"/>
      <point x="377" y="623"/>
      <point x="368" y="656"/>
      <point x="333" y="659" type="curve" smooth="yes"/>
      <point x="293" y="663"/>
      <point x="263" y="626"/>
      <point x="242" y="598" type="curve"/>
      <point x="193" y="599" type="line"/>
      <point x="223" y="654"/>
      <point x="270" y="707"/>
      <point x="339" y="705" type="curve" smooth="yes"/>
      <point x="401" y="703"/>
      <point x="435" y="650"/>
      <point x="416" y="593" type="curve" smooth="yes"/>
      <point x="393" y="521"/>
      <point x="316" y="498"/>
    </contour>
    <contour>
      <point x="199" y="275" type="curve" smooth="yes"/>
      <point x="125" y="275"/>
      <point x="99" y="325"/>
      <point x="106" y="391" type="curve"/>
      <point x="155" y="391" type="line"/>
      <point x="155" y="354"/>
      <point x="161" y="325"/>
      <point x="205" y="323" type="curve" smooth="yes"/>
      <point x="248" y="321"/>
      <point x="296" y="358"/>
      <point x="309" y="398" type="curve" smooth="yes"/>
      <point x="326" y="451"/>
      <point x="287" y="466"/>
      <point x="244" y="475" type="curve"/>
      <point x="255" y="507" type="line"/>
      <point x="323" y="499"/>
      <point x="383" y="469"/>
      <point x="359" y="390" type="curve" smooth="yes"/>
      <point x="339" y="324"/>
      <point x="267" y="275"/>
    </contour>
    <contour>
      <point x="412" y="86" type="line"/>
      <point x="462" y="127" type="line"/>
      <point x="633" y="129" type="line"/>
      <point x="643" y="129" type="line"/>
      <point x="729" y="128" type="line"/>
      <point x="714" y="85" type="line"/>
    </contour>
    <contour>
      <point x="466" y="86" type="line"/>
      <point x="411" y="87" type="line"/>
      <point x="743" y="418" type="line"/>
      <point x="766" y="419" type="line"/>
      <point x="624" y="0" type="line"/>
      <point x="573" y="0" type="line"/>
      <point x="609" y="106" type="line"/>
      <point x="611" y="112" type="line"/>
      <point x="676" y="296" type="line"/>
    </contour>
  </outline>
</glyph>
<glyph name="Agrave" format="1">
  <advance width="620"/>
  <unicode hex="00C0"/>
  <outline>
    <contour>
      <point x="156" y="212" type="line"/>
      <point x="209" y="289" type="line"/>
      <point x="504" y="290" type="line"/>
      <point x="506" y="210" type="line"/>
    </contour>
    <contour>
      <point x="446" y="542" type="line"/>
      <point x="239" y="264" type="line"/>
      <point x="226" y="246" type="line"/>
      <point x="42" y="0" type="line"/>
      <point x="-55" y="0" type="line"/>
      <point x="507" y="738" type="line"/>
      <point x="561" y="0" type="line"/>
      <point x="473" y="0" type="line"/>
      <point x="459" y="240" type="line"/>
      <point x="459" y="260" type="line"/>
    </contour>
    <contour>
      <point x="455" y="947" type="line"/>
      <point x="538" y="985" type="line"/>
      <point x="629" y="823" type="line"/>
      <point x="579" y="795" type="line"/>
    </contour>
  </outline>
</glyph>
<glyph name="Acircumflex" format="1">
  <advance width="620"/>
  <unicode hex="00C2"/>
  <outline>
    <contour>
      <point x="156" y="212" type="line"/>
      <point x="209" y="289" type="line"/>
      <point x="504" y="290" type="line"/>
      <point x="506" y="210" type="line"/>
    </contour>
    <contour>
      <point x="446" y="542" type="line"/>
      <point x="239" y="264" type="line"/>
      <point x="226" y="246" type="line"/>
      <point x="42" y="0" type="line"/>
      <point x="-55" y="0" type="line"/>
      <point x="507" y="738" type="line"/>
      <point x="561" y="0" type="line"/>
      <point x="473" y="0" type="line"/>
      <point x="459" y="240" type="line"/>
      <point x="459" y="260" type="line"/>
    </contour>
    <contour>
      <point x="552" y="849" type="line"/>
      <point x="414" y="756" type="line"/>
      <point x="375" y="798" type="line"/>
      <point x="572" y="935" type="line"/>
      <point x="680" y="793" type="line"/>
      <point x="622" y="756" type="line"/>
    </contour>
  </outline>
</glyph>
<glyph name="Atilde" format="1">
  <advance width="620"/>
  <unicode hex="00C3"/>
  <outline>
    <contour>
      <point x="156" y="212" type="line"/>
      <point x="209" y="289" type="line"/>
      <point x="504" y="290" type="line"/>
      <point x="506" y="210" type="line"/>
    </contour>
    <contour>
      <point x="446" y="542" type="line"/>
      <point x="239" y="264" type="line"/>
      <point x="226" y="246" type="line"/>
      <point x="42" y="0" type="line"/>
      <point x="-55" y="0" type="line"/>
      <point x="507" y="738" type="line"/>
      <point x="561" y="0" type="line"/>
      <point x="473" y="0" type="line"/>
      <point x="459" y="240" type="line"/>
      <point x="459" y="260" type="line"/>
    </contour>
    <contour>
      <point x="376" y="815" type="line"/>
      <point x="405" y="851"/>
      <point x="447" y="896"/>
      <point x="499" y="893" type="curve" smooth="yes"/>
      <point x="538" y="891"/>
      <point x="560" y="845"/>
      <point x="599" y="848" type="curve" smooth="yes"/>
      <point x="627" y="850"/>
      <point x="652" y="877"/>
      <point x="671" y="894" type="curve"/>
      <point x="704" y="849" type="line"/>
      <point x="674" y="818"/>
      <point x="631" y="776"/>
      <point x="583" y="780" type="curve" smooth="yes"/>
      <point x="545" y="783"/>
      <point x="524" y="827"/>
      <point x="485" y="825" type="curve" smooth="yes"/>
      <point x="455" y="823"/>
      <point x="436" y="797"/>
      <point x="419" y="776" type="curve"/>
    </contour>
  </outline>
</glyph>
<glyph name="Adieresis" format="1">
  <advance width="620"/>
  <unicode hex="00C4"/>
  <outline>
    <contour>
      <point x="156" y="212" type="line"/>
      <point x="209" y="289" type="line"/>
      <point x="504" y="290" type="line"/>
      <point x="506" y="210" type="line"/>
    </contour>
    <contour>
      <point x="446" y="542" type="line"/>
      <point x="239" y="264" type="line"/>
      <point x="226" y="246" type="line"/>
      <point x="42" y="0" type="line"/>
      <point x="-55" y="0" type="line"/>
      <point x="507" y="738" type="line"/>
      <point x="561" y="0" type="line"/>
      <point x="473" y="0" type="line"/>
      <point x="459" y="240" type="line"/>
      <point x="459" y="260" type="line"/>
    </contour>
    <contour>
      <point x="588" y="852" type="curve" smooth="yes"/>
      <point x="594" y="876"/>
      <point x="632" y="907"/>
      <point x="657" y="904" type="curve" smooth="yes"/>
      <point x="684" y="901"/>
      <point x="699" y="874"/>
      <point x="693" y="848" type="curve" smooth="yes"/>
      <point x="687" y="824"/>
      <point x="649" y="793"/>
      <point x="624" y="796" type="curve" smooth="yes"/>
      <point x="597" y="799"/>
      <point x="582" y="826"/>
    </contour>
    <contour>
      <point x="399" y="852" type="curve" smooth="yes"/>
      <point x="405" y="876"/>
      <point x="444" y="907"/>
      <point x="469" y="904" type="curve" smooth="yes"/>
      <point x="496" y="901"/>
      <point x="511" y="874"/>
      <point x="505" y="848" type="curve" smooth="yes"/>
      <point x="499" y="824"/>
      <point x="461" y="793"/>
      <point x="436" y="796" type="curve" smooth="yes"/>
      <point x="409" y="799"/>
      <point x="393" y="826"/>
    </contour>
  </outline>
</glyph>
<glyph name="Aring" format="1">
  <advance width="620"/>
  <unicode hex="00C5"/>
  <outline>
    <contour>
      <point x="156" y="212" type="line"/>
      <point x="209" y="289" type="line"/>
      <point x="504" y="290" type="line"/>
      <point x="506" y="210" type="line"/>
    </contour>
    <contour>
      <point x="446" y="542" type="line"/>
      <point x="239" y="264" type="line"/>
      <point x="226" y="246" type="line"/>
      <point x="42" y="0" type="line"/>
      <point x="-55" y="0" type="line"/>
      <point x="507" y="738" type="line"/>
      <point x="561" y="0" type="line"/>
      <point x="473" y="0" type="line"/>
      <point x="459" y="240" type="line"/>
      <point x="459" y="260" type="line"/>
    </contour>
    <contour>
      <point x="431" y="800" type="curve" smooth="yes"/>
      <point x="446" y="850"/>
      <point x="505" y="898"/>
      <point x="559" y="897" type="curve" smooth="yes"/>
      <point x="613" y="896"/>
      <point x="641" y="845"/>
      <point x="626" y="796" type="curve" smooth="yes"/>
      <point x="611" y="746"/>
      <point x="552" y="698"/>
      <point x="498" y="699" type="curve" smooth="yes"/>
      <point x="444" y="700"/>
      <point x="416" y="751"/>
    </contour>
    <contour>
      <point x="480" y="797" type="curve" smooth="yes"/>
      <point x="474" y="777"/>
      <point x="484" y="749"/>
      <point x="507" y="746" type="curve" smooth="yes"/>
      <point x="531" y="742"/>
      <point x="571" y="777"/>
      <point x="577" y="799" type="curve" smooth="yes"/>
      <point x="583" y="819"/>
      <point x="573" y="847"/>
      <point x="550" y="850" type="curve" smooth="yes"/>
      <point x="526" y="854"/>
      <point x="486" y="819"/>
    </contour>
  </outline>
</glyph>
<glyph name="AE" format="1">
  <advance width="903"/>
  <unicode hex="00C6"/>
  <outline>
    <contour>
      <point x="222" y="211" type="line"/>
      <point x="249" y="290" type="line"/>
      <point x="534" y="290" type="line"/>
      <point x="507" y="210" type="line"/>
    </contour>
    <contour>
      <point x="598" y="700" type="line"/>
      <point x="647" y="655" type="line"/>
      <point x="43" y="0" type="line"/>
      <point x="-50" y="0" type="line"/>
    </contour>
    <contour>
      <point x="452" y="0" type="line"/>
      <point x="478" y="80" type="line"/>
      <point x="814" y="80" type="line"/>
      <point x="786" y="0" type="line"/>
    </contour>
    <contour>
      <point x="676" y="620" type="line"/>
      <point x="598" y="700" type="line"/>
      <point x="1025" y="700" type="line"/>
      <point x="998" y="620" type="line"/>
    </contour>
    <contour>
      <point x="568" y="341" type="line"/>
      <point x="594" y="420" type="line"/>
      <point x="911" y="420" type="line"/>
      <point x="884" y="340" type="line"/>
    </contour>
    <contour>
      <point x="643" y="699" type="line"/>
      <point x="729" y="700" type="line"/>
      <point x="487" y="0" type="line"/>
      <point x="407" y="0" type="line"/>
    </contour>
  </outline>
</glyph>
<glyph name="Ccedilla" format="1">
  <advance width="644"/>
  <unicode hex="00C7"/>
  <outline>
    <contour>
      <point x="189" y="350" type="curve" smooth="yes"/>
      <point x="146" y="229"/>
      <point x="182" y="79"/>
      <point x="332" y="76" type="curve" smooth="yes"/>
      <point x="426" y="74"/>
      <point x="512" y="123"/>
      <point x="585" y="177" type="curve"/>
      <point x="550" y="66" type="line"/>
      <point x="479" y="20"/>
      <point x="401" y="-11"/>
      <point x="315" y="-10" type="curve" smooth="yes"/>
      <point x="118" y="-8"/>
      <point x="46" y="182"/>
      <point x="101" y="350" type="curve" smooth="yes"/>
      <point x="162" y="537"/>
      <point x="345" y="708"/>
      <point x="549" y="710" type="curve" smooth="yes"/>
      <point x="625" y="711"/>
      <point x="687" y="686"/>
      <point x="741" y="632" type="curve"/>
      <point x="705" y="521" type="line"/>
      <point x="668" y="589"/>
      <point x="610" y="624"/>
      <point x="532" y="624" type="curve" smooth="yes"/>
      <point x="378" y="623"/>
      <point x="239" y="489"/>
    </contour>
    <contour>
      <point x="320" y="57" type="line"/>
      <point x="381" y="57" type="line"/>
      <point x="281" y="-53" type="line"/>
      <point x="283" y="-53"/>
      <point x="285" y="-53"/>
      <point x="287" y="-53" type="curve" smooth="yes"/>
      <point x="325" y="-60"/>
      <point x="345" y="-91"/>
      <point x="335" y="-129" type="curve" smooth="yes"/>
      <point x="321" y="-181"/>
      <point x="258" y="-220"/>
      <point x="206" y="-220" type="curve" smooth="yes"/>
      <point x="172" y="-220"/>
      <point x="152" y="-202"/>
      <point x="129" y="-180" type="curve"/>
      <point x="171" y="-144" type="line"/>
      <point x="184" y="-155"/>
      <point x="197" y="-167"/>
      <point x="216" y="-167" type="curve" smooth="yes"/>
      <point x="237" y="-167"/>
      <point x="274" y="-148"/>
      <point x="280" y="-126" type="curve" smooth="yes"/>
      <point x="286" y="-105"/>
      <point x="267" y="-92"/>
      <point x="249" y="-91" type="curve" smooth="yes"/>
      <point x="228" y="-89"/>
      <point x="204" y="-100"/>
      <point x="185" y="-107" type="curve"/>
    </contour>
  </outline>
</glyph>
<glyph name="Ecircumflex" format="1">
  <advance width="550"/>
  <unicode hex="00CA"/>
  <outline>
    <contour>
      <point x="127" y="0" type="line"/>
      <point x="141" y="80" type="line"/>
      <point x="494" y="80" type="line"/>
      <point x="480" y="0" type="line"/>
    </contour>
    <contour>
      <point x="236" y="620" type="line"/>
      <point x="250" y="700" type="line"/>
      <point x="603" y="700" type="line"/>
      <point x="589" y="620" type="line"/>
    </contour>
    <contour>
      <point x="187" y="340" type="line"/>
      <point x="201" y="420" type="line"/>
      <point x="534" y="420" type="line"/>
      <point x="520" y="340" type="line"/>
    </contour>
    <contour>
      <point x="203" y="700" type="line"/>
      <point x="288" y="700" type="line"/>
      <point x="165" y="0" type="line"/>
      <point x="80" y="0" type="line"/>
    </contour>
    <contour>
      <point x="443" y="865" type="line"/>
      <point x="316" y="770" type="line"/>
      <point x="273" y="810" type="line"/>
      <point x="458" y="950" type="line"/>
      <point x="593" y="810" type="line"/>
      <point x="536" y="770" type="line"/>
    </contour>
  </outline>
</glyph>
<glyph name="Edieresis" format="1">
  <advance width="550"/>
  <unicode hex="00CB"/>
  <outline>
    <contour>
      <point x="127" y="0" type="line"/>
      <point x="141" y="80" type="line"/>
      <point x="494" y="80" type="line"/>
      <point x="480" y="0" type="line"/>
    </contour>
    <contour>
      <point x="236" y="620" type="line"/>
      <point x="250" y="700" type="line"/>
      <point x="603" y="700" type="line"/>
      <point x="589" y="620" type="line"/>
    </contour>
    <contour>
      <point x="187" y="340" type="line"/>
      <point x="201" y="420" type="line"/>
      <point x="534" y="420" type="line"/>
      <point x="520" y="340" type="line"/>
    </contour>
    <contour>
      <point x="203" y="700" type="line"/>
      <point x="288" y="700" type="line"/>
      <point x="165" y="0" type="line"/>
      <point x="80" y="0" type="line"/>
    </contour>
    <contour>
      <point x="484" y="845" type="curve" smooth="yes"/>
      <point x="489" y="875"/>
      <point x="519" y="900"/>
      <point x="549" y="900" type="curve" smooth="yes"/>
      <point x="579" y="900"/>
      <point x="599" y="875"/>
      <point x="594" y="845" type="curve" smooth="yes"/>
      <point x="589" y="815"/>
      <point x="559" y="790"/>
      <point x="529" y="790" type="curve" smooth="yes"/>
      <point x="499" y="790"/>
      <point x="479" y="815"/>
    </contour>
    <contour>
      <point x="284" y="845" type="curve" smooth="yes"/>
      <point x="289" y="875"/>
      <point x="319" y="900"/>
      <point x="349" y="900" type="curve" smooth="yes"/>
      <point x="379" y="900"/>
      <point x="399" y="875"/>
      <point x="394" y="845" type="curve" smooth="yes"/>
      <point x="389" y="815"/>
      <point x="359" y="790"/>
      <point x="329" y="790" type="curve" smooth="yes"/>
      <point x="299" y="790"/>
      <point x="279" y="815"/>
    </contour>
  </outline>
</glyph>
<glyph name="Iacute" format="1">
  <advance width="230"/>
  <unicode hex="00CD"/>
  <outline>
    <contour>
      <point x="257" y="699" type="line"/>
      <point x="343" y="700" type="line"/>
      <point x="101" y="0" type="line"/>
      <point x="22" y="0" type="line"/>
    </contour>
    <contour>
      <point x="498" y="915" type="line"/>
      <point x="280" y="771" type="line"/>
      <point x="243" y="803" type="line"/>
      <point x="437" y="959" type="line"/>
    </contour>
  </outline>
</glyph>
<glyph name="Icircumflex" format="1">
  <advance width="230"/>
  <unicode hex="00CE"/>
  <outline>
    <contour>
      <point x="257" y="699" type="line"/>
      <point x="343" y="700" type="line"/>
      <point x="101" y="0" type="line"/>
      <point x="22" y="0" type="line"/>
    </contour>
    <contour>
      <point x="361" y="864" type="line"/>
      <point x="223" y="771" type="line"/>
      <point x="185" y="813" type="line"/>
      <point x="381" y="950" type="line"/>
      <point x="489" y="808" type="line"/>
      <point x="432" y="771" type="line"/>
    </contour>
  </outline>
</glyph>
<glyph name="Ntilde" format="1">
  <advance width="775"/>
  <unicode hex="00D1"/>
  <outline>
    <contour>
      <point x="192" y="605" type="line"/>
      <point x="210" y="735" type="line"/>
      <point x="707" y="95" type="line"/>
      <point x="689" y="-35" type="line"/>
    </contour>
    <contour>
      <point x="733" y="700" type="line"/>
      <point x="818" y="700" type="line"/>
      <point x="689" y="-35" type="line"/>
      <point x="623" y="75" type="line"/>
    </contour>
    <contour>
      <point x="210" y="735" type="line"/>
      <point x="275" y="625" type="line"/>
      <point x="165" y="0" type="line"/>
      <point x="80" y="0" type="line"/>
    </contour>
    <contour>
      <point x="365" y="792" type="line"/>
      <point x="384" y="841"/>
      <point x="438" y="874"/>
      <point x="483" y="874" type="curve" smooth="yes"/>
      <point x="548" y="874"/>
      <point x="545" y="827"/>
      <point x="599" y="827" type="curve" smooth="yes"/>
      <point x="618" y="827"/>
      <point x="637" y="843"/>
      <point x="663" y="875" type="curve"/>
      <point x="702" y="832" type="line"/>
      <point x="679" y="795"/>
      <point x="633" y="759"/>
      <point x="583" y="759" type="curve" smooth="yes"/>
      <point x="528" y="759"/>
      <point x="515" y="806"/>
      <point x="470" y="806" type="curve" smooth="yes"/>
      <point x="429" y="806"/>
      <point x="414" y="770"/>
      <point x="411" y="755" type="curve"/>
    </contour>
  </outline>
</glyph>
<glyph name="Ograve" format="1">
  <advance width="790"/>
  <unicode hex="00D2"/>
  <outline>
    <contour>
      <point x="192" y="350" type="curve" smooth="yes"/>
      <point x="164" y="192"/>
      <point x="255" y="75"/>
      <point x="408" y="75" type="curve" smooth="yes"/>
      <point x="561" y="75"/>
      <point x="694" y="192"/>
      <point x="722" y="350" type="curve" smooth="yes"/>
      <point x="750" y="508"/>
      <point x="658" y="625"/>
      <point x="505" y="625" type="curve" smooth="yes"/>
      <point x="352" y="625"/>
      <point x="220" y="508"/>
    </contour>
    <contour>
      <point x="102" y="350" type="curve" smooth="yes"/>
      <point x="138" y="554"/>
      <point x="316" y="710"/>
      <point x="520" y="710" type="curve" smooth="yes"/>
      <point x="724" y="710"/>
      <point x="848" y="554"/>
      <point x="812" y="350" type="curve" smooth="yes"/>
      <point x="776" y="146"/>
      <point x="597" y="-10"/>
      <point x="393" y="-10" type="curve" smooth="yes"/>
      <point x="189" y="-10"/>
      <point x="66" y="146"/>
    </contour>
    <contour>
      <point x="437" y="920" type="line"/>
      <point x="519" y="960" type="line"/>
      <point x="641" y="800" type="line"/>
      <point x="591" y="770" type="line"/>
    </contour>
  </outline>
</glyph>
<glyph name="multiply" format="1">
  <advance width="596"/>
  <unicode hex="00D7"/>
  <outline>
    <contour>
      <point x="125" y="22" type="line"/>
      <point x="79" y="78" type="line"/>
      <point x="292" y="255" type="line"/>
      <point x="141" y="432" type="line"/>
      <point x="207" y="488" type="line"/>
      <point x="352" y="306" type="line"/>
      <point x="561" y="488" type="line"/>
      <point x="607" y="432" type="line"/>
      <point x="394" y="255" type="line"/>
      <point x="545" y="78" type="line"/>
      <point x="479" y="22" type="line"/>
      <point x="334" y="204" type="line"/>
    </contour>
  </outline>
</glyph>
<glyph name="Ugrave" format="1">
  <advance width="589"/>
  <unicode hex="00D9"/>
  <outline>
    <contour>
      <point x="255" y="700" type="line"/>
      <point x="338" y="700" type="line"/>
      <point x="175" y="230" type="line" smooth="yes"/>
      <point x="152" y="155"/>
      <point x="165" y="73"/>
      <point x="259" y="71" type="curve" smooth="yes"/>
      <point x="355" y="69"/>
      <point x="428" y="147"/>
      <point x="461" y="230" type="curve" smooth="yes"/>
      <point x="623" y="700" type="line"/>
      <point x="706" y="700" type="line"/>
      <point x="545" y="230" type="line" smooth="yes"/>
      <point x="499" y="104"/>
      <point x="385" y="-9"/>
      <point x="243" y="-9" type="curve" smooth="yes"/>
      <point x="106" y="-9"/>
      <point x="59" y="111"/>
      <point x="94" y="230" type="curve" smooth="yes"/>
    </contour>
    <contour>
      <point x="430" y="922" type="line"/>
      <point x="513" y="960" type="line"/>
      <point x="604" y="798" type="line"/>
      <point x="555" y="770" type="line"/>
    </contour>
  </outline>
</glyph>
<glyph name="Uacute" format="1">
  <advance width="589"/>
  <unicode hex="00DA"/>
  <outline>
    <contour>
      <point x="255" y="700" type="line"/>
      <point x="338" y="700" type="line"/>
      <point x="175" y="230" type="line" smooth="yes"/>
      <point x="152" y="155"/>
      <point x="165" y="73"/>
      <point x="259" y="71" type="curve" smooth="yes"/>
      <point x="355" y="69"/>
      <point x="428" y="147"/>
      <point x="461" y="230" type="curve" smooth="yes"/>
      <point x="623" y="700" type="line"/>
      <point x="706" y="700" type="line"/>
      <point x="545" y="230" type="line" smooth="yes"/>
      <point x="499" y="104"/>
      <point x="385" y="-9"/>
      <point x="243" y="-9" type="curve" smooth="yes"/>
      <point x="106" y="-9"/>
      <point x="59" y="111"/>
      <point x="94" y="230" type="curve" smooth="yes"/>
    </contour>
    <contour>
      <point x="678" y="915" type="line"/>
      <point x="460" y="772" type="line"/>
      <point x="422" y="803" type="line"/>
      <point x="616" y="959" type="line"/>
    </contour>
  </outline>
</glyph>
<glyph name="Ucircumflex" format="1">
  <advance width="589"/>
  <unicode hex="00DB"/>
  <outline>
    <contour>
      <point x="255" y="700" type="line"/>
      <point x="338" y="700" type="line"/>
      <point x="175" y="230" type="line" smooth="yes"/>
      <point x="152" y="155"/>
      <point x="165" y="73"/>
      <point x="259" y="71" type="curve" smooth="yes"/>
      <point x="355" y="69"/>
      <point x="428" y="147"/>
      <point x="461" y="230" type="curve" smooth="yes"/>
      <point x="623" y="700" type="line"/>
      <point x="706" y="700" type="line"/>
      <point x="545" y="230" type="line" smooth="yes"/>
      <point x="499" y="104"/>
      <point x="385" y="-9"/>
      <point x="243" y="-9" type="curve" smooth="yes"/>
      <point x="106" y="-9"/>
      <point x="59" y="111"/>
      <point x="94" y="230" type="curve" smooth="yes"/>
    </contour>
    <contour>
      <point x="541" y="864" type="line"/>
      <point x="403" y="771" type="line"/>
      <point x="365" y="813" type="line"/>
      <point x="561" y="950" type="line"/>
      <point x="669" y="808" type="line"/>
      <point x="611" y="771" type="line"/>
    </contour>
  </outline>
</glyph>
<glyph name="Udieresis" format="1">
  <advance width="589"/>
  <unicode hex="00DC"/>
  <outline>
    <contour>
      <point x="255" y="700" type="line"/>
      <point x="338" y="700" type="line"/>
      <point x="175" y="230" type="line" smooth="yes"/>
      <point x="152" y="155"/>
      <point x="165" y="73"/>
      <point x="259" y="71" type="curve" smooth="yes"/>
      <point x="355" y="69"/>
      <point x="428" y="147"/>
      <point x="461" y="230" type="curve" smooth="yes"/>
      <point x="623" y="700" type="line"/>
      <point x="706" y="700" type="line"/>
      <point x="545" y="230" type="line" smooth="yes"/>
      <point x="499" y="104"/>
      <point x="385" y="-9"/>
      <point x="243" y="-9" type="curve" smooth="yes"/>
      <point x="106" y="-9"/>
      <point x="59" y="111"/>
      <point x="94" y="230" type="curve" smooth="yes"/>
    </contour>
    <contour>
      <point x="563" y="827" type="curve" smooth="yes"/>
      <point x="569" y="851"/>
      <point x="607" y="882"/>
      <point x="632" y="879" type="curve" smooth="yes"/>
      <point x="659" y="876"/>
      <point x="675" y="849"/>
      <point x="669" y="823" type="curve" smooth="yes"/>
      <point x="663" y="799"/>
      <point x="625" y="768"/>
      <point x="600" y="771" type="curve" smooth="yes"/>
      <point x="573" y="774"/>
      <point x="557" y="801"/>
    </contour>
    <contour>
      <point x="375" y="827" type="curve" smooth="yes"/>
      <point x="381" y="851"/>
      <point x="419" y="882"/>
      <point x="444" y="879" type="curve" smooth="yes"/>
      <point x="471" y="876"/>
      <point x="487" y="849"/>
      <point x="481" y="823" type="curve" smooth="yes"/>
      <point x="475" y="799"/>
      <point x="436" y="768"/>
      <point x="411" y="771" type="curve" smooth="yes"/>
      <point x="384" y="774"/>
      <point x="369" y="801"/>
    </contour>
  </outline>
</glyph>
<glyph name="Yacute" format="1">
  <advance width="527"/>
  <unicode hex="00DD"/>
  <outline>
    <contour>
      <point x="647" y="915" type="line"/>
      <point x="429" y="771" type="line"/>
      <point x="392" y="803" type="line"/>
      <point x="585" y="959" type="line"/>
    </contour>
    <contour>
      <point x="615" y="699" type="line"/>
      <point x="713" y="699" type="line"/>
      <point x="353" y="297" type="line"/>
      <point x="250" y="0" type="line"/>
      <point x="167" y="0" type="line"/>
      <point x="274" y="307" type="line"/>
      <point x="191" y="700" type="line"/>
      <point x="278" y="700" type="line"/>
      <point x="335" y="379" type="line"/>
    </contour>
  </outline>
</glyph>
<glyph name="germandbls" format="1">
  <advance width="536"/>
  <unicode hex="00DF"/>
  <outline>
    <contour>
      <point x="222" y="65" type="line"/>
      <point x="318" y="81"/>
      <point x="409" y="140"/>
      <point x="443" y="235" type="curve" smooth="yes"/>
      <point x="478" y="333"/>
      <point x="411" y="390"/>
      <point x="321" y="404" type="curve"/>
      <point x="338" y="458" type="line"/>
      <point x="468" y="447"/>
      <point x="562" y="361"/>
      <point x="518" y="224" type="curve" smooth="yes"/>
      <point x="473" y="84"/>
      <point x="338" y="4"/>
      <point x="198" y="-9" type="curve"/>
    </contour>
    <contour>
      <point x="328" y="426" type="curve"/>
      <point x="345" y="480" type="line"/>
      <point x="421" y="490"/>
      <point x="500" y="518"/>
      <point x="529" y="596" type="curve" smooth="yes"/>
      <point x="552" y="657"/>
      <point x="525" y="713"/>
      <point x="456" y="714" type="curve" smooth="yes"/>
      <point x="388" y="715"/>
      <point x="327" y="668"/>
      <point x="306" y="606" type="curve" smooth="yes"/>
      <point x="97" y="0" type="line"/>
      <point x="18" y="0" type="line"/>
      <point x="225" y="607" type="line" smooth="yes"/>
      <point x="260" y="708"/>
      <point x="350" y="789"/>
      <point x="470" y="789" type="curve" smooth="yes"/>
      <point x="578.019" y="789"/>
      <point x="644" y="710"/>
      <point x="611" y="605" type="curve" smooth="yes"/>
      <point x="570" y="477"/>
      <point x="451" y="433"/>
    </contour>
  </outline>
</glyph>
<glyph name="atilde" format="1">
  <advance width="456"/>
  <unicode hex="00E3"/>
  <outline>
    <contour>
      <point x="96" y="135" type="curve" smooth="yes"/>
      <point x="80" y="87"/>
      <point x="113" y="64"/>
      <point x="157" y="62" type="curve" smooth="yes"/>
      <point x="239" y="59"/>
      <point x="294" y="113"/>
      <point x="332" y="179" type="curve"/>
      <point x="331" y="128" type="line"/>
      <point x="290" y="48"/>
      <point x="219" y="-10"/>
      <point x="125" y="-9" type="curve" smooth="yes"/>
      <point x="46" y="-8"/>
      <point x="-9" y="46"/>
      <point x="15" y="126" type="curve" smooth="yes"/>
      <point x="44" y="225"/>
      <point x="151" y="286"/>
      <point x="251" y="285" type="curve" smooth="yes"/>
      <point x="305" y="285"/>
      <point x="346" y="265"/>
      <point x="380" y="224" type="curve"/>
      <point x="365" y="179" type="line"/>
      <point x="329" y="208"/>
      <point x="291" y="225"/>
      <point x="244" y="224" type="curve" smooth="yes"/>
      <point x="186" y="223"/>
      <point x="116" y="195"/>
    </contour>
    <contour>
      <point x="173" y="352" type="curve"/>
      <point x="154" y="416" type="line"/>
      <point x="210" y="446"/>
      <point x="270" y="470"/>
      <point x="334" y="469" type="curve" smooth="yes"/>
      <point x="418" y="468"/>
      <point x="482" y="419"/>
      <point x="459" y="330" type="curve"/>
      <point x="346" y="0" type="line"/>
      <point x="267" y="0" type="line"/>
      <point x="384" y="330" type="line"/>
      <point x="385" y="374"/>
      <point x="367" y="396"/>
      <point x="320" y="398" type="curve" smooth="yes"/>
      <point x="268" y="400"/>
      <point x="218" y="375"/>
    </contour>
    <contour>
      <point x="216" y="570" type="line"/>
      <point x="245" y="606"/>
      <point x="286" y="651"/>
      <point x="338" y="648" type="curve" smooth="yes"/>
      <point x="377" y="646"/>
      <point x="400" y="600"/>
      <point x="439" y="603" type="curve" smooth="yes"/>
      <point x="467" y="605"/>
      <point x="491" y="632"/>
      <point x="510" y="649" type="curve"/>
      <point x="543" y="604" type="line"/>
      <point x="513" y="573"/>
      <point x="470" y="531"/>
      <point x="422" y="535" type="curve" smooth="yes"/>
      <point x="384" y="538"/>
      <point x="364" y="582"/>
      <point x="325" y="580" type="curve" smooth="yes"/>
      <point x="295" y="578"/>
      <point x="275" y="552"/>
      <point x="258" y="531" type="curve"/>
    </contour>
  </outline>
</glyph>
<glyph name="adieresis" format="1">
  <advance width="456"/>
  <unicode hex="00E4"/>
  <outline>
    <contour>
      <point x="96" y="135" type="curve" smooth="yes"/>
      <point x="80" y="87"/>
      <point x="113" y="64"/>
      <point x="157" y="62" type="curve" smooth="yes"/>
      <point x="239" y="59"/>
      <point x="294" y="113"/>
      <point x="332" y="179" type="curve"/>
      <point x="331" y="128" type="line"/>
      <point x="290" y="48"/>
      <point x="219" y="-10"/>
      <point x="125" y="-9" type="curve" smooth="yes"/>
      <point x="46" y="-8"/>
      <point x="-9" y="46"/>
      <point x="15" y="126" type="curve" smooth="yes"/>
      <point x="44" y="225"/>
      <point x="151" y="286"/>
      <point x="251" y="285" type="curve" smooth="yes"/>
      <point x="305" y="285"/>
      <point x="346" y="265"/>
      <point x="380" y="224" type="curve"/>
      <point x="365" y="179" type="line"/>
      <point x="329" y="208"/>
      <point x="291" y="225"/>
      <point x="244" y="224" type="curve" smooth="yes"/>
      <point x="186" y="223"/>
      <point x="116" y="195"/>
    </contour>
    <contour>
      <point x="173" y="352" type="curve"/>
      <point x="154" y="416" type="line"/>
      <point x="210" y="446"/>
      <point x="270" y="470"/>
      <point x="334" y="469" type="curve" smooth="yes"/>
      <point x="418" y="468"/>
      <point x="482" y="419"/>
      <point x="459" y="330" type="curve"/>
      <point x="346" y="0" type="line"/>
      <point x="267" y="0" type="line"/>
      <point x="384" y="330" type="line"/>
      <point x="385" y="374"/>
      <point x="367" y="396"/>
      <point x="320" y="398" type="curve" smooth="yes"/>
      <point x="268" y="400"/>
      <point x="218" y="375"/>
    </contour>
    <contour>
      <point x="420" y="587" type="curve" smooth="yes"/>
      <point x="426" y="611"/>
      <point x="464" y="642"/>
      <point x="489" y="639" type="curve" smooth="yes"/>
      <point x="516" y="636"/>
      <point x="532" y="609"/>
      <point x="526" y="583" type="curve" smooth="yes"/>
      <point x="520" y="559"/>
      <point x="481" y="528"/>
      <point x="456" y="531" type="curve" smooth="yes"/>
      <point x="429" y="534"/>
      <point x="414" y="561"/>
    </contour>
    <contour>
      <point x="232" y="587" type="curve" smooth="yes"/>
      <point x="238" y="611"/>
      <point x="276" y="642"/>
      <point x="301" y="639" type="curve" smooth="yes"/>
      <point x="328" y="636"/>
      <point x="343" y="609"/>
      <point x="337" y="583" type="curve" smooth="yes"/>
      <point x="331" y="559"/>
      <point x="293" y="528"/>
      <point x="268" y="531" type="curve" smooth="yes"/>
      <point x="241" y="534"/>
      <point x="226" y="561"/>
    </contour>
  </outline>
</glyph>
<glyph name="ae" format="1">
  <advance width="776"/>
  <unicode hex="00E6"/>
  <outline>
    <contour>
      <point x="96" y="135" type="curve" smooth="yes"/>
      <point x="80" y="87"/>
      <point x="113" y="64"/>
      <point x="157" y="62" type="curve" smooth="yes"/>
      <point x="239" y="59"/>
      <point x="293" y="113"/>
      <point x="330" y="179" type="curve"/>
      <point x="360" y="127" type="line"/>
      <point x="316" y="44"/>
      <point x="240" y="-9"/>
      <point x="144" y="-9" type="curve" smooth="yes"/>
      <point x="63" y="-9"/>
      <point x="-12" y="36"/>
      <point x="15" y="126" type="curve" smooth="yes"/>
      <point x="44" y="225"/>
      <point x="151" y="286"/>
      <point x="251" y="285" type="curve" smooth="yes"/>
      <point x="305" y="285"/>
      <point x="346" y="265"/>
      <point x="380" y="224" type="curve"/>
      <point x="365" y="179" type="line"/>
      <point x="329" y="208"/>
      <point x="291" y="225"/>
      <point x="244" y="224" type="curve" smooth="yes"/>
      <point x="186" y="223"/>
      <point x="116" y="195"/>
    </contour>
    <contour>
      <point x="173" y="352" type="curve"/>
      <point x="154" y="416" type="line"/>
      <point x="209" y="446"/>
      <point x="270" y="470"/>
      <point x="334" y="469" type="curve" smooth="yes"/>
      <point x="420" y="467"/>
      <point x="462" y="414"/>
      <point x="440" y="330" type="curve"/>
      <point x="373" y="131" type="line"/>
      <point x="314" y="131" type="line"/>
      <point x="381" y="320" type="line"/>
      <point x="390" y="364"/>
      <point x="366" y="395"/>
      <point x="321" y="398" type="curve" smooth="yes"/>
      <point x="270" y="402"/>
      <point x="217" y="375"/>
    </contour>
    <contour>
      <point x="399" y="211" type="line"/>
      <point x="421" y="277" type="line"/>
      <point x="764" y="278" type="line"/>
      <point x="761" y="210" type="line"/>
    </contour>
    <contour>
      <point x="694" y="250" type="line" smooth="yes"/>
      <point x="715" y="315"/>
      <point x="713" y="396"/>
      <point x="627" y="399" type="curve" smooth="yes"/>
      <point x="541" y="402"/>
      <point x="473" y="332"/>
      <point x="439" y="260" type="curve" smooth="yes"/>
      <point x="426" y="230" type="line"/>
      <point x="400" y="158"/>
      <point x="407" y="69"/>
      <point x="501" y="66" type="curve" smooth="yes"/>
      <point x="565" y="64"/>
      <point x="621" y="107"/>
      <point x="667" y="147" type="curve"/>
      <point x="720" y="104" type="line"/>
      <point x="654" y="41"/>
      <point x="573" y="-12"/>
      <point x="478" y="-9" type="curve" smooth="yes"/>
      <point x="353" y="-5"/>
      <point x="311" y="127"/>
      <point x="356" y="230" type="curve" smooth="yes"/>
      <point x="364" y="247"/>
      <point x="375" y="263"/>
      <point x="385" y="279" type="curve" smooth="yes"/>
      <point x="445" y="373"/>
      <point x="526" y="471"/>
      <point x="649" y="469" type="curve" smooth="yes"/>
      <point x="779" y="467"/>
      <point x="800" y="336"/>
      <point x="771" y="234" type="curve" smooth="yes"/>
      <point x="769" y="226"/>
      <point x="766" y="219"/>
      <point x="763" y="211" type="curve"/>
      <point x="687" y="231" type="line"/>
    </contour>
  </outline>
</glyph>
<glyph name="ccedilla" format="1">
  <advance width="449"/>
  <unicode hex="00E7"/>
  <outline>
    <contour>
      <point x="129" y="230" type="curve" smooth="yes"/>
      <point x="102" y="156"/>
      <point x="125" y="69"/>
      <point x="215" y="66" type="curve" smooth="yes"/>
      <point x="285" y="64"/>
      <point x="348" y="103"/>
      <point x="399" y="147" type="curve"/>
      <point x="368" y="48" type="line"/>
      <point x="318" y="14"/>
      <point x="262" y="-9"/>
      <point x="200" y="-9" type="curve" smooth="yes"/>
      <point x="67" y="-8"/>
      <point x="14" y="114"/>
      <point x="51" y="230" type="curve" smooth="yes"/>
      <point x="91" y="357"/>
      <point x="216" y="468"/>
      <point x="353" y="469" type="curve" smooth="yes"/>
      <point x="408" y="469"/>
      <point x="452" y="450"/>
      <point x="489" y="410" type="curve"/>
      <point x="457" y="311" type="line"/>
      <point x="438" y="366"/>
      <point x="398" y="395"/>
      <point x="339" y="394" type="curve" smooth="yes"/>
      <point x="246" y="393"/>
      <point x="160" y="314"/>
    </contour>
    <contour>
      <point x="206" y="57" type="line"/>
      <point x="266" y="57" type="line"/>
      <point x="167" y="-53" type="line"/>
      <point x="169" y="-53"/>
      <point x="170" y="-53"/>
      <point x="172" y="-53" type="curve" smooth="yes"/>
      <point x="210" y="-60"/>
      <point x="230" y="-91"/>
      <point x="220" y="-129" type="curve" smooth="yes"/>
      <point x="206" y="-181"/>
      <point x="143" y="-220"/>
      <point x="91" y="-220" type="curve" smooth="yes"/>
      <point x="57" y="-220"/>
      <point x="37" y="-202"/>
      <point x="14" y="-180" type="curve"/>
      <point x="57" y="-144" type="line"/>
      <point x="70" y="-155"/>
      <point x="82" y="-167"/>
      <point x="101" y="-167" type="curve" smooth="yes"/>
      <point x="122" y="-167"/>
      <point x="160" y="-148"/>
      <point x="166" y="-126" type="curve" smooth="yes"/>
      <point x="172" y="-105"/>
      <point x="152" y="-92"/>
      <point x="134" y="-91" type="curve" smooth="yes"/>
      <point x="113" y="-89"/>
      <point x="89" y="-100"/>
      <point x="70" y="-107" type="curve"/>
    </contour>
  </outline>
</glyph>
<glyph name="egrave" format="1">
  <advance width="515"/>
  <unicode hex="00E8"/>
  <outline>
    <contour>
      <point x="133" y="210" type="line"/>
      <point x="145" y="278" type="line"/>
      <point x="508" y="278" type="line"/>
      <point x="516" y="210" type="line"/>
    </contour>
    <contour>
      <point x="439" y="250" type="line" smooth="yes"/>
      <point x="454" y="336"/>
      <point x="424" y="400"/>
      <point x="334" y="400" type="curve" smooth="yes"/>
      <point x="254" y="400"/>
      <point x="179" y="346"/>
      <point x="164" y="260" type="curve"/>
      <point x="157" y="230" type="line"/>
      <point x="138" y="124"/>
      <point x="184" y="65"/>
      <point x="274" y="65" type="curve" smooth="yes"/>
      <point x="341" y="65"/>
      <point x="393" y="98"/>
      <point x="433" y="148" type="curve"/>
      <point x="491" y="107" type="line"/>
      <point x="433" y="37"/>
      <point x="370" y="-10"/>
      <point x="251" y="-10" type="curve" smooth="yes"/>
      <point x="126" y="-10"/>
      <point x="51" y="91"/>
      <point x="76" y="230" type="curve" smooth="yes"/>
      <point x="79" y="247"/>
      <point x="82" y="263"/>
      <point x="88" y="279" type="curve" smooth="yes"/>
      <point x="127" y="392"/>
      <point x="227" y="470"/>
      <point x="346" y="470" type="curve" smooth="yes"/>
      <point x="476" y="470"/>
      <point x="547" y="379"/>
      <point x="521" y="234" type="curve" smooth="yes"/>
      <point x="520" y="226"/>
      <point x="518" y="218"/>
      <point x="516" y="210" type="curve"/>
      <point x="436" y="230" type="line"/>
    </contour>
    <contour>
      <point x="226" y="700" type="line"/>
      <point x="308" y="740" type="line"/>
      <point x="430" y="580" type="line"/>
      <point x="380" y="550" type="line"/>
    </contour>
  </outline>
</glyph>
<glyph name="edieresis" format="1">
  <advance width="484"/>
  <unicode hex="00EB"/>
  <outline>
    <contour>
      <point x="98" y="211" type="line"/>
      <point x="120" y="277" type="line"/>
      <point x="408" y="278" type="line"/>
      <point x="418" y="339"/>
      <point x="409" y="397"/>
      <point x="335" y="399" type="curve" smooth="yes"/>
      <point x="249" y="401"/>
      <point x="181" y="332"/>
      <point x="147" y="260" type="curve" smooth="yes"/>
      <point x="134" y="230" type="line"/>
      <point x="108" y="158"/>
      <point x="117" y="69"/>
      <point x="210" y="66" type="curve" smooth="yes"/>
      <point x="274" y="64"/>
      <point x="329" y="107"/>
      <point x="375" y="147" type="curve"/>
      <point x="428" y="104" type="line"/>
      <point x="361" y="41"/>
      <point x="281" y="-11"/>
      <point x="186" y="-9" type="curve" smooth="yes"/>
      <point x="54" y="-6"/>
      <point x="22" y="122"/>
      <point x="55" y="230" type="curve" smooth="yes"/>
      <point x="60" y="247"/>
      <point x="67" y="263"/>
      <point x="75" y="279" type="curve" smooth="yes"/>
      <point x="125" y="380"/>
      <point x="230" y="470"/>
      <point x="348" y="469" type="curve" smooth="yes"/>
      <point x="484" y="468"/>
      <point x="510" y="344"/>
      <point x="479" y="234" type="curve" smooth="yes"/>
      <point x="477" y="226"/>
      <point x="475" y="219"/>
      <point x="472" y="211" type="curve"/>
    </contour>
    <contour>
      <point x="434" y="587" type="curve" smooth="yes"/>
      <point x="440" y="611"/>
      <point x="478" y="642"/>
      <point x="503" y="639" type="curve" smooth="yes"/>
      <point x="530" y="636"/>
      <point x="546" y="609"/>
      <point x="540" y="583" type="curve" smooth="yes"/>
      <point x="534" y="559"/>
      <point x="496" y="528"/>
      <point x="471" y="531" type="curve" smooth="yes"/>
      <point x="444" y="534"/>
      <point x="428" y="561"/>
    </contour>
    <contour>
      <point x="246" y="587" type="curve" smooth="yes"/>
      <point x="252" y="611"/>
      <point x="290" y="642"/>
      <point x="315" y="639" type="curve" smooth="yes"/>
      <point x="342" y="636"/>
      <point x="358" y="609"/>
      <point x="352" y="583" type="curve" smooth="yes"/>
      <point x="346" y="559"/>
      <point x="307" y="528"/>
      <point x="282" y="531" type="curve" smooth="yes"/>
      <point x="255" y="534"/>
      <point x="240" y="561"/>
    </contour>
  </outline>
</glyph>
<glyph name="eth" format="1">
  <advance width="541"/>
  <unicode hex="00F0"/>
  <outline>
    <contour>
      <point x="442" y="230" type="curve" smooth="yes"/>
      <point x="469" y="303"/>
      <point x="448" y="393"/>
      <point x="357" y="394" type="curve" smooth="yes"/>
      <point x="264" y="395"/>
      <point x="178" y="313"/>
      <point x="148" y="230" type="curve" smooth="yes"/>
      <point x="121" y="157"/>
      <point x="144" y="69"/>
      <point x="234" y="68" type="curve" smooth="yes"/>
      <point x="327" y="67"/>
      <point x="412" y="147"/>
    </contour>
    <contour>
      <point x="414" y="700" type="line"/>
      <point x="526" y="375" type="line" smooth="yes"/>
      <point x="540" y="327"/>
      <point x="536" y="277"/>
      <point x="521" y="230" type="curve" smooth="yes"/>
      <point x="480" y="104"/>
      <point x="357" y="-9"/>
      <point x="219" y="-9" type="curve" smooth="yes"/>
      <point x="85" y="-9"/>
      <point x="32" y="114"/>
      <point x="69" y="231" type="curve" smooth="yes"/>
      <point x="105" y="343"/>
      <point x="214" y="455"/>
      <point x="338" y="456" type="curve" smooth="yes"/>
      <point x="378" y="456"/>
      <point x="404" y="442"/>
      <point x="430" y="413" type="curve"/>
      <point x="426" y="410" type="line"/>
      <point x="318" y="700" type="line"/>
    </contour>
    <contour>
      <point x="269" y="521" type="line"/>
      <point x="289" y="584" type="line"/>
      <point x="574" y="584" type="line"/>
      <point x="553" y="521" type="line"/>
    </contour>
  </outline>
</glyph>
<glyph name="otilde" format="1">
  <advance width="513"/>
  <unicode hex="00F5"/>
  <outline>
    <contour>
      <point x="55" y="230" type="curve" smooth="yes"/>
      <point x="95" y="355"/>
      <point x="221" y="469"/>
      <point x="357" y="469" type="curve" smooth="yes"/>
      <point x="490" y="469"/>
      <point x="544" y="346"/>
      <point x="507" y="230" type="curve" smooth="yes"/>
      <point x="467" y="105"/>
      <point x="341" y="-9"/>
      <point x="205" y="-9" type="curve" smooth="yes"/>
      <point x="72" y="-9"/>
      <point x="18" y="114"/>
    </contour>
    <contour>
      <point x="134" y="230" type="curve" smooth="yes"/>
      <point x="107" y="157"/>
      <point x="128" y="67"/>
      <point x="219" y="66" type="curve" smooth="yes"/>
      <point x="312" y="65"/>
      <point x="398" y="147"/>
      <point x="428" y="230" type="curve" smooth="yes"/>
      <point x="455" y="303"/>
      <point x="434" y="393"/>
      <point x="343" y="394" type="curve" smooth="yes"/>
      <point x="250" y="395"/>
      <point x="164" y="313"/>
    </contour>
    <contour>
      <point x="239" y="570" type="line"/>
      <point x="230" y="610"/>
      <point x="333" y="649"/>
      <point x="361" y="648" type="curve" smooth="yes"/>
      <point x="400" y="646"/>
      <point x="422" y="600"/>
      <point x="462" y="603" type="curve" smooth="yes"/>
      <point x="490" y="605"/>
      <point x="514" y="632"/>
      <point x="533" y="649" type="curve"/>
      <point x="567" y="604" type="line"/>
      <point x="537" y="573"/>
      <point x="494" y="531"/>
      <point x="446" y="535" type="curve" smooth="yes"/>
      <point x="408" y="538"/>
      <point x="387" y="582"/>
      <point x="348" y="580" type="curve" smooth="yes"/>
      <point x="318" y="578"/>
      <point x="298" y="552"/>
      <point x="281" y="531" type="curve"/>
    </contour>
  </outline>
</glyph>
<glyph name="odieresis" format="1">
  <advance width="513"/>
  <unicode hex="00F6"/>
  <outline>
    <contour>
      <point x="55" y="230" type="curve" smooth="yes"/>
      <point x="95" y="355"/>
      <point x="221" y="469"/>
      <point x="357" y="469" type="curve" smooth="yes"/>
      <point x="490" y="469"/>
      <point x="544" y="346"/>
      <point x="507" y="230" type="curve" smooth="yes"/>
      <point x="467" y="105"/>
      <point x="341" y="-9"/>
      <point x="205" y="-9" type="curve" smooth="yes"/>
      <point x="72" y="-9"/>
      <point x="18" y="114"/>
    </contour>
    <contour>
      <point x="134" y="230" type="curve" smooth="yes"/>
      <point x="107" y="157"/>
      <point x="128" y="67"/>
      <point x="219" y="66" type="curve" smooth="yes"/>
      <point x="312" y="65"/>
      <point x="398" y="147"/>
      <point x="428" y="230" type="curve" smooth="yes"/>
      <point x="455" y="303"/>
      <point x="434" y="393"/>
      <point x="343" y="394" type="curve" smooth="yes"/>
      <point x="250" y="395"/>
      <point x="164" y="313"/>
    </contour>
    <contour>
      <point x="454" y="617" type="curve" smooth="yes"/>
      <point x="460" y="641"/>
      <point x="498" y="672"/>
      <point x="523" y="669" type="curve" smooth="yes"/>
      <point x="550" y="666"/>
      <point x="565" y="639"/>
      <point x="559" y="613" type="curve" smooth="yes"/>
      <point x="553" y="589"/>
      <point x="515" y="558"/>
      <point x="490" y="561" type="curve" smooth="yes"/>
      <point x="463" y="564"/>
      <point x="448" y="591"/>
    </contour>
    <contour>
      <point x="266" y="617" type="curve" smooth="yes"/>
      <point x="272" y="641"/>
      <point x="310" y="672"/>
      <point x="335" y="669" type="curve" smooth="yes"/>
      <point x="362" y="666"/>
      <point x="377" y="639"/>
      <point x="371" y="613" type="curve" smooth="yes"/>
      <point x="365" y="589"/>
      <point x="327" y="558"/>
      <point x="302" y="561" type="curve" smooth="yes"/>
      <point x="275" y="564"/>
      <point x="260" y="591"/>
    </contour>
  </outline>
</glyph>
<glyph name="divide" format="1">
  <advance width="586"/>
  <unicode hex="00F7"/>
  <outline>
    <contour>
      <point x="338" y="452" type="curve" smooth="yes"/>
      <point x="344" y="476"/>
      <point x="382" y="507"/>
      <point x="407" y="504" type="curve" smooth="yes"/>
      <point x="434" y="501"/>
      <point x="450" y="474"/>
      <point x="444" y="448" type="curve" smooth="yes"/>
      <point x="438" y="424"/>
      <point x="400" y="393"/>
      <point x="375" y="396" type="curve" smooth="yes"/>
      <point x="348" y="399"/>
      <point x="332" y="426"/>
    </contour>
    <contour>
      <point x="209" y="72" type="curve" smooth="yes"/>
      <point x="215" y="96"/>
      <point x="253" y="127"/>
      <point x="278" y="124" type="curve" smooth="yes"/>
      <point x="305" y="121"/>
      <point x="320" y="94"/>
      <point x="314" y="68" type="curve" smooth="yes"/>
      <point x="308" y="44"/>
      <point x="270" y="13"/>
      <point x="245" y="16" type="curve" smooth="yes"/>
      <point x="218" y="19"/>
      <point x="203" y="46"/>
    </contour>
    <contour>
      <point x="80" y="226" type="line"/>
      <point x="106" y="305" type="line"/>
      <point x="580" y="305" type="line"/>
      <point x="553" y="225" type="line"/>
    </contour>
  </outline>
</glyph>
<glyph name="oslash" format="1">
  <advance width="546"/>
  <unicode hex="00F8"/>
  <outline>
    <contour>
      <point x="76" y="230" type="curve" smooth="yes"/>
      <point x="101" y="369"/>
      <point x="221" y="470"/>
      <point x="356" y="470" type="curve" smooth="yes"/>
      <point x="491" y="470"/>
      <point x="577" y="369"/>
      <point x="552" y="230" type="curve" smooth="yes"/>
      <point x="527" y="91"/>
      <point x="406" y="-10"/>
      <point x="271" y="-10" type="curve" smooth="yes"/>
      <point x="136" y="-10"/>
      <point x="51" y="91"/>
    </contour>
    <contour>
      <point x="157" y="230" type="curve" smooth="yes"/>
      <point x="140" y="134"/>
      <point x="194" y="65"/>
      <point x="284" y="65" type="curve" smooth="yes"/>
      <point x="374" y="65"/>
      <point x="454" y="134"/>
      <point x="471" y="230" type="curve" smooth="yes"/>
      <point x="488" y="326"/>
      <point x="433" y="395"/>
      <point x="343" y="395" type="curve" smooth="yes"/>
      <point x="253" y="395"/>
      <point x="174" y="326"/>
    </contour>
    <contour>
      <point x="528" y="500" type="line"/>
      <point x="570" y="480" type="line"/>
      <point x="87" y="-44" type="line"/>
      <point x="46" y="-24" type="line"/>
    </contour>
  </outline>
</glyph>
<glyph name="ucircumflex" format="1">
  <advance width="493"/>
  <unicode hex="00FB"/>
  <outline>
    <contour>
      <point x="291" y="0" type="line"/>
      <point x="450" y="460" type="line"/>
      <point x="529" y="460" type="line"/>
      <point x="370" y="0" type="line"/>
    </contour>
    <contour>
      <point x="153" y="180" type="line" smooth="yes"/>
      <point x="138" y="131"/>
      <point x="134" y="69"/>
      <point x="200" y="66" type="curve" smooth="yes"/>
      <point x="271" y="63"/>
      <point x="322" y="123"/>
      <point x="354" y="178" type="curve"/>
      <point x="391" y="178" type="line"/>
      <point x="351" y="89"/>
      <point x="275" y="-9"/>
      <point x="167" y="-9" type="curve" smooth="yes"/>
      <point x="62" y="-9"/>
      <point x="49" y="88"/>
      <point x="73" y="170" type="curve" smooth="yes"/>
      <point x="174" y="460" type="line"/>
      <point x="248" y="459" type="line"/>
    </contour>
    <contour>
      <point x="418" y="644" type="line"/>
      <point x="280" y="551" type="line"/>
      <point x="241" y="593" type="line"/>
      <point x="438" y="730" type="line"/>
      <point x="546" y="588" type="line"/>
      <point x="488" y="551" type="line"/>
    </contour>
  </outline>
</glyph>
<glyph name="udieresis" format="1">
  <advance width="493"/>
  <unicode hex="00FC"/>
  <outline>
    <contour>
      <point x="291" y="0" type="line"/>
      <point x="450" y="460" type="line"/>
      <point x="529" y="460" type="line"/>
      <point x="370" y="0" type="line"/>
    </contour>
    <contour>
      <point x="153" y="180" type="line" smooth="yes"/>
      <point x="138" y="131"/>
      <point x="134" y="69"/>
      <point x="200" y="66" type="curve" smooth="yes"/>
      <point x="271" y="63"/>
      <point x="322" y="123"/>
      <point x="354" y="178" type="curve"/>
      <point x="391" y="178" type="line"/>
      <point x="351" y="89"/>
      <point x="275" y="-9"/>
      <point x="167" y="-9" type="curve" smooth="yes"/>
      <point x="62" y="-9"/>
      <point x="49" y="88"/>
      <point x="73" y="170" type="curve" smooth="yes"/>
      <point x="174" y="460" type="line"/>
      <point x="248" y="459" type="line"/>
    </contour>
    <contour>
      <point x="441" y="607" type="curve" smooth="yes"/>
      <point x="447" y="630"/>
      <point x="484" y="662"/>
      <point x="509" y="659" type="curve" smooth="yes"/>
      <point x="536" y="656"/>
      <point x="553" y="629"/>
      <point x="547" y="603" type="curve" smooth="yes"/>
      <point x="541" y="579"/>
      <point x="501" y="548"/>
      <point x="476" y="551" type="curve" smooth="yes"/>
      <point x="448" y="554"/>
      <point x="435" y="582"/>
    </contour>
    <contour>
      <point x="253" y="607" type="curve" smooth="yes"/>
      <point x="259" y="630"/>
      <point x="296" y="662"/>
      <point x="321" y="659" type="curve" smooth="yes"/>
      <point x="348" y="656"/>
      <point x="364" y="629"/>
      <point x="358" y="603" type="curve" smooth="yes"/>
      <point x="352" y="579"/>
      <point x="313" y="548"/>
      <point x="288" y="551" type="curve" smooth="yes"/>
      <point x="260" y="554"/>
      <point x="247" y="582"/>
    </contour>
  </outline>
</glyph>
<glyph name="yacute" format="1">
  <advance width="440"/>
  <unicode hex="00FD"/>
  <outline>
    <contour>
      <point x="521" y="460" type="line"/>
      <point x="101" y="-220" type="line"/>
      <point x="11" y="-220" type="line"/>
      <point x="187" y="65" type="line"/>
      <point x="81" y="460" type="line"/>
      <point x="176" y="460" type="line"/>
      <point x="259" y="100" type="line"/>
      <point x="226" y="104" type="line"/>
      <point x="431" y="460" type="line"/>
    </contour>
    <contour>
      <point x="473" y="700" type="line"/>
      <point x="267" y="550" type="line"/>
      <point x="227" y="580" type="line"/>
      <point x="405" y="740" type="line"/>
    </contour>
  </outline>
</glyph>
<glyph name="Abreve" format="1">
  <advance width="660"/>
  <unicode hex="0102"/>
  <outline>
    <contour>
      <point x="184" y="210" type="line"/>
      <point x="228" y="290" type="line"/>
      <point x="538" y="290" type="line"/>
      <point x="554" y="210" type="line"/>
    </contour>
    <contour>
      <point x="426" y="542" type="line"/>
      <point x="259" y="264" type="line"/>
      <point x="247" y="246" type="line"/>
      <point x="100" y="0" type="line"/>
      <point x="5" y="0" type="line"/>
      <point x="460" y="735" type="line"/>
      <point x="655" y="0" type="line"/>
      <point x="560" y="0" type="line"/>
      <point x="500" y="240" type="line"/>
      <point x="496" y="260" type="line"/>
    </contour>
    <contour>
      <point x="337" y="935" type="curve"/>
      <point x="408" y="935" type="line"/>
      <point x="403" y="909"/>
      <point x="412" y="860"/>
      <point x="482" y="860" type="curve" smooth="yes"/>
      <point x="552" y="860"/>
      <point x="577" y="909"/>
      <point x="582" y="935" type="curve"/>
      <point x="653" y="935" type="line"/>
      <point x="641" y="866"/>
      <point x="575" y="795"/>
      <point x="470" y="795" type="curve" smooth="yes"/>
      <point x="365" y="795"/>
      <point x="325" y="866"/>
    </contour>
  </outline>
</glyph>
<glyph name="abreve" format="1">
  <advance width="456"/>
  <unicode hex="0103"/>
  <outline>
    <contour>
      <point x="96" y="135" type="curve" smooth="yes"/>
      <point x="80" y="87"/>
      <point x="113" y="64"/>
      <point x="157" y="62" type="curve" smooth="yes"/>
      <point x="239" y="59"/>
      <point x="294" y="113"/>
      <point x="332" y="179" type="curve"/>
      <point x="331" y="128" type="line"/>
      <point x="290" y="48"/>
      <point x="219" y="-10"/>
      <point x="125" y="-9" type="curve" smooth="yes"/>
      <point x="46" y="-8"/>
      <point x="-9" y="46"/>
      <point x="15" y="126" type="curve" smooth="yes"/>
      <point x="44" y="225"/>
      <point x="151" y="286"/>
      <point x="251" y="285" type="curve" smooth="yes"/>
      <point x="305" y="285"/>
      <point x="346" y="265"/>
      <point x="380" y="224" type="curve"/>
      <point x="365" y="179" type="line"/>
      <point x="329" y="208"/>
      <point x="291" y="225"/>
      <point x="244" y="224" type="curve" smooth="yes"/>
      <point x="186" y="223"/>
      <point x="116" y="195"/>
    </contour>
    <contour>
      <point x="173" y="352" type="curve"/>
      <point x="154" y="416" type="line"/>
      <point x="210" y="446"/>
      <point x="270" y="470"/>
      <point x="334" y="469" type="curve" smooth="yes"/>
      <point x="418" y="468"/>
      <point x="482" y="419"/>
      <point x="459" y="330" type="curve"/>
      <point x="346" y="0" type="line"/>
      <point x="267" y="0" type="line"/>
      <point x="384" y="330" type="line"/>
      <point x="385" y="374"/>
      <point x="367" y="396"/>
      <point x="320" y="398" type="curve" smooth="yes"/>
      <point x="268" y="400"/>
      <point x="218" y="375"/>
    </contour>
    <contour>
      <point x="257" y="670" type="curve"/>
      <point x="324" y="669" type="line"/>
      <point x="321" y="629"/>
      <point x="329" y="597"/>
      <point x="376" y="596" type="curve" smooth="yes"/>
      <point x="427" y="595"/>
      <point x="460" y="631"/>
      <point x="487" y="669" type="curve"/>
      <point x="558" y="668" type="line"/>
      <point x="520" y="593"/>
      <point x="454" y="531"/>
      <point x="365" y="531" type="curve" smooth="yes"/>
      <point x="278" y="531"/>
      <point x="246" y="592"/>
    </contour>
  </outline>
</glyph>
<glyph name="Aogonek" format="1">
  <advance width="660"/>
  <unicode hex="0104"/>
  <outline>
    <contour>
      <point x="184" y="210" type="line"/>
      <point x="228" y="290" type="line"/>
      <point x="538" y="290" type="line"/>
      <point x="554" y="210" type="line"/>
    </contour>
    <contour>
      <point x="426" y="542" type="line"/>
      <point x="259" y="264" type="line"/>
      <point x="247" y="246" type="line"/>
      <point x="100" y="0" type="line"/>
      <point x="5" y="0" type="line"/>
      <point x="460" y="735" type="line"/>
      <point x="655" y="0" type="line"/>
      <point x="560" y="0" type="line"/>
      <point x="500" y="240" type="line"/>
      <point x="496" y="260" type="line"/>
    </contour>
    <contour>
      <point x="627" y="-130" type="curve"/>
      <point x="651" y="-180" type="line"/>
      <point x="632" y="-200"/>
      <point x="599" y="-220"/>
      <point x="556" y="-220" type="curve" smooth="yes"/>
      <point x="472" y="-220"/>
      <point x="441" y="-179"/>
      <point x="451" y="-120" type="curve"/>
      <point x="534" y="-100" type="line"/>
      <point x="528" y="-136"/>
      <point x="544" y="-150"/>
      <point x="574" y="-150" type="curve" smooth="yes"/>
      <point x="600" y="-150"/>
      <point x="611" y="-143"/>
    </contour>
    <contour>
      <point x="534" y="-100" type="curve"/>
      <point x="451" y="-120" type="line"/>
      <point x="461" y="-61"/>
      <point x="532" y="-11"/>
      <point x="608" y="25" type="curve"/>
      <point x="645" y="0" type="line"/>
      <point x="589" y="-22"/>
      <point x="541" y="-63"/>
    </contour>
  </outline>
</glyph>
<glyph name="ccircumflex" format="1">
  <advance width="449"/>
  <unicode hex="0109"/>
  <outline>
    <contour>
      <point x="129" y="230" type="curve" smooth="yes"/>
      <point x="102" y="156"/>
      <point x="125" y="69"/>
      <point x="215" y="66" type="curve" smooth="yes"/>
      <point x="285" y="64"/>
      <point x="348" y="103"/>
      <point x="399" y="147" type="curve"/>
      <point x="368" y="48" type="line"/>
      <point x="318" y="14"/>
      <point x="262" y="-9"/>
      <point x="200" y="-9" type="curve" smooth="yes"/>
      <point x="67" y="-8"/>
      <point x="14" y="114"/>
      <point x="51" y="230" type="curve" smooth="yes"/>
      <point x="91" y="357"/>
      <point x="216" y="468"/>
      <point x="353" y="469" type="curve" smooth="yes"/>
      <point x="408" y="469"/>
      <point x="452" y="450"/>
      <point x="489" y="410" type="curve"/>
      <point x="457" y="311" type="line"/>
      <point x="438" y="366"/>
      <point x="398" y="395"/>
      <point x="339" y="394" type="curve" smooth="yes"/>
      <point x="246" y="393"/>
      <point x="160" y="314"/>
    </contour>
    <contour>
      <point x="417" y="624" type="line"/>
      <point x="279" y="531" type="line"/>
      <point x="240" y="573" type="line"/>
      <point x="436" y="710" type="line"/>
      <point x="545" y="568" type="line"/>
      <point x="487" y="531" type="line"/>
    </contour>
  </outline>
</glyph>
<glyph name="cdotaccent" format="1">
  <advance width="449"/>
  <unicode hex="010B"/>
  <outline>
    <contour>
      <point x="129" y="230" type="curve" smooth="yes"/>
      <point x="102" y="156"/>
      <point x="125" y="69"/>
      <point x="215" y="66" type="curve" smooth="yes"/>
      <point x="285" y="64"/>
      <point x="348" y="103"/>
      <point x="399" y="147" type="curve"/>
      <point x="368" y="48" type="line"/>
      <point x="318" y="14"/>
      <point x="262" y="-9"/>
      <point x="200" y="-9" type="curve" smooth="yes"/>
      <point x="67" y="-8"/>
      <point x="14" y="114"/>
      <point x="51" y="230" type="curve" smooth="yes"/>
      <point x="91" y="357"/>
      <point x="216" y="468"/>
      <point x="353" y="469" type="curve" smooth="yes"/>
      <point x="408" y="469"/>
      <point x="452" y="450"/>
      <point x="489" y="410" type="curve"/>
      <point x="457" y="311" type="line"/>
      <point x="438" y="366"/>
      <point x="398" y="395"/>
      <point x="339" y="394" type="curve" smooth="yes"/>
      <point x="246" y="393"/>
      <point x="160" y="314"/>
    </contour>
    <contour>
      <point x="345" y="587" type="curve" smooth="yes"/>
      <point x="351" y="611"/>
      <point x="389" y="642"/>
      <point x="414" y="639" type="curve" smooth="yes"/>
      <point x="441" y="636"/>
      <point x="456" y="609"/>
      <point x="450" y="583" type="curve" smooth="yes"/>
      <point x="444" y="559"/>
      <point x="406" y="528"/>
      <point x="381" y="531" type="curve" smooth="yes"/>
      <point x="354" y="534"/>
      <point x="339" y="561"/>
    </contour>
  </outline>
</glyph>
<glyph name="Ccaron" format="1">
  <advance width="644"/>
  <unicode hex="010C"/>
  <outline>
    <contour>
      <point x="189" y="350" type="curve" smooth="yes"/>
      <point x="146" y="229"/>
      <point x="182" y="79"/>
      <point x="332" y="76" type="curve" smooth="yes"/>
      <point x="426" y="74"/>
      <point x="512" y="123"/>
      <point x="585" y="177" type="curve"/>
      <point x="550" y="66" type="line"/>
      <point x="479" y="20"/>
      <point x="401" y="-11"/>
      <point x="315" y="-10" type="curve" smooth="yes"/>
      <point x="118" y="-8"/>
      <point x="46" y="182"/>
      <point x="101" y="350" type="curve" smooth="yes"/>
      <point x="162" y="537"/>
      <point x="345" y="708"/>
      <point x="549" y="710" type="curve" smooth="yes"/>
      <point x="625" y="711"/>
      <point x="687" y="686"/>
      <point x="741" y="632" type="curve"/>
      <point x="705" y="521" type="line"/>
      <point x="668" y="589"/>
      <point x="610" y="624"/>
      <point x="532" y="624" type="curve" smooth="yes"/>
      <point x="378" y="623"/>
      <point x="239" y="489"/>
    </contour>
    <contour>
      <point x="599" y="856" type="line"/>
      <point x="737" y="949" type="line"/>
      <point x="775" y="907" type="line"/>
      <point x="579" y="770" type="line"/>
      <point x="471" y="912" type="line"/>
      <point x="529" y="949" type="line"/>
    </contour>
  </outline>
</glyph>
<glyph name="ccaron" format="1">
  <advance width="449"/>
  <unicode hex="010D"/>
  <outline>
    <contour>
      <point x="129" y="230" type="curve" smooth="yes"/>
      <point x="102" y="156"/>
      <point x="125" y="69"/>
      <point x="215" y="66" type="curve" smooth="yes"/>
      <point x="285" y="64"/>
      <point x="348" y="103"/>
      <point x="399" y="147" type="curve"/>
      <point x="368" y="48" type="line"/>
      <point x="318" y="14"/>
      <point x="262" y="-9"/>
      <point x="200" y="-9" type="curve" smooth="yes"/>
      <point x="67" y="-8"/>
      <point x="14" y="114"/>
      <point x="51" y="230" type="curve" smooth="yes"/>
      <point x="91" y="357"/>
      <point x="216" y="468"/>
      <point x="353" y="469" type="curve" smooth="yes"/>
      <point x="408" y="469"/>
      <point x="452" y="450"/>
      <point x="489" y="410" type="curve"/>
      <point x="457" y="311" type="line"/>
      <point x="438" y="366"/>
      <point x="398" y="395"/>
      <point x="339" y="394" type="curve" smooth="yes"/>
      <point x="246" y="393"/>
      <point x="160" y="314"/>
    </contour>
    <contour>
      <point x="403" y="616" type="line"/>
      <point x="540" y="709" type="line"/>
      <point x="579" y="667" type="line"/>
      <point x="383" y="530" type="line"/>
      <point x="274" y="672" type="line"/>
      <point x="332" y="709" type="line"/>
    </contour>
  </outline>
</glyph>
<glyph name="Dcaron" format="1">
  <advance width="680"/>
  <unicode hex="010E"/>
  <outline>
    <contour>
      <point x="235" y="615" type="line"/>
      <point x="250" y="700" type="line"/>
      <point x="413" y="700" type="line" smooth="yes"/>
      <point x="617" y="700"/>
      <point x="739" y="559"/>
      <point x="702" y="350" type="curve"/>
      <point x="617" y="350" type="line"/>
      <point x="646" y="513"/>
      <point x="556" y="615"/>
      <point x="398" y="615" type="curve" smooth="yes"/>
    </contour>
    <contour>
      <point x="290" y="0" type="curve" smooth="yes"/>
      <point x="127" y="0" type="line"/>
      <point x="142" y="85" type="line"/>
      <point x="305" y="85" type="line" smooth="yes"/>
      <point x="463" y="85"/>
      <point x="588" y="187"/>
      <point x="617" y="350" type="curve"/>
      <point x="702" y="350" type="line"/>
      <point x="665" y="141"/>
      <point x="494" y="0"/>
    </contour>
    <contour>
      <point x="203" y="700" type="line"/>
      <point x="288" y="700" type="line"/>
      <point x="165" y="0" type="line"/>
      <point x="80" y="0" type="line"/>
    </contour>
    <contour>
      <point x="451" y="855" type="line"/>
      <point x="578" y="950" type="line"/>
      <point x="620" y="910" type="line"/>
      <point x="436" y="770" type="line"/>
      <point x="300" y="910" type="line"/>
      <point x="358" y="950" type="line"/>
    </contour>
  </outline>
</glyph>
<glyph name="Ebreve" format="1">
  <advance width="550"/>
  <unicode hex="0114"/>
  <outline>
    <contour>
      <point x="127" y="0" type="line"/>
      <point x="141" y="80" type="line"/>
      <point x="494" y="80" type="line"/>
      <point x="480" y="0" type="line"/>
    </contour>
    <contour>
      <point x="236" y="620" type="line"/>
      <point x="250" y="700" type="line"/>
      <point x="603" y="700" type="line"/>
      <point x="589" y="620" type="line"/>
    </contour>
    <contour>
      <point x="187" y="340" type="line"/>
      <point x="201" y="420" type="line"/>
      <point x="534" y="420" type="line"/>
      <point x="520" y="340" type="line"/>
    </contour>
    <contour>
      <point x="203" y="700" type="line"/>
      <point x="288" y="700" type="line"/>
      <point x="165" y="0" type="line"/>
      <point x="80" y="0" type="line"/>
    </contour>
    <contour>
      <point x="282" y="910" type="curve"/>
      <point x="353" y="910" type="line"/>
      <point x="348" y="884"/>
      <point x="357" y="835"/>
      <point x="427" y="835" type="curve" smooth="yes"/>
      <point x="497" y="835"/>
      <point x="522" y="884"/>
      <point x="527" y="910" type="curve"/>
      <point x="598" y="910" type="line"/>
      <point x="586" y="841"/>
      <point x="521" y="770"/>
      <point x="416" y="770" type="curve" smooth="yes"/>
      <point x="311" y="770"/>
      <point x="270" y="841"/>
    </contour>
  </outline>
</glyph>
<glyph name="Edotaccent" format="1">
  <advance width="550"/>
  <unicode hex="0116"/>
  <outline>
    <contour>
      <point x="127" y="0" type="line"/>
      <point x="141" y="80" type="line"/>
      <point x="494" y="80" type="line"/>
      <point x="480" y="0" type="line"/>
    </contour>
    <contour>
      <point x="236" y="620" type="line"/>
      <point x="250" y="700" type="line"/>
      <point x="603" y="700" type="line"/>
      <point x="589" y="620" type="line"/>
    </contour>
    <contour>
      <point x="187" y="340" type="line"/>
      <point x="201" y="420" type="line"/>
      <point x="534" y="420" type="line"/>
      <point x="520" y="340" type="line"/>
    </contour>
    <contour>
      <point x="203" y="700" type="line"/>
      <point x="288" y="700" type="line"/>
      <point x="165" y="0" type="line"/>
      <point x="80" y="0" type="line"/>
    </contour>
    <contour>
      <point x="370" y="825" type="curve" smooth="yes"/>
      <point x="375" y="855"/>
      <point x="405" y="880"/>
      <point x="435" y="880" type="curve" smooth="yes"/>
      <point x="465" y="880"/>
      <point x="485" y="855"/>
      <point x="480" y="825" type="curve" smooth="yes"/>
      <point x="475" y="795"/>
      <point x="446" y="770"/>
      <point x="416" y="770" type="curve" smooth="yes"/>
      <point x="386" y="770"/>
      <point x="365" y="795"/>
    </contour>
  </outline>
</glyph>
<glyph name="Eogonek" format="1">
  <advance width="517"/>
  <unicode hex="0118"/>
  <outline>
    <contour>
      <point x="66" y="0" type="line"/>
      <point x="92" y="80" type="line"/>
      <point x="428" y="80" type="line"/>
      <point x="401" y="0" type="line"/>
    </contour>
    <contour>
      <point x="278" y="621" type="line"/>
      <point x="304" y="700" type="line"/>
      <point x="639" y="700" type="line"/>
      <point x="612" y="620" type="line"/>
    </contour>
    <contour>
      <point x="182" y="341" type="line"/>
      <point x="209" y="420" type="line"/>
      <point x="525" y="420" type="line"/>
      <point x="498" y="340" type="line"/>
    </contour>
    <contour>
      <point x="257" y="699" type="line"/>
      <point x="343" y="700" type="line"/>
      <point x="101" y="0" type="line"/>
      <point x="22" y="0" type="line"/>
    </contour>
    <contour>
      <point x="243" y="-130" type="curve"/>
      <point x="259" y="-183" type="line"/>
      <point x="230" y="-202"/>
      <point x="201" y="-218"/>
      <point x="166" y="-219" type="curve" smooth="yes"/>
      <point x="106" y="-221"/>
      <point x="61" y="-181"/>
      <point x="79" y="-119" type="curve" smooth="yes"/>
      <point x="101" y="-46"/>
      <point x="187" y="-6"/>
      <point x="250" y="24" type="curve"/>
      <point x="286" y="0" type="line"/>
      <point x="245" y="-23"/>
      <point x="177" y="-49"/>
      <point x="163" y="-100" type="curve" smooth="yes"/>
      <point x="157" y="-122"/>
      <point x="163" y="-145"/>
      <point x="188" y="-149" type="curve" smooth="yes"/>
      <point x="206" y="-152"/>
      <point x="228" y="-138"/>
    </contour>
  </outline>
</glyph>
<glyph name="Gbreve" format="1">
  <advance width="729"/>
  <unicode hex="011E"/>
  <outline>
    <contour>
      <point x="418" y="275" type="line"/>
      <point x="447" y="355" type="line"/>
      <point x="753" y="354" type="line"/>
      <point x="686" y="171"/>
      <point x="530" y="-10"/>
      <point x="320" y="-10" type="curve" smooth="yes"/>
      <point x="120" y="-10"/>
      <point x="45" y="179"/>
      <point x="101" y="350" type="curve" smooth="yes"/>
      <point x="163" y="540"/>
      <point x="347" y="709"/>
      <point x="554" y="710" type="curve" smooth="yes"/>
      <point x="662" y="711"/>
      <point x="744" y="659"/>
      <point x="784" y="559" type="curve"/>
      <point x="711" y="507" type="line"/>
      <point x="683" y="586"/>
      <point x="621" y="625"/>
      <point x="537" y="624" type="curve" smooth="yes"/>
      <point x="380" y="623"/>
      <point x="240" y="492"/>
      <point x="189" y="350" type="curve" smooth="yes"/>
      <point x="145" y="226"/>
      <point x="184" y="77"/>
      <point x="337" y="76" type="curve" smooth="yes"/>
      <point x="470" y="75"/>
      <point x="571" y="173"/>
      <point x="641" y="275" type="curve"/>
    </contour>
    <contour>
      <point x="478" y="910" type="curve"/>
      <point x="545" y="909" type="line"/>
      <point x="542" y="869"/>
      <point x="550" y="837"/>
      <point x="597" y="836" type="curve" smooth="yes"/>
      <point x="648" y="835"/>
      <point x="681" y="871"/>
      <point x="708" y="909" type="curve"/>
      <point x="778" y="908" type="line"/>
      <point x="740" y="832"/>
      <point x="674" y="771"/>
      <point x="585" y="771" type="curve" smooth="yes"/>
      <point x="498" y="771"/>
      <point x="467" y="832"/>
    </contour>
  </outline>
</glyph>
<glyph name="uni0122" format="1">
  <advance width="729"/>
  <unicode hex="0122"/>
  <outline>
    <contour>
      <point x="418" y="275" type="line"/>
      <point x="447" y="355" type="line"/>
      <point x="753" y="354" type="line"/>
      <point x="686" y="171"/>
      <point x="530" y="-10"/>
      <point x="320" y="-10" type="curve" smooth="yes"/>
      <point x="120" y="-10"/>
      <point x="45" y="179"/>
      <point x="101" y="350" type="curve" smooth="yes"/>
      <point x="163" y="540"/>
      <point x="347" y="709"/>
      <point x="554" y="710" type="curve" smooth="yes"/>
      <point x="662" y="711"/>
      <point x="744" y="659"/>
      <point x="784" y="559" type="curve"/>
      <point x="711" y="507" type="line"/>
      <point x="683" y="586"/>
      <point x="621" y="625"/>
      <point x="537" y="624" type="curve" smooth="yes"/>
      <point x="380" y="623"/>
      <point x="240" y="492"/>
      <point x="189" y="350" type="curve" smooth="yes"/>
      <point x="145" y="226"/>
      <point x="184" y="77"/>
      <point x="337" y="76" type="curve" smooth="yes"/>
      <point x="470" y="75"/>
      <point x="571" y="173"/>
      <point x="641" y="275" type="curve"/>
    </contour>
    <contour>
      <point x="293" y="-72" type="line"/>
      <point x="366" y="-104" type="line"/>
      <point x="176" y="-348" type="line"/>
      <point x="124" y="-327" type="line"/>
    </contour>
  </outline>
</glyph>
<glyph name="Hcircumflex" format="1">
  <advance width="672"/>
  <unicode hex="0124"/>
  <outline>
    <contour>
      <point x="182" y="341" type="line"/>
      <point x="208" y="420" type="line"/>
      <point x="663" y="420" type="line"/>
      <point x="636" y="340" type="line"/>
    </contour>
    <contour>
      <point x="699" y="699" type="line"/>
      <point x="786" y="700" type="line"/>
      <point x="543" y="0" type="line"/>
      <point x="464" y="0" type="line"/>
    </contour>
    <contour>
      <point x="257" y="699" type="line"/>
      <point x="343" y="700" type="line"/>
      <point x="101" y="0" type="line"/>
      <point x="22" y="0" type="line"/>
    </contour>
    <contour>
      <point x="583" y="864" type="line"/>
      <point x="446" y="771" type="line"/>
      <point x="407" y="813" type="line"/>
      <point x="603" y="950" type="line"/>
      <point x="711" y="808" type="line"/>
      <point x="654" y="771" type="line"/>
    </contour>
  </outline>
</glyph>
<glyph name="Hbar" format="1">
  <advance width="672"/>
  <unicode hex="0126"/>
  <outline>
    <contour>
      <point x="183" y="341" type="line"/>
      <point x="208" y="420" type="line"/>
      <point x="665" y="420" type="line"/>
      <point x="638" y="341" type="line"/>
    </contour>
    <contour>
      <point x="697" y="699" type="line"/>
      <point x="787" y="700" type="line"/>
      <point x="544" y="0" type="line"/>
      <point x="464" y="0" type="line"/>
    </contour>
    <contour>
      <point x="255" y="699" type="line"/>
      <point x="345" y="700" type="line"/>
      <point x="101" y="0" type="line"/>
      <point x="22" y="0" type="line"/>
    </contour>
    <contour>
      <point x="136" y="541" type="line"/>
      <point x="160" y="615" type="line"/>
      <point x="828" y="615" type="line"/>
      <point x="804" y="541" type="line"/>
    </contour>
  </outline>
</glyph>
<glyph name="hbar" format="1">
  <advance width="493"/>
  <unicode hex="0127"/>
  <outline>
    <contour>
      <point x="362" y="780" type="line"/>
      <point x="93" y="0" type="line"/>
      <point x="12" y="0" type="line"/>
      <point x="281" y="780" type="line"/>
    </contour>
    <contour>
      <point x="390" y="280" type="line" smooth="yes"/>
      <point x="405" y="328"/>
      <point x="411" y="390"/>
      <point x="345" y="393" type="curve" smooth="yes"/>
      <point x="274" y="397"/>
      <point x="222" y="337"/>
      <point x="190" y="282" type="curve"/>
      <point x="161" y="283" type="line"/>
      <point x="198" y="371"/>
      <point x="267" y="468"/>
      <point x="373" y="469" type="curve" smooth="yes"/>
      <point x="478" y="470"/>
      <point x="494" y="373"/>
      <point x="470" y="290" type="curve"/>
      <point x="369" y="0" type="line"/>
      <point x="295" y="0" type="line"/>
    </contour>
    <contour>
      <point x="165" y="626" type="line"/>
      <point x="189" y="700" type="line"/>
      <point x="487" y="700" type="line"/>
      <point x="463" y="626" type="line"/>
    </contour>
  </outline>
</glyph>
<glyph name="Itilde" format="1">
  <advance width="245"/>
  <unicode hex="0128"/>
  <outline>
    <contour>
      <point x="203" y="700" type="line"/>
      <point x="288" y="700" type="line"/>
      <point x="165" y="0" type="line"/>
      <point x="80" y="0" type="line"/>
    </contour>
    <contour>
      <point x="100" y="807" type="line"/>
      <point x="119" y="856"/>
      <point x="174" y="889"/>
      <point x="219" y="889" type="curve" smooth="yes"/>
      <point x="284" y="889"/>
      <point x="280" y="842"/>
      <point x="334" y="842" type="curve" smooth="yes"/>
      <point x="353" y="842"/>
      <point x="373" y="858"/>
      <point x="399" y="890" type="curve"/>
      <point x="437" y="847" type="line"/>
      <point x="414" y="810"/>
      <point x="368" y="774"/>
      <point x="318" y="774" type="curve" smooth="yes"/>
      <point x="263" y="774"/>
      <point x="251" y="821"/>
      <point x="206" y="821" type="curve" smooth="yes"/>
      <point x="165" y="821"/>
      <point x="150" y="785"/>
      <point x="147" y="770" type="curve"/>
    </contour>
  </outline>
</glyph>
<glyph name="Imacron" format="1">
  <advance width="245"/>
  <unicode hex="012A"/>
  <outline>
    <contour>
      <point x="203" y="700" type="line"/>
      <point x="288" y="700" type="line"/>
      <point x="165" y="0" type="line"/>
      <point x="80" y="0" type="line"/>
    </contour>
    <contour>
      <point x="84" y="770" type="line"/>
      <point x="97" y="845" type="line"/>
      <point x="447" y="845" type="line"/>
      <point x="434" y="770" type="line"/>
    </contour>
  </outline>
</glyph>
<glyph name="iogonek" format="1">
  <advance width="244"/>
  <unicode hex="012F"/>
  <outline>
    <contour>
      <point x="237" y="652" type="curve" smooth="yes"/>
      <point x="243" y="676"/>
      <point x="281" y="707"/>
      <point x="306" y="704" type="curve" smooth="yes"/>
      <point x="333" y="701"/>
      <point x="349" y="674"/>
      <point x="343" y="648" type="curve" smooth="yes"/>
      <point x="337" y="624"/>
      <point x="299" y="593"/>
      <point x="274" y="596" type="curve" smooth="yes"/>
      <point x="247" y="599"/>
      <point x="231" y="626"/>
    </contour>
    <contour>
      <point x="184" y="459" type="line"/>
      <point x="266" y="460" type="line"/>
      <point x="105" y="0" type="line"/>
      <point x="31" y="0" type="line"/>
    </contour>
    <contour>
      <point x="64" y="-130" type="curve"/>
      <point x="81" y="-183" type="line"/>
      <point x="52" y="-202"/>
      <point x="23" y="-218"/>
      <point x="-12" y="-219" type="curve" smooth="yes"/>
      <point x="-72" y="-221"/>
      <point x="-118" y="-181"/>
      <point x="-100" y="-119" type="curve" smooth="yes"/>
      <point x="-78" y="-46"/>
      <point x="9" y="-6"/>
      <point x="72" y="24" type="curve"/>
      <point x="107" y="0" type="line"/>
      <point x="66" y="-23"/>
      <point x="-2" y="-49"/>
      <point x="-16" y="-100" type="curve" smooth="yes"/>
      <point x="-22" y="-122"/>
      <point x="-16" y="-145"/>
      <point x="9" y="-149" type="curve" smooth="yes"/>
      <point x="27" y="-152"/>
      <point x="49" y="-138"/>
    </contour>
  </outline>
</glyph>
<glyph name="Idotaccent" format="1">
  <advance width="230"/>
  <unicode hex="0130"/>
  <outline>
    <contour>
      <point x="257" y="699" type="line"/>
      <point x="343" y="700" type="line"/>
      <point x="101" y="0" type="line"/>
      <point x="22" y="0" type="line"/>
    </contour>
    <contour>
      <point x="289" y="827" type="curve" smooth="yes"/>
      <point x="295" y="851"/>
      <point x="334" y="882"/>
      <point x="359" y="879" type="curve" smooth="yes"/>
      <point x="386" y="876"/>
      <point x="401" y="849"/>
      <point x="395" y="823" type="curve" smooth="yes"/>
      <point x="389" y="799"/>
      <point x="351" y="768"/>
      <point x="326" y="771" type="curve" smooth="yes"/>
      <point x="299" y="774"/>
      <point x="283" y="801"/>
    </contour>
  </outline>
</glyph>
<glyph name="dotlessi" format="1">
  <advance width="244"/>
  <unicode hex="0131"/>
  <outline>
    <contour>
      <point x="184" y="459" type="line"/>
      <point x="266" y="460" type="line"/>
      <point x="105" y="0" type="line"/>
      <point x="31" y="0" type="line"/>
    </contour>
  </outline>
</glyph>
<glyph name="ij" format="1">
  <advance width="479"/>
  <unicode hex="0133"/>
  <outline>
    <contour>
      <point x="472" y="652" type="curve" smooth="yes"/>
      <point x="478" y="676"/>
      <point x="517" y="707"/>
      <point x="542" y="704" type="curve" smooth="yes"/>
      <point x="569" y="701"/>
      <point x="584" y="674"/>
      <point x="578" y="648" type="curve" smooth="yes"/>
      <point x="572" y="624"/>
      <point x="534" y="593"/>
      <point x="509" y="596" type="curve" smooth="yes"/>
      <point x="482" y="599"/>
      <point x="466" y="626"/>
    </contour>
    <contour>
      <point x="131" y="-115" type="line"/>
      <point x="140" y="-115"/>
      <point x="156" y="-140"/>
      <point x="168" y="-141" type="curve" smooth="yes"/>
      <point x="210" y="-145"/>
      <point x="235" y="-80"/>
      <point x="246" y="-50" type="curve" smooth="yes"/>
      <point x="422" y="460" type="line"/>
      <point x="501" y="460" type="line"/>
      <point x="323" y="-61" type="line" smooth="yes"/>
      <point x="295" y="-137"/>
      <point x="237" y="-223"/>
      <point x="145" y="-219" type="curve" smooth="yes"/>
      <point x="111" y="-218"/>
      <point x="92" y="-201"/>
      <point x="70" y="-177" type="curve"/>
    </contour>
    <contour>
      <point x="237" y="652" type="curve" smooth="yes"/>
      <point x="243" y="676"/>
      <point x="281" y="707"/>
      <point x="306" y="704" type="curve" smooth="yes"/>
      <point x="333" y="701"/>
      <point x="349" y="674"/>
      <point x="343" y="648" type="curve" smooth="yes"/>
      <point x="337" y="624"/>
      <point x="299" y="593"/>
      <point x="274" y="596" type="curve" smooth="yes"/>
      <point x="247" y="599"/>
      <point x="231" y="626"/>
    </contour>
    <contour>
      <point x="184" y="459" type="line"/>
      <point x="266" y="460" type="line"/>
      <point x="105" y="0" type="line"/>
      <point x="31" y="0" type="line"/>
    </contour>
  </outline>
</glyph>
<glyph name="Jcircumflex" format="1">
  <advance width="225"/>
  <unicode hex="0134"/>
  <outline>
    <contour>
      <point x="-157" y="-105" type="line"/>
      <point x="-141" y="-126"/>
      <point x="-125" y="-142"/>
      <point x="-96" y="-140" type="curve" smooth="yes"/>
      <point x="-48" y="-136"/>
      <point x="-15" y="-90"/>
      <point x="2" y="-50" type="curve"/>
      <point x="259" y="700" type="line"/>
      <point x="338" y="700" type="line"/>
      <point x="79" y="-61" type="line" smooth="yes"/>
      <point x="47" y="-145"/>
      <point x="-22" y="-221"/>
      <point x="-118" y="-219" type="curve" smooth="yes"/>
      <point x="-161" y="-218"/>
      <point x="-190" y="-199"/>
      <point x="-218" y="-168" type="curve"/>
    </contour>
    <contour>
      <point x="359" y="864" type="line"/>
      <point x="222" y="771" type="line"/>
      <point x="183" y="813" type="line"/>
      <point x="379" y="950" type="line"/>
      <point x="487" y="808" type="line"/>
      <point x="430" y="771" type="line"/>
    </contour>
  </outline>
</glyph>
<glyph name="jcircumflex" format="1">
  <advance width="250"/>
  <unicode hex="0135"/>
  <outline>
    <contour>
      <point x="-37" y="-114" type="line"/>
      <point x="-27" y="-137"/>
      <point x="-9" y="-140"/>
      <point x="7" y="-140" type="curve" smooth="yes"/>
      <point x="37" y="-140"/>
      <point x="59" y="-116"/>
      <point x="71" y="-50" type="curve" smooth="yes"/>
      <point x="161" y="460" type="line"/>
      <point x="241" y="460" type="line"/>
      <point x="149" y="-60" type="line" smooth="yes"/>
      <point x="130" y="-169"/>
      <point x="72" y="-220"/>
      <point x="-12" y="-220" type="curve" smooth="yes"/>
      <point x="-55" y="-220"/>
      <point x="-82" y="-200"/>
      <point x="-93" y="-180" type="curve"/>
    </contour>
    <contour>
      <point x="230" y="625" type="line"/>
      <point x="103" y="530" type="line"/>
      <point x="61" y="570" type="line"/>
      <point x="245" y="710" type="line"/>
      <point x="381" y="570" type="line"/>
      <point x="323" y="530" type="line"/>
    </contour>
  </outline>
</glyph>
<glyph name="uni0136" format="1">
  <advance width="565"/>
  <unicode hex="0136"/>
  <outline>
    <contour>
      <point x="203" y="700" type="line"/>
      <point x="288" y="700" type="line"/>
      <point x="165" y="0" type="line"/>
      <point x="80" y="0" type="line"/>
    </contour>
    <contour>
      <point x="563" y="700" type="line"/>
      <point x="668" y="700" type="line"/>
      <point x="308" y="372" type="line"/>
      <point x="560" y="0" type="line"/>
      <point x="455" y="0" type="line"/>
      <point x="204" y="370" type="line"/>
    </contour>
    <contour>
      <point x="313" y="-60" type="line"/>
      <point x="388" y="-90" type="line"/>
      <point x="234" y="-340" type="line"/>
      <point x="180" y="-319" type="line"/>
    </contour>
  </outline>
</glyph>
<glyph name="kgreenlandic" format="1">
  <advance width="413"/>
  <unicode hex="0138"/>
  <outline>
    <contour>
      <point x="166" y="459" type="line"/>
      <point x="247" y="460" type="line"/>
      <point x="87" y="0" type="line"/>
      <point x="12" y="0" type="line"/>
    </contour>
    <contour>
      <point x="399" y="459" type="line"/>
      <point x="504" y="459" type="line"/>
      <point x="244" y="266" type="line"/>
      <point x="357" y="0" type="line"/>
      <point x="268" y="0" type="line"/>
      <point x="151" y="275" type="line"/>
    </contour>
  </outline>
</glyph>
<glyph name="Lacute" format="1">
  <advance width="450"/>
  <unicode hex="0139"/>
  <outline>
    <contour>
      <point x="127" y="0" type="line"/>
      <point x="141" y="80" type="line"/>
      <point x="454" y="80" type="line"/>
      <point x="440" y="0" type="line"/>
    </contour>
    <contour>
      <point x="203" y="700" type="line"/>
      <point x="288" y="700" type="line"/>
      <point x="165" y="0" type="line"/>
      <point x="80" y="0" type="line"/>
    </contour>
    <contour>
      <point x="552" y="920" type="line"/>
      <point x="346" y="770" type="line"/>
      <point x="306" y="800" type="line"/>
      <point x="484" y="960" type="line"/>
    </contour>
  </outline>
</glyph>
<glyph name="uni013B" format="1">
  <advance width="423"/>
  <unicode hex="013B"/>
  <outline>
    <contour>
      <point x="259" y="700" type="line"/>
      <point x="343" y="700" type="line"/>
      <point x="130" y="80" type="line"/>
      <point x="389" y="80" type="line"/>
      <point x="361" y="0" type="line"/>
      <point x="19" y="0" type="line"/>
    </contour>
    <contour>
      <point x="170" y="-62" type="line"/>
      <point x="242" y="-94" type="line"/>
      <point x="53" y="-338" type="line"/>
      <point x="0" y="-317" type="line"/>
    </contour>
  </outline>
</glyph>
<glyph name="uni013C" format="1">
  <advance width="216"/>
  <unicode hex="013C"/>
  <outline>
    <contour>
      <point x="280" y="779" type="line"/>
      <point x="361" y="780" type="line"/>
      <point x="91" y="0" type="line"/>
      <point x="17" y="0" type="line"/>
    </contour>
    <contour>
      <point x="33" y="-62" type="line"/>
      <point x="106" y="-94" type="line"/>
      <point x="-84" y="-338" type="line"/>
      <point x="-136" y="-317" type="line"/>
    </contour>
  </outline>
</glyph>
<glyph name="lcaron" format="1">
  <advance width="216"/>
  <unicode hex="013E"/>
  <outline>
    <contour>
      <point x="280" y="779" type="line"/>
      <point x="361" y="780" type="line"/>
      <point x="91" y="0" type="line"/>
      <point x="17" y="0" type="line"/>
    </contour>
    <contour>
      <point x="484" y="778" type="line"/>
      <point x="556" y="746" type="line"/>
      <point x="367" y="502" type="line"/>
      <point x="314" y="523" type="line"/>
    </contour>
  </outline>
</glyph>
<glyph name="Ldot" format="1">
  <advance width="423"/>
  <unicode hex="013F"/>
  <outline>
    <contour>
      <point x="259" y="700" type="line"/>
      <point x="343" y="700" type="line"/>
      <point x="130" y="80" type="line"/>
      <point x="389" y="80" type="line"/>
      <point x="361" y="0" type="line"/>
      <point x="19" y="0" type="line"/>
    </contour>
    <contour>
      <point x="326" y="417" type="curve" smooth="yes"/>
      <point x="332" y="441"/>
      <point x="370" y="472"/>
      <point x="395" y="469" type="curve" smooth="yes"/>
      <point x="422" y="466"/>
      <point x="438" y="439"/>
      <point x="432" y="413" type="curve" smooth="yes"/>
      <point x="426" y="389"/>
      <point x="388" y="358"/>
      <point x="363" y="361" type="curve" smooth="yes"/>
      <point x="336" y="364"/>
      <point x="320" y="391"/>
    </contour>
  </outline>
</glyph>
<glyph name="ldot" format="1">
  <advance width="348"/>
  <unicode hex="0140"/>
  <outline>
    <contour>
      <point x="280" y="779" type="line"/>
      <point x="361" y="780" type="line"/>
      <point x="91" y="0" type="line"/>
      <point x="17" y="0" type="line"/>
    </contour>
    <contour>
      <point x="289" y="417" type="curve" smooth="yes"/>
      <point x="295" y="441"/>
      <point x="333" y="472"/>
      <point x="358" y="469" type="curve" smooth="yes"/>
      <point x="385" y="466"/>
      <point x="400" y="439"/>
      <point x="394" y="413" type="curve" smooth="yes"/>
      <point x="388" y="389"/>
      <point x="350" y="358"/>
      <point x="325" y="361" type="curve" smooth="yes"/>
      <point x="298" y="364"/>
      <point x="283" y="391"/>
    </contour>
  </outline>
</glyph>
<glyph name="Lslash" format="1">
  <advance width="423"/>
  <unicode hex="0141"/>
  <outline>
    <contour>
      <point x="68" y="341" type="line"/>
      <point x="66" y="397" type="line"/>
      <point x="377" y="564" type="line"/>
      <point x="380" y="508" type="line"/>
    </contour>
    <contour>
      <point x="259" y="700" type="line"/>
      <point x="343" y="700" type="line"/>
      <point x="130" y="80" type="line"/>
      <point x="389" y="80" type="line"/>
      <point x="361" y="0" type="line"/>
      <point x="19" y="0" type="line"/>
    </contour>
  </outline>
</glyph>
<glyph name="lslash" format="1">
  <advance width="216"/>
  <unicode hex="0142"/>
  <outline>
    <contour>
      <point x="68" y="341" type="line"/>
      <point x="66" y="397" type="line"/>
      <point x="352" y="544" type="line"/>
      <point x="354" y="488" type="line"/>
    </contour>
    <contour>
      <point x="280" y="779" type="line"/>
      <point x="361" y="780" type="line"/>
      <point x="91" y="0" type="line"/>
      <point x="17" y="0" type="line"/>
    </contour>
  </outline>
</glyph>
<glyph name="Nacute" format="1">
  <advance width="775"/>
  <unicode hex="0143"/>
  <outline>
    <contour>
      <point x="192" y="605" type="line"/>
      <point x="210" y="735" type="line"/>
      <point x="707" y="95" type="line"/>
      <point x="689" y="-35" type="line"/>
    </contour>
    <contour>
      <point x="733" y="700" type="line"/>
      <point x="818" y="700" type="line"/>
      <point x="689" y="-35" type="line"/>
      <point x="623" y="75" type="line"/>
    </contour>
    <contour>
      <point x="210" y="735" type="line"/>
      <point x="275" y="625" type="line"/>
      <point x="165" y="0" type="line"/>
      <point x="80" y="0" type="line"/>
    </contour>
    <contour>
      <point x="691" y="915" type="line"/>
      <point x="485" y="765" type="line"/>
      <point x="445" y="795" type="line"/>
      <point x="623" y="955" type="line"/>
    </contour>
  </outline>
</glyph>
<glyph name="nacute" format="1">
  <advance width="493"/>
  <unicode hex="0144"/>
  <outline>
    <contour>
      <point x="251" y="460" type="line"/>
      <point x="92" y="0" type="line"/>
      <point x="13" y="0" type="line"/>
      <point x="173" y="460" type="line"/>
    </contour>
    <contour>
      <point x="390" y="280" type="line" smooth="yes"/>
      <point x="405" y="329"/>
      <point x="409" y="391"/>
      <point x="342" y="394" type="curve" smooth="yes"/>
      <point x="271" y="397"/>
      <point x="220" y="337"/>
      <point x="188" y="282" type="curve"/>
      <point x="161" y="282" type="line"/>
      <point x="199" y="370"/>
      <point x="268" y="469"/>
      <point x="375" y="469" type="curve" smooth="yes"/>
      <point x="480" y="469"/>
      <point x="493" y="372"/>
      <point x="469" y="290" type="curve" smooth="yes"/>
      <point x="369" y="0" type="line"/>
      <point x="294" y="0" type="line"/>
    </contour>
    <contour>
      <point x="557" y="675" type="line"/>
      <point x="340" y="531" type="line"/>
      <point x="303" y="563" type="line"/>
      <point x="496" y="719" type="line"/>
    </contour>
  </outline>
</glyph>
<glyph name="Obreve" format="1">
  <advance width="743"/>
  <unicode hex="014E"/>
  <outline>
    <contour>
      <point x="189" y="350" type="curve" smooth="yes"/>
      <point x="145" y="226"/>
      <point x="184" y="78"/>
      <point x="337" y="76" type="curve" smooth="yes"/>
      <point x="494" y="74"/>
      <point x="635" y="210"/>
      <point x="685" y="350" type="curve" smooth="yes"/>
      <point x="729" y="474"/>
      <point x="690" y="622"/>
      <point x="537" y="624" type="curve" smooth="yes"/>
      <point x="380" y="626"/>
      <point x="239" y="490"/>
    </contour>
    <contour>
      <point x="101" y="350" type="curve" smooth="yes"/>
      <point x="162" y="538"/>
      <point x="349" y="711"/>
      <point x="554" y="710" type="curve" smooth="yes"/>
      <point x="753" y="709"/>
      <point x="828" y="521"/>
      <point x="773" y="350" type="curve" smooth="yes"/>
      <point x="712" y="162"/>
      <point x="525" y="-11"/>
      <point x="320" y="-10" type="curve" smooth="yes"/>
      <point x="121" y="-9"/>
      <point x="46" y="179"/>
    </contour>
    <contour>
      <point x="478" y="910" type="curve"/>
      <point x="545" y="909" type="line"/>
      <point x="542" y="869"/>
      <point x="550" y="837"/>
      <point x="597" y="836" type="curve" smooth="yes"/>
      <point x="648" y="835"/>
      <point x="681" y="871"/>
      <point x="708" y="909" type="curve"/>
      <point x="778" y="908" type="line"/>
      <point x="740" y="833"/>
      <point x="674" y="771"/>
      <point x="585" y="771" type="curve" smooth="yes"/>
      <point x="498" y="771"/>
      <point x="467" y="832"/>
    </contour>
  </outline>
</glyph>
<glyph name="obreve" format="1">
  <advance width="513"/>
  <unicode hex="014F"/>
  <outline>
    <contour>
      <point x="55" y="230" type="curve" smooth="yes"/>
      <point x="95" y="355"/>
      <point x="221" y="469"/>
      <point x="357" y="469" type="curve" smooth="yes"/>
      <point x="490" y="469"/>
      <point x="544" y="346"/>
      <point x="507" y="230" type="curve" smooth="yes"/>
      <point x="467" y="105"/>
      <point x="341" y="-9"/>
      <point x="205" y="-9" type="curve" smooth="yes"/>
      <point x="72" y="-9"/>
      <point x="18" y="114"/>
    </contour>
    <contour>
      <point x="134" y="230" type="curve" smooth="yes"/>
      <point x="107" y="157"/>
      <point x="128" y="67"/>
      <point x="219" y="66" type="curve" smooth="yes"/>
      <point x="312" y="65"/>
      <point x="398" y="147"/>
      <point x="428" y="230" type="curve" smooth="yes"/>
      <point x="455" y="303"/>
      <point x="434" y="393"/>
      <point x="343" y="394" type="curve" smooth="yes"/>
      <point x="250" y="395"/>
      <point x="164" y="313"/>
    </contour>
    <contour>
      <point x="281" y="670" type="curve"/>
      <point x="348" y="669" type="line"/>
      <point x="345" y="629"/>
      <point x="353" y="597"/>
      <point x="400" y="596" type="curve" smooth="yes"/>
      <point x="451" y="595"/>
      <point x="484" y="631"/>
      <point x="511" y="669" type="curve"/>
      <point x="581" y="668" type="line"/>
      <point x="543" y="593"/>
      <point x="478" y="531"/>
      <point x="389" y="531" type="curve" smooth="yes"/>
      <point x="302" y="531"/>
      <point x="270" y="592"/>
    </contour>
  </outline>
</glyph>
<glyph name="oe" format="1">
  <advance width="900"/>
  <unicode hex="0153"/>
  <outline>
    <contour>
      <point x="824" y="250" type="line" smooth="yes"/>
      <point x="839" y="336"/>
      <point x="809" y="400"/>
      <point x="719" y="400" type="curve" smooth="yes"/>
      <point x="639" y="400"/>
      <point x="564" y="346"/>
      <point x="549" y="260" type="curve"/>
      <point x="542" y="230" type="line"/>
      <point x="523" y="124"/>
      <point x="569" y="65"/>
      <point x="659" y="65" type="curve" smooth="yes"/>
      <point x="726" y="65"/>
      <point x="778" y="98"/>
      <point x="818" y="148" type="curve"/>
      <point x="876" y="107" type="line"/>
      <point x="818" y="37"/>
      <point x="745" y="-10"/>
      <point x="646" y="-10" type="curve" smooth="yes"/>
      <point x="521" y="-10"/>
      <point x="446" y="91"/>
      <point x="471" y="230" type="curve" smooth="yes"/>
      <point x="474" y="247"/>
      <point x="477" y="263"/>
      <point x="483" y="279" type="curve" smooth="yes"/>
      <point x="522" y="392"/>
      <point x="622" y="470"/>
      <point x="741" y="470" type="curve" smooth="yes"/>
      <point x="851" y="470"/>
      <point x="932" y="379"/>
      <point x="906" y="234" type="curve" smooth="yes"/>
      <point x="905" y="226"/>
      <point x="903" y="218"/>
      <point x="901" y="210" type="curve"/>
      <point x="821" y="230" type="line"/>
    </contour>
    <contour>
      <point x="518" y="210" type="line"/>
      <point x="530" y="278" type="line"/>
      <point x="893" y="278" type="line"/>
      <point x="901" y="210" type="line"/>
    </contour>
    <contour>
      <point x="76" y="230" type="curve" smooth="yes"/>
      <point x="102" y="379"/>
      <point x="221" y="470"/>
      <point x="346" y="470" type="curve" smooth="yes"/>
      <point x="471" y="470"/>
      <point x="533" y="379"/>
      <point x="507" y="230" type="curve" smooth="yes"/>
      <point x="481" y="81"/>
      <point x="386" y="-10"/>
      <point x="261" y="-10" type="curve" smooth="yes"/>
      <point x="136" y="-10"/>
      <point x="50" y="81"/>
    </contour>
    <contour>
      <point x="157" y="230" type="curve" smooth="yes"/>
      <point x="138" y="124"/>
      <point x="199" y="65"/>
      <point x="284" y="65" type="curve" smooth="yes"/>
      <point x="354" y="65"/>
      <point x="432" y="124"/>
      <point x="451" y="230" type="curve" smooth="yes"/>
      <point x="470" y="336"/>
      <point x="413" y="395"/>
      <point x="343" y="395" type="curve" smooth="yes"/>
      <point x="258" y="395"/>
      <point x="176" y="336"/>
    </contour>
  </outline>
</glyph>
<glyph name="Racute" format="1">
  <advance width="526"/>
  <unicode hex="0154"/>
  <outline>
    <contour>
      <point x="256" y="345" type="line"/>
      <point x="344" y="345" type="line"/>
      <point x="461" y="0" type="line"/>
      <point x="368" y="0" type="line"/>
    </contour>
    <contour>
      <point x="257" y="699" type="line"/>
      <point x="343" y="700" type="line"/>
      <point x="101" y="0" type="line"/>
      <point x="22" y="0" type="line"/>
    </contour>
    <contour>
      <point x="276" y="625" type="line"/>
      <point x="303" y="700" type="line"/>
      <point x="433" y="700" type="line" smooth="yes"/>
      <point x="552" y="695"/>
      <point x="631" y="609"/>
      <point x="593" y="489" type="curve" smooth="yes"/>
      <point x="554" y="364"/>
      <point x="428" y="285"/>
      <point x="301" y="280" type="curve" smooth="yes"/>
      <point x="158" y="280" type="line"/>
      <point x="185" y="355" type="line"/>
      <point x="315" y="355" type="line"/>
      <point x="399" y="360"/>
      <point x="480" y="409"/>
      <point x="510" y="490" type="curve" smooth="yes"/>
      <point x="538" y="566"/>
      <point x="496" y="619"/>
      <point x="419" y="624" type="curve"/>
    </contour>
    <contour>
      <point x="642" y="915" type="line"/>
      <point x="424" y="772" type="line"/>
      <point x="386" y="803" type="line"/>
      <point x="580" y="959" type="line"/>
    </contour>
  </outline>
</glyph>
<glyph name="uni0156" format="1">
  <advance width="526"/>
  <unicode hex="0156"/>
  <outline>
    <contour>
      <point x="256" y="345" type="line"/>
      <point x="344" y="345" type="line"/>
      <point x="461" y="0" type="line"/>
      <point x="368" y="0" type="line"/>
    </contour>
    <contour>
      <point x="257" y="699" type="line"/>
      <point x="343" y="700" type="line"/>
      <point x="101" y="0" type="line"/>
      <point x="22" y="0" type="line"/>
    </contour>
    <contour>
      <point x="276" y="625" type="line"/>
      <point x="303" y="700" type="line"/>
      <point x="433" y="700" type="line" smooth="yes"/>
      <point x="552" y="695"/>
      <point x="631" y="609"/>
      <point x="593" y="489" type="curve" smooth="yes"/>
      <point x="554" y="364"/>
      <point x="428" y="285"/>
      <point x="301" y="280" type="curve" smooth="yes"/>
      <point x="158" y="280" type="line"/>
      <point x="185" y="355" type="line"/>
      <point x="315" y="355" type="line"/>
      <point x="399" y="360"/>
      <point x="480" y="409"/>
      <point x="510" y="490" type="curve" smooth="yes"/>
      <point x="538" y="566"/>
      <point x="496" y="619"/>
      <point x="419" y="624" type="curve"/>
    </contour>
    <contour>
      <point x="221" y="-62" type="line"/>
      <point x="294" y="-94" type="line"/>
      <point x="105" y="-338" type="line"/>
      <point x="52" y="-317" type="line"/>
    </contour>
  </outline>
</glyph>
<glyph name="uni0157" format="1">
  <advance width="322"/>
  <unicode hex="0157"/>
  <outline>
    <contour>
      <point x="251" y="460" type="line"/>
      <point x="92" y="0" type="line"/>
      <point x="13" y="0" type="line"/>
      <point x="173" y="460" type="line"/>
    </contour>
    <contour>
      <point x="354" y="373" type="line"/>
      <point x="339" y="384"/>
      <point x="324" y="394"/>
      <point x="304" y="395" type="curve" smooth="yes"/>
      <point x="242" y="397"/>
      <point x="210" y="329"/>
      <point x="188" y="282" type="curve"/>
      <point x="151" y="282" type="line"/>
      <point x="184" y="358"/>
      <point x="243" y="467"/>
      <point x="339" y="469" type="curve" smooth="yes"/>
      <point x="371" y="470"/>
      <point x="392" y="455"/>
      <point x="415" y="435" type="curve"/>
    </contour>
    <contour>
      <point x="33" y="-62" type="line"/>
      <point x="106" y="-94" type="line"/>
      <point x="-84" y="-338" type="line"/>
      <point x="-136" y="-317" type="line"/>
    </contour>
  </outline>
</glyph>
<glyph name="Rcaron" format="1">
  <advance width="526"/>
  <unicode hex="0158"/>
  <outline>
    <contour>
      <point x="256" y="345" type="line"/>
      <point x="344" y="345" type="line"/>
      <point x="461" y="0" type="line"/>
      <point x="368" y="0" type="line"/>
    </contour>
    <contour>
      <point x="257" y="699" type="line"/>
      <point x="343" y="700" type="line"/>
      <point x="101" y="0" type="line"/>
      <point x="22" y="0" type="line"/>
    </contour>
    <contour>
      <point x="276" y="625" type="line"/>
      <point x="303" y="700" type="line"/>
      <point x="433" y="700" type="line" smooth="yes"/>
      <point x="552" y="695"/>
      <point x="631" y="609"/>
      <point x="593" y="489" type="curve" smooth="yes"/>
      <point x="554" y="364"/>
      <point x="428" y="285"/>
      <point x="301" y="280" type="curve" smooth="yes"/>
      <point x="158" y="280" type="line"/>
      <point x="185" y="355" type="line"/>
      <point x="315" y="355" type="line"/>
      <point x="399" y="360"/>
      <point x="480" y="409"/>
      <point x="510" y="490" type="curve" smooth="yes"/>
      <point x="538" y="566"/>
      <point x="496" y="619"/>
      <point x="419" y="624" type="curve"/>
    </contour>
    <contour>
      <point x="472" y="856" type="line"/>
      <point x="610" y="949" type="line"/>
      <point x="648" y="907" type="line"/>
      <point x="452" y="770" type="line"/>
      <point x="344" y="912" type="line"/>
      <point x="402" y="949" type="line"/>
    </contour>
  </outline>
</glyph>
<glyph name="rcaron" format="1">
  <advance width="322"/>
  <unicode hex="0159"/>
  <outline>
    <contour>
      <point x="251" y="460" type="line"/>
      <point x="92" y="0" type="line"/>
      <point x="13" y="0" type="line"/>
      <point x="173" y="460" type="line"/>
    </contour>
    <contour>
      <point x="354" y="373" type="line"/>
      <point x="339" y="384"/>
      <point x="324" y="394"/>
      <point x="304" y="395" type="curve" smooth="yes"/>
      <point x="242" y="397"/>
      <point x="210" y="329"/>
      <point x="188" y="282" type="curve"/>
      <point x="151" y="282" type="line"/>
      <point x="184" y="358"/>
      <point x="243" y="467"/>
      <point x="339" y="469" type="curve" smooth="yes"/>
      <point x="371" y="470"/>
      <point x="392" y="455"/>
      <point x="415" y="435" type="curve"/>
    </contour>
    <contour>
      <point x="344" y="616" type="line"/>
      <point x="482" y="709" type="line"/>
      <point x="520" y="667" type="line"/>
      <point x="324" y="530" type="line"/>
      <point x="216" y="672" type="line"/>
      <point x="274" y="709" type="line"/>
    </contour>
  </outline>
</glyph>
<glyph name="Scedilla" format="1">
  <advance width="548"/>
  <unicode hex="015E"/>
  <outline>
    <contour>
      <point x="152" y="226" type="line"/>
      <point x="177" y="130"/>
      <point x="220" y="70"/>
      <point x="307" y="70" type="curve" smooth="yes"/>
      <point x="387" y="70"/>
      <point x="435" y="113"/>
      <point x="447" y="183" type="curve" smooth="yes"/>
      <point x="463" y="273"/>
      <point x="386" y="309"/>
      <point x="311" y="338" type="curve" smooth="yes"/>
      <point x="245" y="363"/>
      <point x="148" y="416"/>
      <point x="169" y="535" type="curve" smooth="yes"/>
      <point x="188" y="641"/>
      <point x="289" y="710"/>
      <point x="403" y="710" type="curve" smooth="yes"/>
      <point x="516" y="710"/>
      <point x="578" y="631"/>
      <point x="593" y="560" type="curve"/>
      <point x="516" y="514" type="line"/>
      <point x="496" y="572"/>
      <point x="467" y="629"/>
      <point x="390" y="629" type="curve" smooth="yes"/>
      <point x="320" y="629"/>
      <point x="268" y="590"/>
      <point x="257" y="529" type="curve" smooth="yes"/>
      <point x="245" y="461"/>
      <point x="317" y="428"/>
      <point x="396" y="396" type="curve" smooth="yes"/>
      <point x="464" y="369"/>
      <point x="559" y="317"/>
      <point x="537" y="190" type="curve" smooth="yes"/>
      <point x="516" y="71"/>
      <point x="427" y="-10"/>
      <point x="288" y="-10" type="curve" smooth="yes"/>
      <point x="173" y="-10"/>
      <point x="96" y="68"/>
      <point x="72" y="183" type="curve"/>
    </contour>
    <contour>
      <point x="310" y="59" type="line"/>
      <point x="370" y="59" type="line"/>
      <point x="286" y="-55" type="line"/>
      <point x="195" y="-109" type="line"/>
    </contour>
    <contour>
      <point x="356" y="-127" type="curve"/>
      <point x="300" y="-127" type="line"/>
      <point x="304" y="-103"/>
      <point x="290" y="-91"/>
      <point x="256" y="-91" type="curve" smooth="yes"/>
      <point x="246" y="-91"/>
      <point x="221" y="-93"/>
      <point x="195" y="-109" type="curve"/>
      <point x="242" y="-69" type="line"/>
      <point x="271" y="-53"/>
      <point x="284" y="-53"/>
      <point x="297" y="-53" type="curve" smooth="yes"/>
      <point x="330" y="-53"/>
      <point x="365" y="-78"/>
    </contour>
    <contour>
      <point x="356" y="-127" type="line"/>
      <point x="345" y="-188"/>
      <point x="288" y="-221"/>
      <point x="233" y="-221" type="curve" smooth="yes"/>
      <point x="196" y="-221"/>
      <point x="173" y="-211"/>
      <point x="150" y="-183" type="curve"/>
      <point x="191" y="-143" type="line"/>
      <point x="207" y="-159"/>
      <point x="217" y="-167"/>
      <point x="243" y="-167" type="curve" smooth="yes"/>
      <point x="277" y="-167"/>
      <point x="296" y="-151"/>
      <point x="300" y="-127" type="curve"/>
    </contour>
  </outline>
</glyph>
<glyph name="Scaron" format="1">
  <advance width="515"/>
  <unicode hex="0160"/>
  <outline>
    <contour>
      <point x="126" y="226" type="line"/>
      <point x="134" y="155"/>
      <point x="153" y="72"/>
      <point x="241" y="71" type="curve" smooth="yes"/>
      <point x="310" y="70"/>
      <point x="374" y="119"/>
      <point x="398" y="183" type="curve" smooth="yes"/>
      <point x="428" y="264"/>
      <point x="366" y="306"/>
      <point x="302" y="338" type="curve" smooth="yes"/>
      <point x="223" y="378"/>
      <point x="168" y="444"/>
      <point x="197" y="536" type="curve" smooth="yes"/>
      <point x="229" y="638"/>
      <point x="339" y="710"/>
      <point x="444" y="709" type="curve" smooth="yes"/>
      <point x="537" y="708"/>
      <point x="588" y="643"/>
      <point x="603" y="558" type="curve"/>
      <point x="524" y="514" type="line"/>
      <point x="513" y="569"/>
      <point x="495" y="626"/>
      <point x="429" y="628" type="curve" smooth="yes"/>
      <point x="368" y="629"/>
      <point x="301" y="587"/>
      <point x="281" y="529" type="curve" smooth="yes"/>
      <point x="255" y="456"/>
      <point x="330" y="423"/>
      <point x="383" y="396" type="curve" smooth="yes"/>
      <point x="466" y="354"/>
      <point x="514" y="284"/>
      <point x="485" y="189" type="curve" smooth="yes"/>
      <point x="451" y="75"/>
      <point x="341" y="-10"/>
      <point x="221" y="-9" type="curve" smooth="yes"/>
      <point x="107" y="-8"/>
      <point x="58" y="84"/>
      <point x="45" y="185" type="curve"/>
    </contour>
    <contour>
      <point x="494" y="856" type="line"/>
      <point x="631" y="949" type="line"/>
      <point x="670" y="907" type="line"/>
      <point x="474" y="770" type="line"/>
      <point x="366" y="912" type="line"/>
      <point x="423" y="949" type="line"/>
    </contour>
  </outline>
</glyph>
<glyph name="Tcaron" format="1">
  <advance width="437"/>
  <unicode hex="0164"/>
  <outline>
    <contour>
      <point x="164" y="620" type="line"/>
      <point x="193" y="700" type="line"/>
      <point x="615" y="700" type="line"/>
      <point x="587" y="620" type="line"/>
      <point x="418" y="620" type="line"/>
      <point x="205" y="0" type="line"/>
      <point x="122" y="0" type="line"/>
      <point x="335" y="620" type="line"/>
    </contour>
    <contour>
      <point x="451" y="856" type="line"/>
      <point x="589" y="949" type="line"/>
      <point x="627" y="907" type="line"/>
      <point x="431" y="770" type="line"/>
      <point x="323" y="912" type="line"/>
      <point x="380" y="949" type="line"/>
    </contour>
  </outline>
</glyph>
<glyph name="umacron" format="1">
  <advance width="493"/>
  <unicode hex="016B"/>
  <outline>
    <contour>
      <point x="290" y="0" type="line"/>
      <point x="449" y="460" type="line"/>
      <point x="530" y="460" type="line"/>
      <point x="371" y="0" type="line"/>
    </contour>
    <contour>
      <point x="153" y="180" type="line" smooth="yes"/>
      <point x="138" y="132"/>
      <point x="132" y="70"/>
      <point x="198" y="67" type="curve" smooth="yes"/>
      <point x="269" y="63"/>
      <point x="320" y="123"/>
      <point x="352" y="178" type="curve"/>
      <point x="381" y="177" type="line"/>
      <point x="344" y="89"/>
      <point x="276" y="-8"/>
      <point x="170" y="-9" type="curve" smooth="yes"/>
      <point x="65" y="-10"/>
      <point x="49" y="87"/>
      <point x="73" y="170" type="curve"/>
      <point x="173" y="459" type="line"/>
      <point x="248" y="459" type="line"/>
    </contour>
    <contour>
      <point x="211" y="531" type="line"/>
      <point x="234" y="605" type="line"/>
      <point x="569" y="605" type="line"/>
      <point x="544" y="531" type="line"/>
    </contour>
  </outline>
</glyph>
<glyph name="Ubreve" format="1">
  <advance width="589"/>
  <unicode hex="016C"/>
  <outline>
    <contour>
      <point x="254" y="700" type="line"/>
      <point x="339" y="700" type="line"/>
      <point x="175" y="230" type="line" smooth="yes"/>
      <point x="152" y="156"/>
      <point x="162" y="73"/>
      <point x="256" y="71" type="curve" smooth="yes"/>
      <point x="352" y="68"/>
      <point x="426" y="147"/>
      <point x="459" y="230" type="curve" smooth="yes"/>
      <point x="621" y="700" type="line"/>
      <point x="707" y="700" type="line"/>
      <point x="547" y="230" type="line" smooth="yes"/>
      <point x="501" y="104"/>
      <point x="388" y="-9"/>
      <point x="246" y="-9" type="curve" smooth="yes"/>
      <point x="109" y="-9"/>
      <point x="58" y="110"/>
      <point x="93" y="230" type="curve" smooth="yes"/>
    </contour>
    <contour>
      <point x="399" y="910" type="curve"/>
      <point x="467" y="909" type="line"/>
      <point x="463" y="870"/>
      <point x="470" y="837"/>
      <point x="517" y="836" type="curve" smooth="yes"/>
      <point x="568" y="835"/>
      <point x="601" y="871"/>
      <point x="628" y="909" type="curve"/>
      <point x="701" y="907" type="line"/>
      <point x="665" y="831"/>
      <point x="600" y="771"/>
      <point x="511" y="771" type="curve" smooth="yes"/>
      <point x="424" y="771"/>
      <point x="389" y="831"/>
    </contour>
  </outline>
</glyph>
<glyph name="Uring" format="1">
  <advance width="589"/>
  <unicode hex="016E"/>
  <outline>
    <contour>
      <point x="255" y="700" type="line"/>
      <point x="338" y="700" type="line"/>
      <point x="175" y="230" type="line" smooth="yes"/>
      <point x="152" y="155"/>
      <point x="165" y="73"/>
      <point x="259" y="71" type="curve" smooth="yes"/>
      <point x="355" y="69"/>
      <point x="428" y="147"/>
      <point x="461" y="230" type="curve" smooth="yes"/>
      <point x="623" y="700" type="line"/>
      <point x="706" y="700" type="line"/>
      <point x="545" y="230" type="line" smooth="yes"/>
      <point x="499" y="104"/>
      <point x="385" y="-9"/>
      <point x="243" y="-9" type="curve" smooth="yes"/>
      <point x="106" y="-9"/>
      <point x="59" y="111"/>
      <point x="94" y="230" type="curve" smooth="yes"/>
    </contour>
    <contour>
      <point x="440" y="872" type="curve" smooth="yes"/>
      <point x="455" y="922"/>
      <point x="513" y="970"/>
      <point x="567" y="969" type="curve" smooth="yes"/>
      <point x="621" y="968"/>
      <point x="650" y="917"/>
      <point x="635" y="868" type="curve" smooth="yes"/>
      <point x="620" y="818"/>
      <point x="561" y="770"/>
      <point x="507" y="771" type="curve" smooth="yes"/>
      <point x="453" y="772"/>
      <point x="425" y="823"/>
    </contour>
    <contour>
      <point x="489" y="869" type="curve" smooth="yes"/>
      <point x="483" y="849"/>
      <point x="493" y="821"/>
      <point x="516" y="818" type="curve" smooth="yes"/>
      <point x="540" y="814"/>
      <point x="580" y="849"/>
      <point x="586" y="871" type="curve" smooth="yes"/>
      <point x="592" y="891"/>
      <point x="582" y="919"/>
      <point x="559" y="922" type="curve" smooth="yes"/>
      <point x="535" y="926"/>
      <point x="495" y="891"/>
    </contour>
  </outline>
</glyph>
<glyph name="Wcircumflex" format="1">
  <advance width="931"/>
  <unicode hex="0174"/>
  <outline>
    <contour>
      <point x="662" y="183" type="line"/>
      <point x="1013" y="699" type="line"/>
      <point x="1114" y="699" type="line"/>
      <point x="596" y="-42" type="line"/>
      <point x="587" y="502" type="line"/>
      <point x="201" y="-42" type="line"/>
      <point x="195" y="700" type="line"/>
      <point x="284" y="700" type="line"/>
      <point x="277" y="183" type="line"/>
      <point x="663" y="742" type="line"/>
    </contour>
    <contour>
      <point x="723" y="888" type="line"/>
      <point x="585" y="796" type="line"/>
      <point x="544" y="839" type="line"/>
      <point x="738" y="975" type="line"/>
      <point x="849" y="832" type="line"/>
      <point x="793" y="795" type="line"/>
    </contour>
  </outline>
</glyph>
<glyph name="ycircumflex" format="1">
  <advance width="413"/>
  <unicode hex="0177"/>
  <outline>
    <contour>
      <point x="524" y="459" type="line"/>
      <point x="7" y="-219" type="line"/>
      <point x="-90" y="-219" type="line"/>
      <point x="135" y="73" type="line"/>
      <point x="104" y="460" type="line"/>
      <point x="192" y="460" type="line"/>
      <point x="208" y="100" type="line"/>
      <point x="174" y="106" type="line"/>
      <point x="427" y="459" type="line"/>
    </contour>
    <contour>
      <point x="374" y="623" type="line"/>
      <point x="236" y="531" type="line"/>
      <point x="195" y="574" type="line"/>
      <point x="389" y="710" type="line"/>
      <point x="500" y="567" type="line"/>
      <point x="444" y="530" type="line"/>
    </contour>
  </outline>
</glyph>
<glyph name="Ydieresis" format="1">
  <advance width="527"/>
  <unicode hex="0178"/>
  <outline>
    <contour>
      <point x="345" y="827" type="curve" smooth="yes"/>
      <point x="351" y="850"/>
      <point x="388" y="882"/>
      <point x="413" y="879" type="curve" smooth="yes"/>
      <point x="440" y="876"/>
      <point x="456" y="849"/>
      <point x="450" y="823" type="curve" smooth="yes"/>
      <point x="444" y="799"/>
      <point x="405" y="768"/>
      <point x="380" y="771" type="curve" smooth="yes"/>
      <point x="352" y="774"/>
      <point x="339" y="802"/>
    </contour>
    <contour>
      <point x="533" y="827" type="curve" smooth="yes"/>
      <point x="539" y="850"/>
      <point x="576" y="882"/>
      <point x="601" y="879" type="curve" smooth="yes"/>
      <point x="628" y="876"/>
      <point x="645" y="849"/>
      <point x="639" y="823" type="curve" smooth="yes"/>
      <point x="633" y="799"/>
      <point x="593" y="768"/>
      <point x="568" y="771" type="curve" smooth="yes"/>
      <point x="540" y="774"/>
      <point x="527" y="802"/>
    </contour>
    <contour>
      <point x="615" y="699" type="line"/>
      <point x="713" y="699" type="line"/>
      <point x="353" y="297" type="line"/>
      <point x="250" y="0" type="line"/>
      <point x="167" y="0" type="line"/>
      <point x="274" y="307" type="line"/>
      <point x="191" y="700" type="line"/>
      <point x="278" y="700" type="line"/>
      <point x="335" y="379" type="line"/>
    </contour>
  </outline>
</glyph>
<glyph name="Zacute" format="1">
  <advance width="512"/>
  <unicode hex="0179"/>
  <outline>
    <contour>
      <point x="188" y="620" type="line"/>
      <point x="217" y="700" type="line"/>
      <point x="683" y="699" type="line"/>
      <point x="125" y="81" type="line"/>
      <point x="451" y="80" type="line"/>
      <point x="422" y="0" type="line"/>
      <point x="-45" y="0" type="line"/>
      <point x="514" y="619" type="line"/>
    </contour>
    <contour>
      <point x="675" y="915" type="line"/>
      <point x="457" y="772" type="line"/>
      <point x="419" y="803" type="line"/>
      <point x="613" y="959" type="line"/>
    </contour>
  </outline>
</glyph>
<glyph name="Zdotaccent" format="1">
  <advance width="512"/>
  <unicode hex="017B"/>
  <outline>
    <contour>
      <point x="188" y="620" type="line"/>
      <point x="217" y="700" type="line"/>
      <point x="683" y="699" type="line"/>
      <point x="125" y="81" type="line"/>
      <point x="451" y="80" type="line"/>
      <point x="422" y="0" type="line"/>
      <point x="-45" y="0" type="line"/>
      <point x="514" y="619" type="line"/>
    </contour>
    <contour>
      <point x="438" y="827" type="curve" smooth="yes"/>
      <point x="444" y="851"/>
      <point x="482" y="882"/>
      <point x="507" y="879" type="curve" smooth="yes"/>
      <point x="534" y="876"/>
      <point x="550" y="849"/>
      <point x="544" y="823" type="curve" smooth="yes"/>
      <point x="538" y="799"/>
      <point x="499" y="768"/>
      <point x="474" y="771" type="curve" smooth="yes"/>
      <point x="447" y="774"/>
      <point x="432" y="801"/>
    </contour>
  </outline>
</glyph>
<glyph name="zdotaccent" format="1">
  <advance width="432"/>
  <unicode hex="017C"/>
  <outline>
    <contour>
      <point x="355" y="384" type="line"/>
      <point x="117" y="385" type="line"/>
      <point x="144" y="460" type="line"/>
      <point x="527" y="459" type="line"/>
      <point x="126" y="76" type="line"/>
      <point x="374" y="75" type="line"/>
      <point x="347" y="0" type="line"/>
      <point x="-45" y="0" type="line"/>
    </contour>
    <contour>
      <point x="333" y="617" type="curve" smooth="yes"/>
      <point x="339" y="641"/>
      <point x="378" y="672"/>
      <point x="403" y="669" type="curve" smooth="yes"/>
      <point x="430" y="666"/>
      <point x="445" y="639"/>
      <point x="439" y="613" type="curve" smooth="yes"/>
      <point x="433" y="589"/>
      <point x="395" y="558"/>
      <point x="370" y="561" type="curve" smooth="yes"/>
      <point x="343" y="564"/>
      <point x="327" y="591"/>
    </contour>
  </outline>
</glyph>
